<?xml version="1.0" encoding="UTF-8"?>
<svg xmlns="http://www.w3.org/2000/svg" xmlns:xlink="http://www.w3.org/1999/xlink" width="375pt" height="374.999991pt" viewBox="0 0 375 374.999991" version="1.2">
<defs>
<clipPath id="clip1">
  <path d="M 3 30 L 372.488281 30 L 372.488281 344 L 3 344 Z M 3 30 "/>
</clipPath>
</defs>
<g id="surface1">
<g clip-path="url(#clip1)" clip-rule="nonzero">
<path style=" stroke:none;fill-rule:nonzero;fill:rgb(75.689697%,15.289307%,17.649841%);fill-opacity:1;" d="M 372.34375 186.976562 C 372.34375 168.484375 366.804688 150.761719 355.855469 134.28125 C 346.035156 119.492188 332.277344 106.398438 314.953125 95.363281 C 281.523438 74.066406 237.589844 62.332031 191.234375 62.332031 C 175.761719 62.332031 160.5 63.636719 145.695312 66.222656 C 136.515625 57.652344 125.761719 49.9375 114.390625 43.84375 C 53.621094 14.46875 3.222656 43.152344 3.222656 43.152344 C 3.222656 43.152344 50.078125 81.539062 42.457031 115.1875 C 21.5 135.925781 10.132812 160.933594 10.132812 186.976562 C 10.132812 187.046875 10.136719 187.132812 10.136719 187.21875 C 10.136719 187.304688 10.132812 187.378906 10.132812 187.464844 C 10.132812 213.5 21.492188 238.511719 42.460938 259.253906 C 50.078125 292.898438 3.222656 331.289062 3.222656 331.289062 C 3.222656 331.289062 53.621094 359.972656 114.390625 330.597656 C 125.761719 324.5 136.511719 316.789062 145.699219 308.21875 C 160.5 310.792969 175.761719 312.101562 191.234375 312.101562 C 237.589844 312.101562 281.523438 300.378906 314.953125 279.074219 C 332.277344 268.042969 346.035156 254.953125 355.855469 240.152344 C 366.804688 223.683594 372.34375 205.945312 372.34375 187.476562 Z M 372.34375 186.976562 "/>
</g>
<path style=" stroke:none;fill-rule:nonzero;fill:rgb(100%,100%,100%);fill-opacity:1;" d="M 191.234375 88.46875 C 277.066406 88.46875 346.640625 132.792969 346.640625 187.464844 C 346.640625 242.136719 277.066406 286.46875 191.234375 286.46875 C 172.125 286.46875 153.824219 284.253906 136.921875 280.242188 C 119.734375 300.851562 81.933594 329.519531 45.210938 320.257812 C 57.15625 307.457031 74.851562 285.835938 71.066406 250.222656 C 49.054688 233.148438 35.839844 211.285156 35.839844 187.464844 C 35.835938 132.789062 105.414062 88.46875 191.234375 88.46875 "/>
<path style=" stroke:none;fill-rule:nonzero;fill:rgb(75.689697%,15.289307%,17.649841%);fill-opacity:1;" d="M 191.234375 211.242188 C 202.644531 211.242188 211.890625 202.019531 211.890625 190.65625 C 211.890625 179.28125 202.644531 170.0625 191.234375 170.0625 C 179.839844 170.0625 170.597656 179.28125 170.597656 190.65625 C 170.597656 202.019531 179.839844 211.242188 191.234375 211.242188 Z M 263.019531 211.242188 C 274.410156 211.242188 283.65625 202.019531 283.65625 190.65625 C 283.65625 179.28125 274.410156 170.0625 263.019531 170.0625 C 251.609375 170.0625 242.363281 179.28125 242.363281 190.65625 C 242.363281 202.019531 251.609375 211.242188 263.019531 211.242188 Z M 119.464844 211.242188 C 130.863281 211.242188 140.105469 202.019531 140.105469 190.65625 C 140.105469 179.28125 130.863281 170.066406 119.464844 170.066406 C 108.0625 170.066406 98.824219 179.28125 98.824219 190.65625 C 98.824219 202.019531 108.0625 211.242188 119.464844 211.242188 Z M 119.464844 211.242188 "/>
<path style=" stroke:none;fill-rule:nonzero;fill:rgb(79.998779%,79.998779%,79.998779%);fill-opacity:1;" d="M 191.234375 273.4375 C 172.125 273.4375 153.824219 271.523438 136.921875 268.042969 C 121.75 283.824219 90.496094 305.023438 58.109375 304.246094 C 53.84375 310.707031 49.203125 315.972656 45.210938 320.257812 C 81.933594 329.519531 119.734375 300.851562 136.921875 280.242188 C 153.824219 284.253906 172.140625 286.453125 191.234375 286.453125 C 276.375 286.453125 345.515625 242.84375 346.613281 188.773438 C 345.515625 235.636719 276.375 273.4375 191.234375 273.4375 Z M 191.234375 273.4375 "/>
</g>
</svg>
