<?xml version="1.0" encoding="UTF-8"?>
<svg xmlns="http://www.w3.org/2000/svg" xmlns:xlink="http://www.w3.org/1999/xlink" width="810pt" height="809.999993pt" viewBox="0 0 810 809.999993" version="1.2">
<g id="surface1">
<path style=" stroke:none;fill-rule:nonzero;fill:rgb(39.99939%,73.329163%,41.569519%);fill-opacity:1;" d="M 293.601562 324.804688 L 520.527344 324.804688 L 520.53125 329.398438 L 520.53125 551.734375 L 520.527344 556.328125 L 289.007812 556.328125 L 289.007812 324.804688 L 293.601562 324.804688 "/>
<path style=" stroke:none;fill-rule:nonzero;fill:rgb(39.99939%,73.329163%,41.569519%);fill-opacity:1;" d="M 331.269531 547.140625 L 364.664062 547.140625 L 364.664062 609.332031 C 364.664062 614.402344 362.59375 619.007812 359.257812 622.34375 C 355.921875 625.679688 351.316406 627.75 346.246094 627.75 L 345.09375 627.75 C 340.027344 627.75 335.417969 625.679688 332.085938 622.34375 C 328.75 619.007812 326.679688 614.402344 326.679688 609.332031 L 326.679688 547.140625 L 331.269531 547.140625 "/>
<path style=" stroke:none;fill-rule:nonzero;fill:rgb(39.99939%,73.329163%,41.569519%);fill-opacity:1;" d="M 449.46875 547.140625 L 482.859375 547.140625 L 482.859375 609.332031 C 482.859375 614.402344 480.789062 619.007812 477.453125 622.34375 C 474.117188 625.679688 469.511719 627.75 464.441406 627.75 L 463.289062 627.75 C 458.222656 627.75 453.613281 625.679688 450.277344 622.34375 C 446.945312 619.007812 444.871094 614.402344 444.871094 609.332031 L 444.871094 547.140625 L 449.46875 547.140625 "/>
<path style=" stroke:none;fill-rule:nonzero;fill:rgb(39.99939%,73.329163%,41.569519%);fill-opacity:1;" d="M 265.867188 326.417969 C 270.621094 326.417969 274.9375 328.359375 278.0625 331.484375 C 281.191406 334.613281 283.132812 338.929688 283.132812 343.683594 L 283.132812 473.582031 C 283.132812 478.332031 281.191406 482.652344 278.0625 485.777344 C 274.9375 488.90625 270.621094 490.847656 265.867188 490.847656 C 261.113281 490.847656 256.796875 488.90625 253.671875 485.777344 C 250.546875 482.652344 248.605469 478.332031 248.605469 473.582031 L 248.605469 343.683594 C 248.605469 338.929688 250.546875 334.613281 253.671875 331.484375 C 256.796875 328.359375 261.113281 326.417969 265.867188 326.417969 "/>
<path style=" stroke:none;fill-rule:nonzero;fill:rgb(39.99939%,73.329163%,41.569519%);fill-opacity:1;" d="M 544.132812 326.417969 C 548.882812 326.417969 553.203125 328.359375 556.332031 331.484375 C 559.457031 334.609375 561.398438 338.929688 561.398438 343.679688 L 561.398438 473.582031 C 561.398438 478.332031 559.457031 482.652344 556.332031 485.777344 C 553.203125 488.90625 548.882812 490.84375 544.132812 490.84375 C 539.378906 490.84375 535.0625 488.90625 531.9375 485.777344 C 528.808594 482.652344 526.867188 478.332031 526.867188 473.582031 L 526.867188 343.679688 C 526.867188 338.929688 528.808594 334.609375 531.9375 331.484375 C 535.0625 328.359375 539.378906 326.417969 544.132812 326.417969 "/>
<path style=" stroke:none;fill-rule:evenodd;fill:rgb(39.99939%,73.329163%,41.569519%);fill-opacity:1;" d="M 332.5625 235.304688 L 295.183594 197.929688 C 291.597656 194.34375 291.597656 188.527344 295.183594 184.941406 C 298.769531 181.351562 304.585938 181.351562 308.171875 184.941406 L 345.550781 222.316406 C 349.136719 225.902344 349.136719 231.71875 345.550781 235.304688 C 341.964844 238.890625 336.148438 238.890625 332.5625 235.304688 "/>
<path style=" stroke:none;fill-rule:evenodd;fill:rgb(39.99939%,73.329163%,41.569519%);fill-opacity:1;" d="M 463.148438 222.316406 L 500.523438 184.941406 C 504.109375 181.351562 509.925781 181.351562 513.511719 184.941406 C 517.097656 188.527344 517.097656 194.34375 513.511719 197.929688 L 476.132812 235.304688 C 472.550781 238.890625 466.730469 238.890625 463.148438 235.304688 C 459.558594 231.71875 459.558594 225.902344 463.148438 222.316406 "/>
<path style=" stroke:none;fill-rule:evenodd;fill:rgb(39.99939%,73.329163%,41.569519%);fill-opacity:1;" d="M 446.039062 270.203125 C 443.226562 267.394531 441.484375 263.507812 441.484375 259.222656 C 441.484375 254.929688 443.226562 251.042969 446.039062 248.230469 C 448.847656 245.421875 452.734375 243.683594 457.023438 243.683594 C 461.3125 243.683594 465.199219 245.421875 468.007812 248.230469 C 470.820312 251.042969 472.5625 254.929688 472.5625 259.222656 C 472.5625 263.507812 470.820312 267.394531 468.007812 270.203125 C 465.199219 273.019531 461.3125 274.753906 457.023438 274.753906 C 452.734375 274.753906 448.847656 273.019531 446.039062 270.203125 Z M 363.5 248.230469 C 366.3125 251.042969 368.050781 254.929688 368.050781 259.222656 C 368.050781 263.507812 366.3125 267.394531 363.5 270.203125 C 360.6875 273.019531 356.804688 274.753906 352.515625 274.753906 C 348.226562 274.753906 344.339844 273.019531 341.527344 270.203125 C 338.71875 267.394531 336.976562 263.507812 336.976562 259.222656 C 336.976562 254.929688 338.71875 251.042969 341.527344 248.230469 C 344.339844 245.421875 348.226562 243.683594 352.515625 243.683594 C 356.804688 243.683594 360.6875 245.421875 363.5 248.230469 Z M 320.472656 239.503906 C 301.058594 258.914062 289.007812 285.699219 289.007812 315.160156 L 289.007812 319.753906 L 520.53125 319.753906 L 520.53125 315.160156 C 520.53125 285.699219 508.480469 258.914062 489.066406 239.503906 C 485.117188 235.550781 480.859375 231.90625 476.339844 228.605469 L 472.886719 232.0625 C 471.089844 233.855469 468.183594 233.855469 466.390625 232.0625 C 464.59375 230.269531 464.59375 227.363281 466.390625 225.566406 L 468.539062 223.417969 C 452.414062 213.664062 433.539062 208.039062 413.410156 208.039062 L 396.125 208.039062 C 375.78125 208.039062 356.714844 213.785156 340.472656 223.734375 L 342.300781 225.566406 C 344.097656 227.363281 344.097656 230.269531 342.300781 232.0625 C 340.511719 233.855469 337.601562 233.855469 335.808594 232.0625 L 332.710938 228.964844 C 328.371094 232.167969 324.28125 235.695312 320.472656 239.503906 "/>
<path style=" stroke:none;fill-rule:nonzero;fill:rgb(39.99939%,73.329163%,41.569519%);fill-opacity:1;" d="M 668.46875 141.53125 C 601.039062 74.101562 507.890625 32.398438 405 32.398438 C 302.109375 32.398438 208.957031 74.101562 141.53125 141.53125 C 74.105469 208.960938 32.398438 302.109375 32.398438 405 C 32.398438 507.890625 74.105469 601.042969 141.53125 668.46875 C 208.957031 735.894531 302.109375 777.601562 405 777.601562 C 507.890625 777.601562 601.039062 735.894531 668.46875 668.46875 C 735.898438 601.042969 777.601562 507.890625 777.601562 405 C 777.601562 302.109375 735.898438 208.960938 668.46875 141.53125 Z M 405 0 C 516.835938 0 618.085938 45.328125 691.378906 118.621094 C 764.671875 191.914062 810 293.164062 810 405 C 810 516.835938 764.671875 618.085938 691.378906 691.378906 C 618.085938 764.667969 516.835938 810 405 810 C 293.164062 810 191.914062 764.667969 118.621094 691.378906 C 45.332031 618.085938 0 516.835938 0 405 C 0 293.164062 45.332031 191.914062 118.621094 118.621094 C 191.914062 45.328125 293.164062 0 405 0 "/>
</g>
</svg>
