<?xml version="1.0" encoding="UTF-8"?>
<svg xmlns="http://www.w3.org/2000/svg" xmlns:xlink="http://www.w3.org/1999/xlink" width="810pt" height="809.999993pt" viewBox="0 0 810 809.999993" version="1.2">
<defs>
<clipPath id="clip1">
  <path d="M 40 167.890625 L 768 167.890625 L 768 416 L 40 416 Z M 40 167.890625 "/>
</clipPath>
<clipPath id="clip2">
  <path d="M 7 463 L 801 463 L 801 641.679688 L 7 641.679688 Z M 7 463 "/>
</clipPath>
</defs>
<g id="surface1">
<g clip-path="url(#clip1)" clip-rule="nonzero">
<path style=" stroke:none;fill-rule:nonzero;fill:rgb(14.509583%,18.429565%,24.308777%);fill-opacity:1;" d="M 230.878906 339.929688 C 230.878906 349.679688 231.933594 357.585938 233.78125 363.386719 C 235.894531 369.183594 238.527344 375.507812 242.222656 382.359375 C 243.542969 384.464844 244.066406 386.574219 244.066406 388.421875 C 244.066406 391.054688 242.484375 393.691406 239.058594 396.328125 L 222.4375 407.394531 C 220.066406 408.976562 217.691406 409.765625 215.578125 409.765625 C 212.945312 409.765625 210.304688 408.449219 207.667969 406.074219 C 203.976562 402.125 200.808594 397.90625 198.171875 393.691406 C 195.535156 389.210938 192.894531 384.203125 189.996094 378.144531 C 169.421875 402.386719 143.574219 414.511719 112.449219 414.511719 C 90.292969 414.511719 72.621094 408.183594 59.695312 395.535156 C 46.773438 382.886719 40.179688 366.019531 40.179688 344.9375 C 40.179688 322.539062 48.089844 304.355469 64.179688 290.648438 C 80.269531 276.945312 101.636719 270.09375 128.804688 270.09375 C 137.769531 270.09375 147.003906 270.882812 156.761719 272.203125 C 166.523438 273.519531 176.542969 275.628906 187.097656 278 L 187.097656 258.761719 C 187.097656 238.730469 182.875 224.765625 174.695312 216.597656 C 166.257812 208.425781 152.011719 204.476562 131.703125 204.476562 C 122.472656 204.476562 112.976562 205.53125 103.214844 207.902344 C 93.457031 210.269531 83.960938 213.171875 74.730469 216.863281 C 70.511719 218.707031 67.34375 219.757812 65.496094 220.289062 C 63.652344 220.8125 62.332031 221.078125 61.277344 221.078125 C 57.585938 221.078125 55.738281 218.441406 55.738281 212.90625 L 55.738281 199.992188 C 55.738281 195.777344 56.265625 192.617188 57.585938 190.769531 C 58.902344 188.925781 61.277344 187.082031 64.972656 185.238281 C 74.203125 180.492188 85.28125 176.539062 98.207031 173.378906 C 111.128906 169.953125 124.84375 168.371094 139.351562 168.371094 C 170.742188 168.371094 193.691406 175.484375 208.460938 189.714844 C 222.96875 203.949219 230.355469 225.554688 230.355469 254.546875 L 230.355469 339.929688 Z M 123.789062 379.984375 C 132.496094 379.984375 141.464844 378.40625 150.957031 375.242188 C 160.453125 372.082031 168.894531 366.28125 176.015625 358.375 C 180.238281 353.371094 183.402344 347.835938 184.984375 341.511719 C 186.566406 335.1875 187.621094 327.542969 187.621094 318.582031 L 187.621094 307.515625 C 179.972656 305.671875 171.796875 304.089844 163.355469 303.035156 C 154.914062 301.980469 146.738281 301.453125 138.5625 301.453125 C 120.890625 301.453125 107.964844 304.878906 99.261719 311.996094 C 90.554688 319.113281 86.335938 329.125 86.335938 342.300781 C 86.335938 354.6875 89.5 363.910156 96.09375 370.238281 C 102.425781 376.824219 111.65625 379.984375 123.789062 379.984375 Z M 335.609375 408.449219 C 330.851562 408.449219 327.675781 407.65625 325.558594 405.8125 C 323.476562 404.230469 321.609375 400.542969 320.023438 395.535156 L 258.046875 191.824219 C 256.464844 186.554688 255.671875 183.128906 255.671875 181.285156 C 255.671875 177.066406 257.78125 174.695312 262.003906 174.695312 L 287.855469 174.695312 C 292.867188 174.695312 296.296875 175.484375 298.140625 177.332031 C 300.25 178.910156 301.835938 182.601562 303.414062 187.609375 L 347.714844 362.066406 L 388.882812 187.609375 C 390.1875 182.339844 391.777344 178.914062 393.890625 177.332031 C 396.007812 175.75 399.679688 174.695312 404.441406 174.695312 L 425.535156 174.695312 C 430.546875 174.695312 433.96875 175.488281 436.085938 177.332031 C 438.199219 178.914062 440.035156 182.601562 441.09375 187.609375 L 482.789062 364.175781 L 528.40625 187.609375 C 529.992188 182.339844 531.828125 178.914062 533.695312 177.332031 C 535.78125 175.75 539.234375 174.699219 543.964844 174.699219 L 568.515625 174.699219 C 572.714844 174.699219 575.082031 176.804688 575.082031 181.285156 C 575.082031 182.605469 574.832031 183.921875 574.582031 185.503906 C 574.304688 187.082031 573.773438 189.191406 572.714844 192.089844 L 509.144531 395.800781 C 507.558594 401.074219 505.722656 404.5 503.605469 406.078125 C 501.492188 407.660156 498.070312 408.714844 493.585938 408.714844 L 470.902344 408.714844 C 465.894531 408.714844 462.472656 407.925781 460.355469 406.078125 C 458.238281 404.234375 456.402344 400.808594 455.347656 395.539062 L 414.460938 225.5625 L 373.851562 395.277344 C 372.515625 400.546875 370.925781 403.972656 368.84375 405.816406 C 366.726562 407.660156 363.023438 408.453125 358.292969 408.453125 L 335.609375 408.453125 Z M 674.527344 415.5625 C 660.804688 415.5625 647.113281 413.980469 633.921875 410.820312 C 620.730469 407.65625 610.429688 404.230469 603.582031 400.277344 C 599.351562 397.90625 596.457031 395.273438 595.398438 392.898438 C 594.34375 390.527344 593.8125 387.890625 593.8125 385.519531 L 593.8125 372.082031 C 593.8125 366.546875 595.929688 363.910156 599.878906 363.910156 C 601.46875 363.910156 603.054688 364.175781 604.640625 364.703125 C 606.226562 365.226562 608.59375 366.28125 611.238281 367.335938 C 620.199219 371.289062 629.96875 374.453125 640.238281 376.558594 C 650.785156 378.667969 661.085938 379.722656 671.632812 379.722656 C 688.25 379.722656 701.164062 376.824219 710.15625 371.027344 C 719.117188 365.226562 723.847656 356.796875 723.847656 345.992188 C 723.847656 338.613281 721.484375 332.550781 716.753906 327.542969 C 711.992188 322.539062 703.03125 318.058594 690.085938 313.839844 L 651.84375 301.980469 C 632.582031 295.917969 618.363281 286.960938 609.652344 275.101562 C 600.9375 263.507812 596.457031 250.59375 596.457031 236.890625 C 596.457031 225.820312 598.824219 216.070312 603.582031 207.636719 C 608.34375 199.203125 614.660156 191.824219 622.5625 186.027344 C 630.5 179.964844 639.460938 175.484375 650.007812 172.324219 C 660.558594 169.160156 671.632812 167.84375 683.242188 167.84375 C 689.027344 167.84375 695.097656 168.105469 700.914062 168.898438 C 706.984375 169.6875 712.519531 170.742188 718.058594 171.796875 C 723.320312 173.113281 728.328125 174.433594 733.089844 176.011719 C 737.851562 177.59375 741.523438 179.175781 744.167969 180.757812 C 747.871094 182.863281 750.515625 184.972656 752.070312 187.34375 C 753.65625 189.453125 754.464844 192.351562 754.464844 196.042969 L 754.464844 208.425781 C 754.464844 213.960938 752.351562 216.863281 748.398438 216.863281 C 746.28125 216.863281 742.859375 215.808594 738.378906 213.695312 C 723.320312 206.84375 706.453125 203.417969 687.722656 203.417969 C 672.691406 203.417969 660.804688 205.789062 652.652344 210.800781 C 644.46875 215.808594 640.238281 223.449219 640.238281 234.253906 C 640.238281 241.632812 642.882812 247.957031 648.171875 252.964844 C 653.429688 257.96875 663.203125 262.976562 677.171875 267.457031 L 714.636719 279.320312 C 733.617188 285.378906 747.339844 293.8125 755.523438 304.613281 C 763.675781 315.421875 767.660156 327.808594 767.660156 341.511719 C 767.660156 352.84375 765.261719 363.121094 760.78125 372.082031 C 756.050781 381.039062 749.703125 388.945312 741.519531 395.273438 C 733.367188 401.859375 723.597656 406.605469 712.242188 410.03125 C 700.386719 413.71875 688 415.5625 674.527344 415.5625 Z M 674.527344 415.5625 "/>
</g>
<g clip-path="url(#clip2)" clip-rule="nonzero">
<path style=" stroke:none;fill-rule:nonzero;fill:rgb(100%,59.999084%,0%);fill-opacity:1;" d="M 724.375 543.625 C 637.59375 607.667969 511.542969 641.679688 403.132812 641.679688 C 251.191406 641.679688 114.296875 585.535156 10.914062 492.238281 C 2.722656 484.871094 10.109375 474.859375 19.867188 480.640625 C 131.703125 545.492188 269.65625 584.757812 412.335938 584.757812 C 508.609375 584.757812 614.402344 564.734375 711.703125 523.605469 C 726.234375 517.015625 738.621094 533.085938 724.367188 543.625 Z M 760.535156 502.527344 C 749.457031 488.289062 687.191406 495.6875 658.96875 499.109375 C 650.539062 500.164062 649.199219 492.765625 656.855469 487.230469 C 706.453125 452.457031 787.945312 462.472656 797.4375 474.066406 C 806.960938 485.925781 794.824219 567.347656 748.398438 606.363281 C 741.273438 612.425781 734.394531 609.253906 737.570312 601.359375 C 748.117188 575.273438 771.609375 516.488281 760.535156 502.527344 Z M 760.535156 502.527344 "/>
</g>
</g>
</svg>
