<?xml version="1.0" encoding="UTF-8"?>
<svg xmlns="http://www.w3.org/2000/svg" xmlns:xlink="http://www.w3.org/1999/xlink" width="810pt" height="809.999993pt" viewBox="0 0 810 809.999993" version="1.2">
<defs>
<clipPath id="clip1">
  <path d="M 0.0703125 544.335938 L 809.925781 544.335938 L 809.925781 752.125 L 0.0703125 752.125 Z M 0.0703125 544.335938 "/>
</clipPath>
<clipPath id="clip2">
  <path d="M 190 57.207031 L 227 57.207031 L 227 94 L 190 94 Z M 190 57.207031 "/>
</clipPath>
<clipPath id="clip3">
  <path d="M 598 57.207031 L 635 57.207031 L 635 94 L 598 94 Z M 598 57.207031 "/>
</clipPath>
<clipPath id="clip4">
  <path d="M 394 57.207031 L 431 57.207031 L 431 94 L 394 94 Z M 394 57.207031 "/>
</clipPath>
<clipPath id="clip5">
  <path d="M 721 400 L 809.925781 400 L 809.925781 545 L 721 545 Z M 721 400 "/>
</clipPath>
<clipPath id="clip6">
  <path d="M 387 544.335938 L 809.925781 544.335938 L 809.925781 752.125 L 387 752.125 Z M 387 544.335938 "/>
</clipPath>
</defs>
<g id="surface1">
<g clip-path="url(#clip1)" clip-rule="nonzero">
<path style=" stroke:none;fill-rule:nonzero;fill:rgb(29.40979%,76.469421%,79.60968%);fill-opacity:1;" d="M 0.078125 752.125 L 809.925781 752.125 L 809.925781 544.847656 L 0.078125 544.847656 Z M 0.078125 752.125 "/>
</g>
<path style=" stroke:none;fill-rule:nonzero;fill:rgb(11.759949%,28.62854%,31.759644%);fill-opacity:1;" d="M 442.738281 626.003906 C 283.738281 626.003906 154.832031 618.757812 154.832031 609.828125 C 154.832031 605.21875 189.054688 601.074219 243.984375 598.121094 L 243.984375 609.828125 C 243.984375 611.582031 244.699219 613.292969 245.933594 614.535156 C 247.175781 615.777344 248.894531 616.480469 250.652344 616.480469 L 486.25 616.480469 C 484.746094 617.523438 483.25 618.570312 481.753906 619.648438 C 478.917969 621.691406 476.128906 623.78125 473.40625 625.90625 C 463.332031 625.964844 453.09375 626.003906 442.738281 626.003906 "/>
<path style=" stroke:none;fill-rule:nonzero;fill:rgb(74.119568%,73.728943%,73.728943%);fill-opacity:1;" d="M 688.207031 470.132812 C 688.207031 491.058594 671.222656 508.011719 650.285156 508.011719 L 169.859375 508.011719 C 148.917969 508.011719 131.945312 491.058594 131.945312 470.132812 L 131.945312 210.230469 C 131.945312 189.296875 148.917969 172.335938 169.859375 172.335938 L 650.285156 172.335938 C 671.222656 172.335938 688.207031 189.296875 688.207031 210.230469 L 688.207031 470.132812 "/>
<path style=" stroke:none;fill-rule:nonzero;fill:rgb(29.40979%,8.628845%,8.239746%);fill-opacity:1;" d="M 688.207031 470.132812 L 681.542969 470.132812 C 681.535156 478.777344 678.050781 486.546875 672.382812 492.207031 C 666.707031 497.871094 658.9375 501.351562 650.285156 501.351562 L 169.859375 501.351562 C 161.207031 501.351562 153.441406 497.871094 147.761719 492.207031 C 142.09375 486.546875 138.613281 478.777344 138.613281 470.132812 L 138.613281 210.230469 C 138.613281 201.578125 142.09375 193.808594 147.761719 188.140625 C 153.441406 182.480469 161.207031 178.996094 169.859375 178.996094 L 650.285156 178.996094 C 658.929688 178.996094 666.707031 182.480469 672.382812 188.140625 C 678.050781 193.808594 681.535156 201.578125 681.542969 210.230469 L 681.542969 470.132812 L 694.867188 470.132812 L 694.867188 210.230469 C 694.875 197.941406 689.867188 186.765625 681.808594 178.730469 C 673.757812 170.679688 662.578125 165.675781 650.285156 165.675781 L 169.859375 165.675781 C 157.570312 165.675781 146.378906 170.679688 138.335938 178.730469 C 130.28125 186.769531 125.28125 197.949219 125.28125 210.230469 L 125.28125 470.132812 C 125.28125 482.414062 130.28125 493.589844 138.335938 501.625 C 146.378906 509.675781 157.570312 514.671875 169.859375 514.671875 L 650.285156 514.671875 C 662.578125 514.671875 673.757812 509.675781 681.808594 501.625 C 689.867188 493.589844 694.875 482.414062 694.867188 470.132812 L 688.207031 470.132812 "/>
<path style=" stroke:none;fill-rule:nonzero;fill:rgb(100%,100%,100%);fill-opacity:1;" d="M 688.207031 470.132812 L 131.945312 470.132812 L 131.945312 210.230469 L 688.207031 210.230469 L 688.207031 470.132812 "/>
<path style=" stroke:none;fill-rule:nonzero;fill:rgb(29.40979%,8.628845%,8.239746%);fill-opacity:1;" d="M 688.207031 470.132812 L 688.207031 463.472656 L 138.613281 463.472656 L 138.613281 216.882812 L 681.542969 216.882812 L 681.542969 470.132812 L 688.207031 470.132812 L 688.207031 463.472656 L 688.207031 470.132812 L 694.867188 470.132812 L 694.867188 210.230469 C 694.867188 208.476562 694.160156 206.757812 692.917969 205.515625 C 691.675781 204.277344 689.964844 203.570312 688.207031 203.570312 L 131.945312 203.570312 C 130.191406 203.570312 128.472656 204.277344 127.238281 205.515625 C 125.992188 206.757812 125.28125 208.476562 125.28125 210.230469 L 125.28125 470.132812 C 125.28125 471.886719 125.992188 473.597656 127.238281 474.839844 C 128.472656 476.078125 130.191406 476.792969 131.945312 476.792969 L 688.207031 476.792969 C 689.964844 476.792969 691.675781 476.078125 692.917969 474.839844 C 694.160156 473.597656 694.867188 471.886719 694.867188 470.132812 L 688.207031 470.132812 "/>
<path style=" stroke:none;fill-rule:nonzero;fill:rgb(74.119568%,73.728943%,73.728943%);fill-opacity:1;" d="M 507.453125 581.457031 L 312.695312 581.457031 L 312.695312 508.011719 L 507.453125 508.011719 L 507.453125 581.457031 "/>
<path style=" stroke:none;fill-rule:nonzero;fill:rgb(29.40979%,8.628845%,8.239746%);fill-opacity:1;" d="M 507.453125 581.457031 L 507.453125 574.796875 L 319.359375 574.796875 L 319.359375 514.671875 L 500.785156 514.671875 L 500.785156 581.457031 L 507.453125 581.457031 L 507.453125 574.796875 L 507.453125 581.457031 L 514.109375 581.457031 L 514.109375 508.011719 C 514.109375 506.257812 513.40625 504.546875 512.160156 503.304688 C 510.917969 502.066406 509.207031 501.351562 507.453125 501.351562 L 312.695312 501.351562 C 310.9375 501.351562 309.226562 502.066406 307.984375 503.304688 C 306.742188 504.546875 306.027344 506.257812 306.027344 508.011719 L 306.027344 581.457031 C 306.027344 583.210938 306.742188 584.929688 307.984375 586.164062 C 309.226562 587.402344 310.9375 588.117188 312.695312 588.117188 L 507.453125 588.117188 C 509.207031 588.117188 510.917969 587.402344 512.160156 586.164062 C 513.40625 584.921875 514.109375 583.210938 514.109375 581.457031 L 507.453125 581.457031 "/>
<path style=" stroke:none;fill-rule:nonzero;fill:rgb(74.119568%,73.728943%,73.728943%);fill-opacity:1;" d="M 250.652344 609.828125 L 569.496094 609.828125 L 569.496094 581.457031 L 250.652344 581.457031 Z M 250.652344 609.828125 "/>
<path style=" stroke:none;fill-rule:nonzero;fill:rgb(29.40979%,8.628845%,8.239746%);fill-opacity:1;" d="M 569.496094 581.457031 L 569.496094 574.796875 L 250.652344 574.796875 C 248.894531 574.796875 247.175781 575.511719 245.933594 576.746094 C 244.699219 577.984375 243.984375 579.703125 243.984375 581.457031 L 243.984375 609.828125 C 243.984375 611.582031 244.699219 613.292969 245.933594 614.535156 C 247.175781 615.777344 248.894531 616.480469 250.652344 616.480469 L 569.496094 616.480469 C 571.25 616.480469 572.960938 615.777344 574.203125 614.535156 C 575.445312 613.292969 576.160156 611.582031 576.160156 609.828125 L 576.160156 581.457031 C 576.160156 579.703125 575.445312 577.984375 574.203125 576.746094 C 572.960938 575.511719 571.25 574.796875 569.496094 574.796875 L 569.496094 581.457031 L 562.828125 581.457031 L 562.828125 603.167969 L 257.3125 603.167969 L 257.3125 588.117188 L 569.496094 588.117188 L 569.496094 581.457031 L 562.828125 581.457031 L 569.496094 581.457031 "/>
<path style=" stroke:none;fill-rule:nonzero;fill:rgb(74.119568%,73.728943%,73.728943%);fill-opacity:1;" d="M 446.734375 339.921875 L 506.910156 218.382812 L 411.921875 93.449219 L 317.804688 219.046875 L 378.835938 340.160156 L 446.734375 339.921875 "/>
<path style=" stroke:none;fill-rule:nonzero;fill:rgb(29.40979%,8.628845%,8.239746%);fill-opacity:1;" d="M 446.734375 339.921875 L 451.398438 342.226562 L 511.582031 220.6875 C 512.453125 218.917969 512.25 216.808594 511.054688 215.238281 L 416.066406 90.296875 C 415.078125 89.003906 413.535156 88.238281 411.90625 88.246094 C 410.269531 88.253906 408.738281 89.019531 407.753906 90.328125 L 313.640625 215.929688 C 312.457031 217.515625 312.269531 219.625 313.15625 221.386719 L 374.1875 342.5 C 375.078125 344.261719 376.878906 345.363281 378.859375 345.363281 L 446.75 345.117188 C 448.71875 345.117188 450.519531 343.996094 451.398438 342.226562 L 446.734375 339.921875 L 446.710938 334.71875 L 382.042969 334.949219 L 323.90625 219.589844 L 411.953125 102.078125 L 500.816406 218.964844 L 442.0625 337.617188 L 446.734375 339.921875 L 446.710938 334.71875 L 446.734375 339.921875 "/>
<path style=" stroke:none;fill-rule:nonzero;fill:rgb(29.40979%,8.628845%,8.239746%);fill-opacity:1;" d="M 406.722656 93.464844 L 407.054688 189.855469 C 407.070312 192.726562 409.40625 195.042969 412.285156 195.035156 C 415.160156 195.023438 417.480469 192.6875 417.464844 189.820312 L 417.128906 93.425781 C 417.117188 90.558594 414.777344 88.238281 411.90625 88.246094 C 409.027344 88.253906 406.707031 90.59375 406.722656 93.464844 "/>
<path style=" stroke:none;fill-rule:nonzero;fill:rgb(29.40979%,8.628845%,8.239746%);fill-opacity:1;" d="M 435.691406 206.121094 C 435.738281 219.023438 425.3125 229.519531 412.398438 229.546875 C 399.488281 229.601562 388.992188 219.179688 388.949219 206.28125 C 388.902344 193.394531 399.320312 182.898438 412.234375 182.847656 C 425.152344 182.808594 435.640625 193.222656 435.691406 206.121094 "/>
<path style=" stroke:none;fill-rule:nonzero;fill:rgb(29.019165%,76.469421%,83.918762%);fill-opacity:1;" d="M 468.207031 357.597656 L 357.445312 358 L 357.304688 322.476562 L 468.085938 322.089844 L 468.207031 357.597656 "/>
<path style=" stroke:none;fill-rule:nonzero;fill:rgb(29.40979%,8.628845%,8.239746%);fill-opacity:1;" d="M 468.207031 357.597656 L 468.183594 352.402344 L 362.632812 352.789062 L 362.527344 327.664062 L 462.902344 327.308594 L 463 357.621094 L 468.207031 357.597656 L 468.183594 352.402344 L 468.207031 357.597656 L 473.414062 357.582031 L 473.289062 322.066406 C 473.289062 320.683594 472.738281 319.375 471.753906 318.402344 C 470.765625 317.421875 469.457031 316.886719 468.070312 316.886719 L 357.28125 317.28125 C 355.890625 317.289062 354.589844 317.832031 353.605469 318.820312 C 352.625 319.800781 352.089844 321.109375 352.097656 322.5 L 352.238281 358.019531 C 352.253906 360.898438 354.589844 363.207031 357.46875 363.203125 L 468.226562 362.800781 C 471.101562 362.792969 473.421875 360.453125 473.414062 357.582031 L 468.207031 357.597656 "/>
<path style=" stroke:none;fill-rule:nonzero;fill:rgb(29.40979%,8.628845%,8.239746%);fill-opacity:1;" d="M 212.796875 80.546875 L 611.917969 80.546875 C 614.789062 80.546875 617.125 78.21875 617.125 75.351562 C 617.125 72.472656 614.789062 70.148438 611.917969 70.148438 L 212.796875 70.148438 C 209.925781 70.148438 207.589844 72.472656 207.589844 75.351562 C 207.589844 78.21875 209.925781 80.546875 212.796875 80.546875 "/>
<path style=" stroke:none;fill-rule:nonzero;fill:rgb(100%,100%,100%);fill-opacity:1;" d="M 221.457031 88.246094 L 195.632812 88.246094 L 195.632812 62.453125 L 221.457031 62.453125 L 221.457031 88.246094 "/>
<g clip-path="url(#clip2)" clip-rule="nonzero">
<path style=" stroke:none;fill-rule:nonzero;fill:rgb(29.40979%,8.628845%,8.239746%);fill-opacity:1;" d="M 221.457031 88.246094 L 221.457031 83.042969 L 200.832031 83.042969 L 200.832031 67.648438 L 216.25 67.648438 L 216.25 88.246094 L 221.457031 88.246094 L 221.457031 83.042969 L 221.457031 88.246094 L 226.65625 88.246094 L 226.65625 62.453125 C 226.65625 61.078125 226.105469 59.75 225.132812 58.773438 C 224.164062 57.808594 222.828125 57.25 221.457031 57.25 L 195.632812 57.25 C 194.257812 57.25 192.917969 57.808594 191.949219 58.773438 C 190.984375 59.742188 190.425781 61.078125 190.425781 62.453125 L 190.425781 88.246094 C 190.425781 89.613281 190.984375 90.953125 191.949219 91.917969 C 192.917969 92.890625 194.257812 93.441406 195.632812 93.441406 L 221.457031 93.441406 C 222.828125 93.441406 224.164062 92.890625 225.132812 91.917969 C 226.105469 90.953125 226.65625 89.613281 226.65625 88.246094 L 221.457031 88.246094 "/>
</g>
<path style=" stroke:none;fill-rule:nonzero;fill:rgb(100%,100%,100%);fill-opacity:1;" d="M 629.089844 88.246094 L 603.265625 88.246094 L 603.265625 62.453125 L 629.089844 62.453125 L 629.089844 88.246094 "/>
<g clip-path="url(#clip3)" clip-rule="nonzero">
<path style=" stroke:none;fill-rule:nonzero;fill:rgb(29.40979%,8.628845%,8.239746%);fill-opacity:1;" d="M 629.089844 88.246094 L 629.089844 83.042969 L 608.472656 83.042969 L 608.472656 67.648438 L 623.882812 67.648438 L 623.882812 88.246094 L 629.089844 88.246094 L 629.089844 83.042969 L 629.089844 88.246094 L 634.289062 88.246094 L 634.289062 62.453125 C 634.289062 61.078125 633.730469 59.75 632.765625 58.773438 C 631.796875 57.808594 630.457031 57.25 629.089844 57.25 L 603.265625 57.25 C 601.894531 57.25 600.558594 57.808594 599.589844 58.773438 C 598.621094 59.742188 598.066406 61.078125 598.066406 62.453125 L 598.066406 88.246094 C 598.066406 89.613281 598.621094 90.953125 599.589844 91.917969 C 600.558594 92.890625 601.894531 93.441406 603.265625 93.441406 L 629.089844 93.441406 C 630.457031 93.441406 631.796875 92.890625 632.765625 91.917969 C 633.730469 90.953125 634.289062 89.613281 634.289062 88.246094 L 629.089844 88.246094 "/>
</g>
<path style=" stroke:none;fill-rule:nonzero;fill:rgb(74.119568%,73.728943%,73.728943%);fill-opacity:1;" d="M 425.269531 88.246094 L 399.453125 88.246094 L 399.453125 62.453125 L 425.269531 62.453125 L 425.269531 88.246094 "/>
<g clip-path="url(#clip4)" clip-rule="nonzero">
<path style=" stroke:none;fill-rule:nonzero;fill:rgb(29.40979%,8.628845%,8.239746%);fill-opacity:1;" d="M 425.269531 88.246094 L 425.269531 83.042969 L 404.652344 83.042969 L 404.652344 67.648438 L 420.0625 67.648438 L 420.0625 88.246094 L 425.269531 88.246094 L 425.269531 83.042969 L 425.269531 88.246094 L 430.46875 88.246094 L 430.46875 62.453125 C 430.46875 61.078125 429.917969 59.75 428.945312 58.773438 C 427.976562 57.808594 426.636719 57.25 425.269531 57.25 L 399.453125 57.25 C 398.078125 57.25 396.738281 57.808594 395.769531 58.773438 C 394.796875 59.742188 394.246094 61.078125 394.246094 62.453125 L 394.246094 88.246094 C 394.246094 89.613281 394.796875 90.953125 395.769531 91.917969 C 396.738281 92.890625 398.078125 93.441406 399.453125 93.441406 L 425.269531 93.441406 C 426.636719 93.441406 427.976562 92.890625 428.945312 91.917969 C 429.917969 90.953125 430.46875 89.613281 430.46875 88.246094 L 425.269531 88.246094 "/>
</g>
<path style=" stroke:none;fill-rule:nonzero;fill:rgb(99.21875%,86.669922%,27.839661%);fill-opacity:1;" d="M 629.667969 576.179688 L 597.402344 580.410156 L 566.175781 342.53125 L 598.4375 338.300781 L 629.667969 576.179688 "/>
<path style=" stroke:none;fill-rule:nonzero;fill:rgb(29.40979%,8.628845%,8.239746%);fill-opacity:1;" d="M 629.667969 576.179688 L 629.179688 572.410156 L 600.675781 576.144531 L 570.441406 345.808594 L 595.164062 342.566406 L 625.898438 576.671875 L 629.667969 576.179688 L 629.179688 572.410156 L 629.667969 576.179688 L 633.441406 575.683594 L 602.207031 337.804688 C 602.074219 336.800781 601.5625 335.90625 600.757812 335.28125 C 599.945312 334.667969 598.949219 334.398438 597.945312 334.53125 L 565.679688 338.761719 C 563.59375 339.035156 562.128906 340.945312 562.40625 343.027344 L 593.628906 580.898438 C 593.898438 582.980469 595.808594 584.445312 597.894531 584.175781 L 630.167969 579.949219 C 631.171875 579.816406 632.074219 579.300781 632.691406 578.492188 C 633.308594 577.6875 633.574219 576.691406 633.441406 575.683594 L 629.667969 576.179688 "/>
<path style=" stroke:none;fill-rule:nonzero;fill:rgb(74.119568%,73.728943%,73.728943%);fill-opacity:1;" d="M 596.167969 320.960938 L 563.898438 325.195312 L 566.175781 342.53125 L 598.4375 338.300781 L 596.167969 320.960938 "/>
<path style=" stroke:none;fill-rule:nonzero;fill:rgb(29.40979%,8.628845%,8.239746%);fill-opacity:1;" d="M 596.167969 320.960938 L 595.667969 317.191406 L 563.402344 321.421875 C 561.316406 321.695312 559.851562 323.605469 560.128906 325.6875 L 562.40625 343.027344 C 562.53125 344.03125 563.050781 344.929688 563.855469 345.546875 C 564.667969 346.164062 565.664062 346.433594 566.667969 346.296875 L 598.933594 342.070312 C 601.019531 341.792969 602.484375 339.882812 602.207031 337.808594 L 599.933594 320.46875 C 599.804688 319.457031 599.285156 318.566406 598.480469 317.949219 C 597.675781 317.324219 596.671875 317.066406 595.667969 317.191406 L 596.167969 320.960938 L 592.386719 321.457031 L 594.171875 335.03125 L 569.449219 338.269531 L 568.164062 328.46875 L 596.660156 324.726562 L 596.167969 320.960938 L 592.386719 321.457031 L 596.167969 320.960938 "/>
<path style=" stroke:none;fill-rule:nonzero;fill:rgb(29.40979%,8.628845%,8.239746%);fill-opacity:1;" d="M 572.925781 341.652344 L 604.152344 579.523438 C 604.425781 581.605469 606.335938 583.070312 608.421875 582.796875 C 610.503906 582.527344 611.96875 580.617188 611.695312 578.535156 L 580.46875 340.664062 C 580.199219 338.574219 578.289062 337.113281 576.207031 337.386719 C 574.121094 337.660156 572.65625 339.570312 572.925781 341.652344 "/>
<path style=" stroke:none;fill-rule:nonzero;fill:rgb(29.40979%,8.628845%,8.239746%);fill-opacity:1;" d="M 584.144531 340.175781 L 615.371094 578.054688 C 615.644531 580.132812 617.558594 581.605469 619.640625 581.332031 C 621.722656 581.054688 623.191406 579.144531 622.914062 577.0625 L 591.6875 339.183594 C 591.421875 337.105469 589.507812 335.632812 587.425781 335.90625 C 585.34375 336.183594 583.867188 338.09375 584.144531 340.175781 "/>
<path style=" stroke:none;fill-rule:nonzero;fill:rgb(93.728638%,18.03894%,63.139343%);fill-opacity:1;" d="M 596.195312 321.183594 L 594.292969 306.6875 C 593.683594 302.066406 589.441406 298.808594 584.8125 299.410156 L 569.308594 301.449219 C 564.679688 302.050781 561.421875 306.292969 562.015625 310.925781 L 563.929688 325.410156 L 596.195312 321.183594 "/>
<path style=" stroke:none;fill-rule:nonzero;fill:rgb(29.40979%,8.628845%,8.239746%);fill-opacity:1;" d="M 596.195312 321.183594 L 599.96875 320.691406 L 598.066406 306.199219 C 597.664062 303.128906 596.128906 300.4375 593.964844 298.554688 C 591.792969 296.667969 588.957031 295.539062 585.921875 295.539062 C 585.394531 295.539062 584.851562 295.574219 584.316406 295.648438 L 568.816406 297.679688 L 568.824219 297.679688 C 565.746094 298.074219 563.042969 299.605469 561.160156 301.773438 C 559.273438 303.945312 558.140625 306.785156 558.140625 309.824219 C 558.140625 310.34375 558.179688 310.878906 558.253906 311.429688 L 558.246094 311.421875 L 560.15625 325.902344 C 560.433594 327.984375 562.335938 329.449219 564.421875 329.179688 L 596.6875 324.949219 C 597.699219 324.824219 598.59375 324.304688 599.210938 323.5 C 599.835938 322.691406 600.09375 321.695312 599.96875 320.691406 L 596.195312 321.183594 L 595.699219 317.414062 L 567.203125 321.144531 L 565.789062 310.425781 L 565.789062 310.417969 C 565.765625 310.226562 565.753906 310.027344 565.753906 309.824219 C 565.753906 308.671875 566.175781 307.601562 566.898438 306.769531 C 567.628906 305.9375 568.617188 305.371094 569.800781 305.214844 L 569.808594 305.214844 L 585.304688 303.1875 C 585.511719 303.15625 585.714844 303.144531 585.921875 303.144531 C 587.066406 303.144531 588.132812 303.566406 588.964844 304.289062 C 589.792969 305.015625 590.363281 305.996094 590.519531 307.179688 L 592.425781 321.679688 L 596.195312 321.183594 L 595.699219 317.414062 L 596.195312 321.183594 "/>
<path style=" stroke:none;fill-rule:nonzero;fill:rgb(98.039246%,71.759033%,63.139343%);fill-opacity:1;" d="M 597.402344 580.410156 L 618.167969 612.125 L 630.042969 576.136719 L 597.402344 580.410156 "/>
<path style=" stroke:none;fill-rule:nonzero;fill:rgb(29.40979%,8.628845%,8.239746%);fill-opacity:1;" d="M 597.402344 580.410156 L 594.21875 582.484375 L 614.984375 614.207031 C 615.777344 615.425781 617.214844 616.085938 618.660156 615.894531 C 620.101562 615.707031 621.320312 614.699219 621.785156 613.324219 L 633.648438 577.324219 C 634.058594 576.082031 633.804688 574.722656 632.964844 573.710938 C 632.132812 572.699219 630.84375 572.195312 629.542969 572.367188 L 596.902344 576.632812 C 595.609375 576.804688 594.492188 577.628906 593.941406 578.820312 C 593.398438 580.007812 593.496094 581.390625 594.21875 582.484375 L 597.402344 580.410156 L 597.894531 584.175781 L 624.527344 580.691406 L 617.027344 603.445312 L 600.585938 578.328125 L 597.402344 580.410156 L 597.894531 584.175781 L 597.402344 580.410156 "/>
<path style=" stroke:none;fill-rule:nonzero;fill:rgb(29.40979%,8.628845%,8.239746%);fill-opacity:1;" d="M 608.523438 597.402344 L 618.167969 612.125 L 623.679688 595.417969 L 608.523438 597.402344 "/>
<path style=" stroke:none;fill-rule:nonzero;fill:rgb(74.119568%,73.728943%,73.728943%);fill-opacity:1;" d="M 717.449219 345.214844 C 716.875 348.960938 713.371094 351.53125 709.613281 350.953125 C 705.863281 350.378906 703.28125 346.878906 703.863281 343.125 L 708.378906 313.601562 C 708.957031 309.855469 712.46875 307.28125 716.21875 307.855469 C 719.976562 308.425781 722.558594 311.929688 721.976562 315.691406 L 717.449219 345.214844 "/>
<path style=" stroke:none;fill-rule:nonzero;fill:rgb(29.40979%,8.628845%,8.239746%);fill-opacity:1;" d="M 717.449219 345.214844 L 713.691406 344.632812 C 713.570312 345.40625 713.191406 346.03125 712.648438 346.5 C 712.097656 346.96875 711.40625 347.234375 710.667969 347.234375 L 710.191406 347.199219 C 709.410156 347.078125 708.789062 346.699219 708.320312 346.15625 C 707.851562 345.609375 707.582031 344.917969 707.582031 344.179688 L 707.617188 343.71875 L 707.617188 343.695312 L 712.136719 314.171875 L 712.136719 314.179688 C 712.261719 313.40625 712.632812 312.785156 713.183594 312.308594 C 713.734375 311.847656 714.433594 311.578125 715.171875 311.578125 L 715.640625 311.609375 C 716.421875 311.734375 717.046875 312.105469 717.523438 312.648438 C 717.984375 313.199219 718.25 313.890625 718.25 314.632812 C 718.25 314.78125 718.242188 314.945312 718.214844 315.117188 L 718.214844 315.109375 L 713.691406 344.632812 L 717.449219 345.214844 L 721.210938 345.785156 L 725.734375 316.261719 C 725.816406 315.71875 725.863281 315.175781 725.863281 314.632812 C 725.863281 312.03125 724.910156 309.59375 723.308594 307.722656 C 721.710938 305.839844 719.417969 304.496094 716.792969 304.09375 L 716.800781 304.09375 C 716.25 304.011719 715.707031 303.976562 715.171875 303.976562 C 712.574219 303.976562 710.132812 304.917969 708.25 306.515625 C 706.375 308.109375 705.023438 310.398438 704.613281 313.019531 L 700.097656 342.550781 L 700.105469 342.53125 C 700.015625 343.09375 699.96875 343.644531 699.96875 344.179688 C 699.96875 346.773438 700.921875 349.210938 702.523438 351.085938 C 704.121094 352.964844 706.414062 354.3125 709.039062 354.714844 C 709.582031 354.792969 710.125 354.832031 710.667969 354.832031 C 713.265625 354.832031 715.699219 353.886719 717.582031 352.289062 C 719.457031 350.699219 720.808594 348.410156 721.210938 345.785156 L 717.449219 345.214844 "/>
<path style=" stroke:none;fill-rule:nonzero;fill:rgb(39.219666%,78.819275%,65.489197%);fill-opacity:1;" d="M 698.027344 544.847656 L 662.5625 539.421875 L 695.1875 326.691406 L 730.644531 332.125 L 698.027344 544.847656 "/>
<path style=" stroke:none;fill-rule:nonzero;fill:rgb(29.40979%,8.628845%,8.239746%);fill-opacity:1;" d="M 698.027344 544.847656 L 698.601562 541.097656 L 666.898438 536.242188 L 698.371094 331.023438 L 726.316406 335.304688 L 694.265625 544.277344 L 698.027344 544.847656 L 698.601562 541.097656 L 698.027344 544.847656 L 701.785156 545.421875 L 734.410156 332.695312 C 734.558594 331.707031 734.304688 330.683594 733.71875 329.871094 C 733.125 329.0625 732.214844 328.519531 731.226562 328.363281 L 695.757812 322.9375 C 693.683594 322.617188 691.742188 324.042969 691.421875 326.117188 L 658.804688 538.84375 C 658.484375 540.917969 659.90625 542.863281 661.988281 543.175781 L 697.449219 548.601562 C 698.453125 548.757812 699.457031 548.515625 700.277344 547.910156 C 701.101562 547.308594 701.636719 546.433594 701.785156 545.421875 L 698.027344 544.847656 "/>
<path style=" stroke:none;fill-rule:nonzero;fill:rgb(74.119568%,73.728943%,73.728943%);fill-opacity:1;" d="M 698.027344 544.847656 L 662.5625 539.421875 L 674.519531 579.761719 L 698.027344 544.847656 "/>
<path style=" stroke:none;fill-rule:nonzero;fill:rgb(29.40979%,8.628845%,8.239746%);fill-opacity:1;" d="M 698.027344 544.847656 L 698.601562 541.097656 L 663.140625 535.664062 C 661.855469 535.46875 660.546875 535.945312 659.699219 536.925781 C 658.84375 537.898438 658.542969 539.261719 658.917969 540.5 L 670.871094 580.839844 C 671.289062 582.246094 672.496094 583.292969 673.945312 583.515625 C 675.394531 583.738281 676.863281 583.101562 677.679688 581.882812 L 701.183594 546.976562 C 701.90625 545.898438 702.03125 544.507812 701.511719 543.324219 C 700.988281 542.136719 699.890625 541.289062 698.601562 541.097656 L 698.027344 544.847656 L 694.867188 542.730469 L 675.871094 570.941406 L 667.910156 544.082031 L 697.449219 548.601562 L 698.027344 544.847656 L 694.867188 542.730469 L 698.027344 544.847656 "/>
<path style=" stroke:none;fill-rule:nonzero;fill:rgb(29.40979%,8.628845%,8.239746%);fill-opacity:1;" d="M 671.207031 568.566406 L 674.519531 579.761719 L 681.042969 570.070312 L 671.207031 568.566406 "/>
<path style=" stroke:none;fill-rule:nonzero;fill:rgb(99.21875%,86.669922%,27.839661%);fill-opacity:1;" d="M 705.179688 328.222656 L 690.828125 421.847656 C 690.171875 426.113281 693.105469 430.097656 697.375 430.753906 C 701.644531 431.40625 705.640625 428.476562 706.292969 424.210938 L 720.648438 330.59375 L 705.179688 328.222656 "/>
<path style=" stroke:none;fill-rule:nonzero;fill:rgb(29.40979%,8.628845%,8.239746%);fill-opacity:1;" d="M 705.179688 328.222656 L 701.421875 327.640625 L 687.0625 421.269531 C 686.972656 421.855469 686.929688 422.449219 686.929688 423.039062 C 686.929688 425.863281 687.960938 428.515625 689.703125 430.558594 C 691.445312 432.605469 693.9375 434.074219 696.800781 434.507812 C 697.390625 434.59375 697.984375 434.640625 698.570312 434.640625 C 701.398438 434.640625 704.054688 433.613281 706.101562 431.875 C 708.148438 430.136719 709.621094 427.652344 710.050781 424.792969 L 724.410156 331.164062 C 724.730469 329.089844 723.300781 327.152344 721.226562 326.832031 L 705.757812 324.460938 C 704.769531 324.3125 703.734375 324.566406 702.933594 325.160156 C 702.121094 325.753906 701.570312 326.652344 701.421875 327.640625 L 705.179688 328.222656 L 704.605469 331.976562 L 716.308594 333.773438 L 702.53125 423.640625 C 702.375 424.644531 701.882812 425.46875 701.167969 426.078125 C 700.453125 426.6875 699.539062 427.042969 698.570312 427.042969 C 698.371094 427.042969 698.164062 427.027344 697.953125 426.992188 C 696.941406 426.835938 696.117188 426.34375 695.5 425.632812 C 694.890625 424.910156 694.539062 424.003906 694.539062 423.039062 C 694.539062 422.835938 694.554688 422.628906 694.589844 422.421875 L 708.945312 328.792969 L 705.179688 328.222656 L 704.605469 331.976562 L 705.179688 328.222656 "/>
<path style=" stroke:none;fill-rule:nonzero;fill:rgb(74.119568%,73.728943%,73.728943%);fill-opacity:1;" d="M 669.109375 561.683594 L 632.15625 549.058594 L 632.15625 509.289062 L 669.109375 509.289062 L 669.109375 561.683594 "/>
<path style=" stroke:none;fill-rule:nonzero;fill:rgb(29.40979%,8.628845%,8.239746%);fill-opacity:1;" d="M 669.109375 561.683594 L 670.335938 558.085938 L 635.964844 546.335938 L 635.964844 513.089844 L 665.308594 513.089844 L 665.308594 561.683594 L 669.109375 561.683594 L 670.335938 558.085938 L 669.109375 561.683594 L 672.910156 561.683594 L 672.910156 509.289062 C 672.910156 508.285156 672.507812 507.3125 671.800781 506.605469 C 671.089844 505.894531 670.105469 505.492188 669.109375 505.492188 L 632.15625 505.492188 C 631.15625 505.492188 630.175781 505.894531 629.46875 506.605469 C 628.761719 507.3125 628.351562 508.285156 628.351562 509.289062 L 628.351562 549.058594 C 628.351562 550.683594 629.378906 552.125 630.925781 552.652344 L 667.875 565.28125 C 669.042969 565.675781 670.316406 565.492188 671.320312 564.777344 C 672.324219 564.054688 672.910156 562.917969 672.910156 561.683594 L 669.109375 561.683594 "/>
<path style=" stroke:none;fill-rule:nonzero;fill:rgb(74.119568%,73.728943%,73.728943%);fill-opacity:1;" d="M 669.109375 541.792969 L 632.15625 529.171875 L 669.109375 541.792969 "/>
<path style=" stroke:none;fill-rule:nonzero;fill:rgb(29.40979%,8.628845%,8.239746%);fill-opacity:1;" d="M 670.335938 538.203125 L 633.390625 525.574219 C 631.402344 524.898438 629.238281 525.960938 628.5625 527.945312 C 627.875 529.929688 628.941406 532.09375 630.925781 532.769531 L 667.875 545.390625 C 669.867188 546.074219 672.035156 545.011719 672.710938 543.027344 C 673.386719 541.042969 672.332031 538.878906 670.335938 538.203125 "/>
<path style=" stroke:none;fill-rule:nonzero;fill:rgb(74.119568%,73.728943%,73.728943%);fill-opacity:1;" d="M 669.109375 521.910156 L 632.15625 509.289062 "/>
<path style=" stroke:none;fill-rule:nonzero;fill:rgb(29.40979%,8.628845%,8.239746%);fill-opacity:1;" d="M 670.335938 518.3125 L 633.390625 505.691406 C 631.402344 505.015625 629.238281 506.070312 628.5625 508.0625 C 627.875 510.046875 628.941406 512.210938 630.925781 512.886719 L 667.875 525.507812 C 669.867188 526.183594 672.035156 525.121094 672.710938 523.136719 C 673.386719 521.152344 672.332031 518.988281 670.335938 518.3125 "/>
<path style=" stroke:none;fill-rule:nonzero;fill:rgb(29.019165%,76.469421%,83.918762%);fill-opacity:1;" d="M 677.628906 507.132812 L 650.636719 528.175781 L 623.644531 507.132812 L 623.644531 349.894531 L 677.628906 349.894531 L 677.628906 507.132812 "/>
<path style=" stroke:none;fill-rule:nonzero;fill:rgb(29.40979%,8.628845%,8.239746%);fill-opacity:1;" d="M 677.628906 507.132812 L 675.285156 504.132812 L 650.636719 523.351562 L 627.445312 505.277344 L 627.445312 353.695312 L 673.820312 353.695312 L 673.820312 507.132812 L 677.628906 507.132812 L 675.285156 504.132812 L 677.628906 507.132812 L 681.429688 507.132812 L 681.429688 349.894531 C 681.429688 348.894531 681.027344 347.910156 680.3125 347.207031 C 679.605469 346.5 678.632812 346.089844 677.628906 346.089844 L 623.644531 346.089844 C 622.640625 346.089844 621.65625 346.5 620.949219 347.207031 C 620.242188 347.910156 619.835938 348.894531 619.835938 349.894531 L 619.835938 507.132812 C 619.835938 508.300781 620.378906 509.410156 621.300781 510.128906 L 648.292969 531.171875 C 649.667969 532.242188 651.59375 532.242188 652.972656 531.171875 L 679.972656 510.128906 C 680.886719 509.410156 681.429688 508.300781 681.429688 507.132812 L 677.628906 507.132812 "/>
<path style=" stroke:none;fill-rule:nonzero;fill:rgb(29.40979%,8.628845%,8.239746%);fill-opacity:1;" d="M 677.628906 362.316406 L 677.628906 334.085938 C 677.628906 327.664062 672.40625 322.453125 665.96875 322.453125 L 635.300781 322.453125 C 628.859375 322.453125 623.644531 327.664062 623.644531 334.085938 L 623.644531 362.316406 L 677.628906 362.316406 "/>
<path style=" stroke:none;fill-rule:nonzero;fill:rgb(29.40979%,8.628845%,8.239746%);fill-opacity:1;" d="M 677.628906 362.316406 L 681.429688 362.316406 L 681.429688 334.085938 C 681.429688 325.554688 674.503906 318.65625 665.96875 318.648438 L 635.300781 318.648438 C 626.753906 318.648438 619.839844 325.5625 619.835938 334.085938 L 619.835938 362.316406 C 619.835938 363.3125 620.242188 364.292969 620.949219 365 C 621.65625 365.714844 622.640625 366.113281 623.644531 366.113281 L 677.628906 366.113281 C 678.632812 366.113281 679.605469 365.714844 680.3125 365 C 681.027344 364.292969 681.429688 363.3125 681.429688 362.316406 L 677.628906 362.316406 L 677.628906 358.511719 L 627.445312 358.511719 L 627.445312 334.085938 C 627.445312 331.910156 628.316406 329.976562 629.746094 328.546875 C 631.171875 327.121094 633.113281 326.25 635.300781 326.25 L 665.96875 326.25 C 668.148438 326.25 670.089844 327.121094 671.519531 328.546875 C 672.949219 329.976562 673.820312 331.910156 673.820312 334.085938 L 673.820312 362.316406 L 677.628906 362.316406 L 677.628906 358.511719 L 677.628906 362.316406 "/>
<path style=" stroke:none;fill-rule:nonzero;fill:rgb(74.119568%,73.728943%,73.728943%);fill-opacity:1;" d="M 662.695312 489.90625 C 662.695312 496.558594 657.300781 501.953125 650.636719 501.953125 C 643.96875 501.953125 638.566406 496.558594 638.566406 489.90625 L 638.566406 384.386719 C 638.566406 377.734375 643.96875 372.335938 650.636719 372.335938 C 657.300781 372.335938 662.695312 377.734375 662.695312 384.386719 L 662.695312 489.90625 "/>
<path style=" stroke:none;fill-rule:nonzero;fill:rgb(29.40979%,8.628845%,8.239746%);fill-opacity:1;" d="M 662.695312 489.90625 L 658.894531 489.90625 C 658.886719 492.195312 657.980469 494.230469 656.476562 495.738281 C 654.972656 497.234375 652.925781 498.148438 650.636719 498.148438 C 648.34375 498.148438 646.296875 497.234375 644.789062 495.730469 C 643.285156 494.230469 642.371094 492.195312 642.371094 489.90625 L 642.371094 384.386719 C 642.371094 382.097656 643.285156 380.058594 644.789062 378.558594 C 646.296875 377.054688 648.34375 376.136719 650.636719 376.136719 C 652.925781 376.136719 654.972656 377.054688 656.476562 378.550781 C 657.972656 380.050781 658.886719 382.097656 658.894531 384.386719 L 658.894531 489.90625 L 666.496094 489.90625 L 666.496094 384.386719 C 666.496094 375.628906 659.40625 368.539062 650.636719 368.53125 C 641.871094 368.539062 634.765625 375.628906 634.757812 384.386719 L 634.757812 489.90625 C 634.765625 498.660156 641.871094 505.75 650.636719 505.75 C 659.40625 505.75 666.496094 498.652344 666.496094 489.90625 L 662.695312 489.90625 "/>
<path style=" stroke:none;fill-rule:nonzero;fill:rgb(74.119568%,73.728943%,73.728943%);fill-opacity:1;" d="M 661.519531 390.078125 L 639.667969 382.980469 "/>
<path style=" stroke:none;fill-rule:nonzero;fill:rgb(29.40979%,8.628845%,8.239746%);fill-opacity:1;" d="M 662.695312 386.460938 L 640.84375 379.367188 C 638.84375 378.722656 636.699219 379.8125 636.046875 381.804688 C 635.398438 383.804688 636.492188 385.945312 638.492188 386.601562 L 660.34375 393.691406 C 662.347656 394.339844 664.496094 393.246094 665.144531 391.253906 C 665.792969 389.253906 664.699219 387.105469 662.695312 386.460938 "/>
<path style=" stroke:none;fill-rule:nonzero;fill:rgb(74.119568%,73.728943%,73.728943%);fill-opacity:1;" d="M 662.695312 410.726562 L 638.566406 403.257812 "/>
<path style=" stroke:none;fill-rule:nonzero;fill:rgb(29.40979%,8.628845%,8.239746%);fill-opacity:1;" d="M 663.820312 407.09375 L 639.691406 399.628906 C 637.683594 399.007812 635.546875 400.128906 634.929688 402.136719 C 634.304688 404.140625 635.429688 406.269531 637.4375 406.894531 L 661.574219 414.355469 C 663.582031 414.980469 665.710938 413.859375 666.335938 411.851562 C 666.953125 409.84375 665.828125 407.71875 663.820312 407.09375 "/>
<path style=" stroke:none;fill-rule:nonzero;fill:rgb(74.119568%,73.728943%,73.728943%);fill-opacity:1;" d="M 662.695312 431.003906 L 638.566406 423.527344 "/>
<path style=" stroke:none;fill-rule:nonzero;fill:rgb(29.40979%,8.628845%,8.239746%);fill-opacity:1;" d="M 663.828125 427.378906 L 639.691406 419.902344 C 637.683594 419.277344 635.554688 420.398438 634.929688 422.40625 C 634.304688 424.414062 635.429688 426.539062 637.4375 427.164062 L 661.574219 434.640625 C 663.574219 435.265625 665.710938 434.140625 666.335938 432.136719 C 666.953125 430.128906 665.828125 428.003906 663.828125 427.378906 "/>
<path style=" stroke:none;fill-rule:nonzero;fill:rgb(74.119568%,73.728943%,73.728943%);fill-opacity:1;" d="M 662.695312 451.273438 L 638.566406 443.804688 "/>
<path style=" stroke:none;fill-rule:nonzero;fill:rgb(29.40979%,8.628845%,8.239746%);fill-opacity:1;" d="M 663.820312 447.640625 L 639.691406 440.179688 C 637.683594 439.554688 635.546875 440.675781 634.929688 442.683594 C 634.304688 444.691406 635.429688 446.816406 637.4375 447.441406 L 661.574219 454.910156 C 663.582031 455.527344 665.710938 454.40625 666.335938 452.398438 C 666.953125 450.398438 665.828125 448.265625 663.820312 447.640625 "/>
<path style=" stroke:none;fill-rule:nonzero;fill:rgb(74.119568%,73.728943%,73.728943%);fill-opacity:1;" d="M 662.695312 471.550781 L 638.566406 464.074219 "/>
<path style=" stroke:none;fill-rule:nonzero;fill:rgb(29.40979%,8.628845%,8.239746%);fill-opacity:1;" d="M 663.820312 467.925781 L 639.691406 460.449219 C 637.683594 459.824219 635.554688 460.945312 634.929688 462.953125 C 634.304688 464.960938 635.429688 467.085938 637.4375 467.710938 L 661.574219 475.179688 C 663.574219 475.804688 665.710938 474.683594 666.335938 472.675781 C 666.953125 470.675781 665.828125 468.542969 663.820312 467.925781 "/>
<path style=" stroke:none;fill-rule:nonzero;fill:rgb(74.119568%,73.728943%,73.728943%);fill-opacity:1;" d="M 661.519531 491.457031 L 639.667969 484.695312 "/>
<path style=" stroke:none;fill-rule:nonzero;fill:rgb(29.40979%,8.628845%,8.239746%);fill-opacity:1;" d="M 662.652344 487.832031 L 640.792969 481.058594 C 638.785156 480.441406 636.65625 481.558594 636.03125 483.5625 C 635.414062 485.570312 636.53125 487.695312 638.539062 488.320312 L 660.398438 495.09375 C 662.40625 495.710938 664.535156 494.59375 665.160156 492.589844 C 665.785156 490.582031 664.660156 488.457031 662.652344 487.832031 "/>
<path style=" stroke:none;fill-rule:nonzero;fill:rgb(99.21875%,86.669922%,27.839661%);fill-opacity:1;" d="M 662.695312 424.597656 L 638.566406 424.597656 L 638.566406 396.867188 L 662.695312 396.867188 L 662.695312 424.597656 "/>
<path style=" stroke:none;fill-rule:nonzero;fill:rgb(29.40979%,8.628845%,8.239746%);fill-opacity:1;" d="M 662.695312 424.597656 L 662.695312 420.800781 L 642.371094 420.800781 L 642.371094 400.671875 L 658.894531 400.671875 L 658.894531 424.597656 L 662.695312 424.597656 L 662.695312 420.800781 L 662.695312 424.597656 L 666.496094 424.597656 L 666.496094 396.867188 C 666.496094 395.871094 666.097656 394.886719 665.390625 394.183594 C 664.675781 393.476562 663.699219 393.066406 662.695312 393.066406 L 638.566406 393.066406 C 637.5625 393.066406 636.582031 393.476562 635.875 394.183594 C 635.167969 394.886719 634.757812 395.871094 634.757812 396.867188 L 634.757812 424.597656 C 634.757812 425.601562 635.167969 426.582031 635.875 427.289062 C 636.582031 427.996094 637.5625 428.402344 638.566406 428.402344 L 662.695312 428.402344 C 663.699219 428.402344 664.675781 427.996094 665.390625 427.289062 C 666.097656 426.582031 666.496094 425.601562 666.496094 424.597656 L 662.695312 424.597656 "/>
<path style=" stroke:none;fill-rule:nonzero;fill:rgb(97.24884%,63.529968%,17.649841%);fill-opacity:1;" d="M 580.585938 583.152344 L 543.96875 583.152344 C 529.476562 583.152344 517.691406 571.378906 517.691406 556.90625 L 517.691406 517.257812 C 517.691406 502.785156 529.476562 491.011719 543.96875 491.011719 L 580.585938 491.011719 C 586.421875 491.011719 591.144531 495.726562 591.144531 501.558594 C 591.144531 507.371094 586.421875 512.09375 580.585938 512.09375 L 543.96875 512.09375 C 541.109375 512.09375 538.789062 514.417969 538.789062 517.257812 L 538.789062 556.90625 C 538.789062 559.753906 541.109375 562.066406 543.96875 562.066406 L 580.585938 562.066406 C 586.421875 562.066406 591.144531 566.785156 591.144531 572.613281 C 591.144531 578.4375 586.421875 583.152344 580.585938 583.152344 "/>
<path style=" stroke:none;fill-rule:nonzero;fill:rgb(29.40979%,8.628845%,8.239746%);fill-opacity:1;" d="M 580.585938 583.152344 L 580.585938 579.355469 L 543.96875 579.355469 C 537.761719 579.355469 532.167969 576.839844 528.082031 572.769531 C 524.007812 568.6875 521.492188 563.097656 521.492188 556.90625 L 521.492188 517.257812 C 521.492188 511.066406 524.007812 505.476562 528.082031 501.394531 C 532.167969 497.324219 537.761719 494.808594 543.96875 494.808594 L 580.585938 494.808594 C 582.460938 494.808594 584.128906 495.5625 585.363281 496.789062 C 586.59375 498.015625 587.335938 499.679688 587.335938 501.558594 C 587.335938 503.425781 586.59375 505.082031 585.363281 506.316406 C 584.128906 507.542969 582.460938 508.292969 580.585938 508.292969 L 543.96875 508.292969 C 539 508.300781 534.996094 512.308594 534.988281 517.257812 L 534.988281 556.90625 C 534.996094 561.863281 539.011719 565.863281 543.96875 565.863281 L 580.585938 565.863281 C 582.460938 565.871094 584.128906 566.613281 585.363281 567.839844 C 586.59375 569.074219 587.335938 570.738281 587.335938 572.613281 C 587.335938 574.484375 586.59375 576.148438 585.363281 577.375 C 584.128906 578.601562 582.460938 579.355469 580.585938 579.355469 L 580.585938 586.957031 C 588.519531 586.957031 594.945312 580.535156 594.945312 572.613281 C 594.945312 564.6875 588.519531 558.265625 580.585938 558.265625 L 543.96875 558.265625 C 543.582031 558.257812 543.253906 558.117188 542.992188 557.855469 C 542.742188 557.605469 542.597656 557.285156 542.597656 556.90625 L 542.597656 517.257812 C 542.597656 516.878906 542.742188 516.558594 543 516.300781 C 543.261719 516.039062 543.582031 515.898438 543.96875 515.898438 L 580.585938 515.898438 C 588.519531 515.890625 594.945312 509.476562 594.945312 501.558594 C 594.945312 493.628906 588.519531 487.214844 580.585938 487.207031 L 543.96875 487.207031 C 527.371094 487.214844 513.886719 500.683594 513.878906 517.257812 L 513.878906 556.90625 C 513.886719 573.488281 527.371094 586.949219 543.96875 586.957031 L 580.585938 586.957031 L 580.585938 583.152344 "/>
<path style=" stroke:none;fill-rule:nonzero;fill:rgb(97.24884%,63.529968%,17.649841%);fill-opacity:1;" d="M 573.632812 616.996094 L 717.886719 616.996094 L 717.886719 457.167969 L 573.632812 457.167969 Z M 573.632812 616.996094 "/>
<path style=" stroke:none;fill-rule:nonzero;fill:rgb(29.40979%,8.628845%,8.239746%);fill-opacity:1;" d="M 717.886719 616.996094 L 717.886719 613.195312 L 577.433594 613.195312 L 577.433594 460.976562 L 714.078125 460.976562 L 714.078125 616.996094 L 717.886719 616.996094 L 717.886719 613.195312 L 717.886719 616.996094 L 721.6875 616.996094 L 721.6875 457.167969 C 721.6875 456.167969 721.277344 455.191406 720.570312 454.488281 C 719.867188 453.773438 718.882812 453.371094 717.886719 453.371094 L 573.632812 453.371094 C 572.628906 453.371094 571.652344 453.773438 570.9375 454.488281 C 570.230469 455.191406 569.820312 456.167969 569.820312 457.167969 L 569.820312 616.996094 C 569.820312 617.996094 570.230469 618.980469 570.9375 619.683594 C 571.652344 620.390625 572.628906 620.800781 573.632812 620.800781 L 717.886719 620.800781 C 718.882812 620.800781 719.867188 620.390625 720.570312 619.683594 C 721.277344 618.980469 721.6875 617.996094 721.6875 616.996094 L 717.886719 616.996094 "/>
<g clip-path="url(#clip5)" clip-rule="nonzero">
<path style=" stroke:none;fill-rule:nonzero;fill:rgb(99.21875%,99.21875%,87.449646%);fill-opacity:1;" d="M 809.925781 544.847656 L 721.6875 544.847656 L 721.6875 499.628906 C 749.335938 478.144531 774.007812 453.105469 793.8125 424.96875 C 799.527344 416.859375 804.898438 408.640625 809.925781 400.320312 L 809.925781 544.847656 "/>
</g>
<g clip-path="url(#clip6)" clip-rule="nonzero">
<path style=" stroke:none;fill-rule:nonzero;fill:rgb(64.309692%,87.838745%,83.139038%);fill-opacity:1;" d="M 809.925781 752.125 L 387.949219 752.125 C 401.804688 702.832031 430.753906 659.222656 473.40625 625.90625 C 544.695312 625.484375 608.21875 623.601562 654.304688 620.800781 L 717.886719 620.800781 C 718.882812 620.800781 719.867188 620.390625 720.570312 619.683594 C 721.277344 618.980469 721.6875 617.996094 721.6875 616.996094 L 721.6875 613.84375 C 727.535156 612.558594 730.644531 611.210938 730.644531 609.828125 C 730.644531 608.4375 727.535156 607.09375 721.6875 605.808594 L 721.6875 544.847656 L 809.925781 544.847656 L 809.925781 752.125 "/>
</g>
<path style=" stroke:none;fill-rule:nonzero;fill:rgb(44.709778%,60.389709%,58.039856%);fill-opacity:1;" d="M 473.40625 625.90625 C 476.128906 623.78125 478.917969 621.691406 481.753906 619.648438 C 483.25 618.570312 484.746094 617.523438 486.25 616.480469 L 569.496094 616.480469 C 569.605469 616.480469 569.710938 616.480469 569.820312 616.472656 L 569.820312 616.996094 C 569.820312 617.996094 570.230469 618.980469 570.9375 619.683594 C 571.652344 620.390625 572.628906 620.800781 573.632812 620.800781 L 654.304688 620.800781 C 608.21875 623.601562 544.695312 625.484375 473.40625 625.90625 M 721.6875 613.84375 L 721.6875 605.808594 C 727.535156 607.09375 730.644531 608.4375 730.644531 609.828125 C 730.644531 611.210938 727.535156 612.558594 721.6875 613.84375 "/>
<path style=" stroke:none;fill-rule:nonzero;fill:rgb(86.669922%,86.669922%,81.568909%);fill-opacity:1;" d="M 562.828125 603.167969 L 507.792969 603.167969 C 517.914062 597.550781 528.230469 592.621094 538.753906 588.117188 L 562.828125 588.117188 L 562.828125 603.167969 "/>
<path style=" stroke:none;fill-rule:nonzero;fill:rgb(58.039856%,38.819885%,31.759644%);fill-opacity:1;" d="M 569.496094 616.480469 L 486.25 616.480469 C 493.332031 611.621094 500.511719 607.210938 507.792969 603.167969 L 562.828125 603.167969 L 562.828125 588.117188 L 538.753906 588.117188 C 539.726562 587.695312 540.710938 587.277344 541.683594 586.867188 C 542.433594 586.929688 543.195312 586.957031 543.96875 586.957031 L 569.820312 586.957031 L 569.820312 616.472656 C 569.710938 616.480469 569.605469 616.480469 569.496094 616.480469 "/>
<path style=" stroke:none;fill-rule:nonzero;fill:rgb(98.429871%,80.389404%,48.629761%);fill-opacity:1;" d="M 569.820312 579.355469 L 560.664062 579.355469 C 563.699219 578.214844 566.757812 577.09375 569.820312 575.980469 L 569.820312 579.355469 "/>
<path style=" stroke:none;fill-rule:nonzero;fill:rgb(58.039856%,38.819885%,31.759644%);fill-opacity:1;" d="M 569.820312 586.957031 L 543.96875 586.957031 C 543.195312 586.957031 542.433594 586.929688 541.683594 586.867188 C 547.941406 584.246094 554.265625 581.761719 560.664062 579.355469 L 569.820312 579.355469 L 569.820312 586.957031 "/>
<path style=" stroke:none;fill-rule:nonzero;fill:rgb(98.429871%,80.389404%,48.629761%);fill-opacity:1;" d="M 714.078125 613.195312 L 577.433594 613.195312 L 577.433594 573.257812 C 584.417969 570.789062 591.488281 568.359375 598.644531 565.890625 C 639.058594 551.957031 678.78125 531.492188 714.078125 505.394531 L 714.078125 613.195312 "/>
<path style=" stroke:none;fill-rule:nonzero;fill:rgb(58.039856%,38.819885%,31.759644%);fill-opacity:1;" d="M 717.886719 620.800781 L 573.632812 620.800781 C 572.628906 620.800781 571.652344 620.390625 570.9375 619.683594 C 570.230469 618.980469 569.820312 617.996094 569.820312 616.996094 L 569.820312 575.980469 C 572.351562 575.066406 574.890625 574.15625 577.433594 573.257812 L 577.433594 613.195312 L 714.078125 613.195312 L 714.078125 505.394531 C 716.644531 503.5 719.171875 501.582031 721.6875 499.628906 L 721.6875 616.996094 C 721.6875 617.996094 721.277344 618.980469 720.570312 619.683594 C 719.867188 620.390625 718.882812 620.800781 717.886719 620.800781 M 717.886719 616.996094 L 717.886719 613.195312 L 717.886719 616.996094 "/>
</g>
</svg>
