<?xml version="1.0" encoding="UTF-8"?>
<svg xmlns="http://www.w3.org/2000/svg" xmlns:xlink="http://www.w3.org/1999/xlink" width="810pt" height="809.999993pt" viewBox="0 0 810 809.999993" version="1.2">
<g id="surface1">
<path style=" stroke:none;fill-rule:nonzero;fill:rgb(66.668701%,47.839355%,30.198669%);fill-opacity:1;" d="M 754.742188 795.847656 L 53.910156 795.847656 C 46.488281 795.847656 40.433594 789.792969 40.433594 782.371094 L 40.433594 714.984375 L 768.21875 714.984375 L 768.21875 782.371094 C 768.21875 789.792969 762.164062 795.847656 754.742188 795.847656 "/>
<path style=" stroke:none;fill-rule:nonzero;fill:rgb(86.268616%,63.529968%,46.269226%);fill-opacity:1;" d="M 363.894531 526.296875 L 363.894531 405 L 229.117188 405 L 229.117188 526.296875 L 363.894531 526.296875 "/>
<path style=" stroke:none;fill-rule:nonzero;fill:rgb(33.329773%,53.329468%,65.489197%);fill-opacity:1;" d="M 453.917969 504.34375 L 458.234375 701.503906 L 40.433594 701.503906 L 40.433594 634.117188 C 40.433594 559.992188 101.082031 499.34375 175.207031 499.34375 L 250.808594 499.34375 C 261.074219 506.765625 275.761719 512.820312 296.503906 512.820312 C 317.25 512.820312 331.9375 506.765625 342.203125 499.34375 L 417.804688 499.34375 C 430.332031 499.34375 442.496094 501.082031 453.917969 504.34375 "/>
<path style=" stroke:none;fill-rule:nonzero;fill:rgb(92.939758%,93.728638%,94.509888%);fill-opacity:1;" d="M 296.503906 512.820312 C 296.503906 512.820312 256.074219 526.296875 242.59375 553.253906 C 242.59375 553.253906 188.683594 537.511719 188.683594 499.34375 C 199.898438 480.230469 229.644531 472.386719 229.644531 472.386719 C 229.644531 472.386719 234.488281 487.601562 250.808594 499.34375 C 261.074219 506.765625 275.761719 512.820312 296.503906 512.820312 "/>
<path style=" stroke:none;fill-rule:nonzero;fill:rgb(92.939758%,93.728638%,94.509888%);fill-opacity:1;" d="M 404.324219 499.34375 C 404.324219 514.558594 395.691406 526.296875 385.480469 534.773438 C 369.949219 547.621094 350.414062 553.253906 350.414062 553.253906 C 349.996094 552.464844 349.625 551.621094 349.046875 550.988281 C 334.675781 525.507812 296.503906 512.820312 296.503906 512.820312 C 317.25 512.820312 331.9375 506.765625 342.203125 499.34375 C 358.523438 487.601562 363.367188 472.386719 363.367188 472.386719 C 363.367188 472.386719 393.113281 480.230469 404.324219 499.34375 "/>
<path style=" stroke:none;fill-rule:nonzero;fill:rgb(43.528748%,33.329773%,26.669312%);fill-opacity:1;" d="M 471.714844 135.449219 L 471.714844 217.789062 L 458.234375 229.792969 L 134.773438 229.792969 L 121.296875 217.789062 L 121.296875 135.449219 C 121.296875 68.484375 175.628906 14.152344 242.59375 14.152344 L 405.273438 14.152344 C 415.804688 14.152344 421.59375 26.3125 414.960938 34.527344 L 398.957031 54.585938 L 377.371094 81.539062 L 417.804688 81.539062 C 447.601562 81.539062 471.714844 105.652344 471.714844 135.449219 "/>
<path style=" stroke:none;fill-rule:nonzero;fill:rgb(91.369629%,70.588684%,52.159119%);fill-opacity:1;" d="M 471.714844 217.789062 L 471.714844 270.226562 C 471.714844 292.597656 453.65625 310.65625 431.28125 310.65625 C 431.28125 310.65625 431.28125 344.351562 414.433594 378.046875 C 397.585938 411.738281 363.894531 445.433594 296.503906 445.433594 C 161.730469 445.433594 161.730469 310.65625 161.730469 310.65625 C 150.515625 310.65625 140.410156 306.078125 133.144531 298.8125 C 125.878906 291.546875 121.296875 281.4375 121.296875 270.226562 L 121.296875 217.789062 C 121.296875 204.3125 130.617188 191.9375 143.777344 189.78125 C 160.78125 187.09375 175.207031 199.992188 175.207031 216.316406 C 175.207031 205.101562 179.261719 194.886719 186 187.09375 C 192.738281 179.09375 202.164062 173.300781 212.957031 171.566406 C 236.382812 167.511719 266.339844 156.613281 288.292969 138.398438 C 293.136719 134.5 299.875 134.5 304.71875 138.398438 C 326.671875 156.613281 356.628906 167.511719 380.054688 171.566406 C 401.746094 175.199219 417.804688 193.941406 417.804688 216.316406 C 417.804688 199.992188 432.230469 187.09375 449.234375 189.78125 C 462.394531 191.9375 471.714844 204.3125 471.714844 217.789062 "/>
<path style=" stroke:none;fill-rule:nonzero;fill:rgb(81.17981%,83.918762%,86.268616%);fill-opacity:1;" d="M 431.28125 688.027344 L 336.9375 688.027344 C 329.515625 688.027344 323.460938 681.972656 323.460938 674.550781 L 323.460938 634.117188 C 323.460938 626.695312 329.515625 620.640625 336.9375 620.640625 L 443.546875 620.640625 L 431.28125 688.027344 "/>
<path style=" stroke:none;fill-rule:nonzero;fill:rgb(76.469421%,78.819275%,82.348633%);fill-opacity:1;" d="M 420.488281 688.027344 L 432.753906 620.640625 L 472.398438 402.578125 C 473.609375 396.207031 479.136719 391.523438 485.613281 391.523438 L 781.695312 391.523438 C 790.066406 391.523438 796.492188 399.207031 794.910156 407.421875 L 743.949219 688.027344 L 741.265625 701.503906 L 417.804688 701.503906 L 420.488281 688.027344 "/>
<path style=" stroke:none;fill-rule:nonzero;fill:rgb(76.858521%,56.858826%,34.509277%);fill-opacity:1;" d="M 26.957031 741.9375 L 781.695312 741.9375 C 789.121094 741.9375 795.175781 735.882812 795.175781 728.460938 L 795.175781 701.503906 C 795.175781 694.082031 789.121094 688.027344 781.695312 688.027344 L 26.957031 688.027344 C 19.53125 688.027344 13.476562 694.082031 13.476562 701.503906 L 13.476562 728.460938 C 13.476562 735.882812 19.53125 741.9375 26.957031 741.9375 "/>
<path style=" stroke:none;fill-rule:nonzero;fill:rgb(16.859436%,17.248535%,17.649841%);fill-opacity:1;" d="M 781.695312 728.460938 L 26.957031 728.460938 L 26.957031 701.503906 L 781.695312 701.503906 Z M 754.792969 782.371094 L 53.910156 782.371094 L 53.910156 755.414062 L 754.742188 755.414062 Z M 336.9375 634.117188 L 416.59375 634.117188 L 409.273438 674.550781 L 336.9375 674.550781 Z M 781.644531 405 L 732.683594 674.550781 L 436.652344 674.550781 L 485.613281 405 Z M 355.839844 536.773438 C 350.257812 529.5625 343.308594 523.453125 336.308594 518.402344 C 353.839844 510.554688 364.261719 498.289062 370 489.078125 C 377.109375 492.183594 385.53125 496.921875 390.585938 503.082031 C 387.953125 520.191406 367.949219 531.457031 355.839844 536.773438 Z M 296.503906 499.34375 C 254.074219 499.34375 243.175781 470.125 242.59375 468.4375 L 242.59375 450.699219 C 257.96875 455.804688 275.710938 458.910156 296.503906 458.910156 C 317.355469 458.910156 335.097656 455.804688 350.414062 450.75 L 350.414062 468.4375 C 349.835938 470.070312 339.042969 499.34375 296.503906 499.34375 Z M 237.171875 536.773438 C 225.0625 531.457031 205.058594 520.191406 202.425781 503.082031 C 207.480469 496.921875 215.902344 492.183594 223.011719 489.078125 C 228.75 498.289062 239.171875 510.554688 256.703125 518.402344 C 249.703125 523.453125 242.753906 529.5625 237.171875 536.773438 Z M 175.207031 310.65625 C 175.207031 303.234375 169.152344 297.179688 161.730469 297.179688 C 154.570312 297.179688 147.777344 294.390625 142.671875 289.28125 C 137.566406 284.175781 134.773438 277.382812 134.773438 270.226562 L 134.773438 217.789062 C 134.773438 210.574219 139.671875 204.101562 145.9375 203.101562 C 146.726562 202.941406 147.515625 202.890625 148.253906 202.890625 C 151.515625 202.890625 154.570312 203.996094 157.042969 206.101562 C 159.992188 208.628906 161.730469 212.367188 161.730469 216.316406 C 161.730469 223.738281 167.785156 229.792969 175.207031 229.792969 C 182.632812 229.792969 188.683594 223.738281 188.683594 216.316406 C 188.683594 208.734375 191.371094 201.46875 196.265625 195.78125 C 201.269531 189.886719 207.953125 186.042969 215.21875 184.832031 C 245.386719 179.671875 275.867188 166.195312 296.136719 148.769531 C 317.144531 166.195312 347.625 179.671875 377.84375 184.832031 C 393.164062 187.410156 404.324219 200.679688 404.324219 216.316406 C 404.324219 223.738281 410.378906 229.792969 417.804688 229.792969 C 425.226562 229.792969 431.28125 223.738281 431.28125 216.316406 C 431.28125 212.367188 433.019531 208.628906 435.964844 206.101562 C 439.019531 203.46875 442.917969 202.414062 447.023438 203.101562 C 453.339844 204.101562 458.234375 210.574219 458.234375 217.789062 L 458.234375 270.226562 C 458.234375 285.070312 446.128906 297.179688 431.28125 297.179688 C 423.859375 297.179688 417.855469 303.234375 417.804688 310.605469 C 417.804688 310.921875 417.488281 341.769531 402.378906 371.992188 C 382.476562 411.792969 346.886719 431.957031 296.503906 431.957031 C 177.101562 431.957031 175.207031 315.554688 175.207031 310.65625 Z M 242.59375 27.628906 L 403.21875 27.628906 L 370.894531 68.0625 L 323.460938 68.0625 C 316.039062 68.0625 309.984375 74.117188 309.984375 81.539062 C 309.984375 88.960938 316.039062 95.015625 323.460938 95.015625 L 417.804688 95.015625 C 440.125 95.015625 458.234375 113.128906 458.234375 135.449219 L 458.234375 178.25 C 456.023438 177.460938 453.707031 176.882812 451.339844 176.460938 C 440.546875 174.722656 429.914062 177.25 421.332031 183.359375 C 412.589844 170.40625 398.746094 161.035156 382.371094 158.296875 C 362.523438 154.875 333.9375 145.136719 313.195312 127.921875 C 303.351562 119.972656 289.660156 119.972656 279.710938 128.027344 C 259.074219 145.136719 230.488281 154.875 210.796875 158.246094 C 197.265625 160.457031 184.84375 167.617188 175.785156 178.25 C 174.367188 179.9375 173.050781 181.671875 171.785156 183.464844 C 163.203125 177.304688 152.359375 174.777344 141.621094 176.460938 C 139.25 176.828125 136.988281 177.460938 134.773438 178.25 L 134.773438 135.449219 C 134.773438 76.011719 183.15625 27.628906 242.59375 27.628906 Z M 781.695312 674.550781 L 760.113281 674.550781 L 808.125 410 C 809.652344 402.15625 807.597656 394.101562 802.492188 387.890625 C 797.332031 381.625 789.753906 378.046875 781.695312 378.046875 L 485.613281 378.046875 C 472.714844 378.046875 461.554688 387.3125 459.132812 400.15625 L 443.125 488.339844 C 434.757812 486.867188 426.332031 485.867188 417.804688 485.867188 L 411.117188 485.867188 C 401.324219 474.074219 387.164062 466.859375 377.371094 462.964844 L 377.371094 438.378906 C 401.851562 423.480469 417.121094 402.839844 426.492188 384.097656 C 438.441406 360.144531 442.601562 336.402344 444.023438 322.609375 C 467.605469 316.871094 485.191406 295.601562 485.191406 270.226562 L 485.191406 135.449219 C 485.191406 98.28125 454.972656 68.0625 417.804688 68.0625 L 405.433594 68.0625 L 425.542969 42.949219 C 431.808594 35.050781 433.019531 24.523438 428.648438 15.414062 C 424.277344 6.308594 415.328125 0.675781 405.222656 0.675781 L 242.59375 0.675781 C 168.257812 0.675781 107.820312 61.113281 107.820312 135.449219 L 107.820312 270.226562 C 107.820312 284.597656 113.453125 298.128906 123.613281 308.339844 C 130.773438 315.449219 139.566406 320.34375 149.09375 322.660156 C 151.9375 347.984375 164.203125 406.894531 215.640625 438.273438 L 215.640625 462.964844 C 205.847656 466.859375 191.6875 474.074219 181.894531 485.867188 L 175.207031 485.867188 C 93.449219 485.867188 26.957031 552.359375 26.957031 634.117188 C 26.957031 641.542969 33.007812 647.59375 40.433594 647.59375 C 47.855469 647.59375 53.910156 641.542969 53.910156 634.117188 C 53.910156 567.203125 108.347656 512.820312 175.207031 512.820312 L 177.101562 512.820312 C 187.054688 550.515625 236.488281 565.519531 238.804688 566.203125 C 240.070312 566.574219 241.332031 566.730469 242.59375 566.730469 C 247.597656 566.730469 252.335938 563.941406 254.652344 559.308594 C 262.496094 543.566406 284.660156 531.984375 296.558594 527.191406 C 308.402344 531.984375 330.464844 543.460938 338.359375 559.308594 C 340.675781 563.941406 345.414062 566.730469 350.414062 566.730469 C 351.679688 566.730469 352.941406 566.574219 354.207031 566.203125 C 356.523438 565.519531 405.957031 550.515625 415.910156 512.820312 L 417.804688 512.820312 C 424.699219 512.820312 431.542969 513.609375 438.285156 514.820312 L 421.488281 607.164062 L 336.9375 607.164062 C 322.09375 607.164062 309.984375 619.273438 309.984375 634.117188 L 309.984375 674.550781 L 26.957031 674.550781 C 12.109375 674.550781 0 686.660156 0 701.503906 L 0 728.460938 C 0 743.308594 12.109375 755.414062 26.957031 755.414062 L 26.957031 782.371094 C 26.957031 797.21875 39.0625 809.324219 53.910156 809.324219 L 754.742188 809.324219 C 769.589844 809.324219 781.695312 797.21875 781.695312 782.371094 L 781.695312 755.414062 C 796.542969 755.414062 808.652344 743.308594 808.652344 728.460938 L 808.652344 701.503906 C 808.652344 686.660156 796.542969 674.550781 781.695312 674.550781 "/>
<path style=" stroke:none;fill-rule:nonzero;fill:rgb(16.859436%,17.248535%,17.649841%);fill-opacity:1;" d="M 559.316406 607.164062 C 592.75 607.164062 619.964844 579.945312 619.964844 546.515625 C 619.964844 527.929688 635.078125 512.820312 653.660156 512.820312 C 672.246094 512.820312 687.355469 527.929688 687.355469 546.515625 C 687.355469 562.835938 675.71875 576.46875 660.242188 579.523438 C 660.082031 576.3125 658.925781 573.152344 656.449219 570.679688 C 651.1875 565.414062 642.65625 565.414062 637.394531 570.679688 L 623.914062 584.15625 C 618.652344 589.421875 618.652344 597.949219 623.914062 603.214844 L 637.394531 616.691406 C 640.023438 619.324219 643.445312 620.640625 646.921875 620.640625 C 650.398438 620.640625 653.820312 619.324219 656.449219 616.691406 C 659.242188 613.902344 660.453125 610.164062 660.242188 606.480469 C 690.566406 603.160156 714.308594 577.679688 714.308594 546.515625 C 714.308594 513.082031 687.089844 485.867188 653.660156 485.867188 C 620.230469 485.867188 593.011719 513.082031 593.011719 546.515625 C 593.011719 565.097656 577.902344 580.207031 559.316406 580.207031 C 540.734375 580.207031 525.625 565.097656 525.625 546.515625 C 525.625 530.195312 537.257812 516.558594 552.738281 513.503906 C 552.894531 516.714844 554.054688 519.875 556.527344 522.347656 C 559.160156 524.980469 562.582031 526.296875 566.054688 526.296875 C 569.53125 526.296875 572.953125 524.980469 575.585938 522.347656 L 589.0625 508.871094 C 594.328125 503.605469 594.328125 495.078125 589.0625 489.8125 L 575.585938 476.335938 C 570.320312 471.070312 561.792969 471.070312 556.527344 476.335938 C 553.738281 479.125 552.527344 482.863281 552.738281 486.550781 C 522.414062 489.867188 498.667969 515.347656 498.667969 546.515625 C 498.667969 579.945312 525.886719 607.164062 559.316406 607.164062 "/>
</g>
</svg>
