<?xml version="1.0" encoding="UTF-8"?>
<svg xmlns="http://www.w3.org/2000/svg" xmlns:xlink="http://www.w3.org/1999/xlink" width="810pt" height="809.999993pt" viewBox="0 0 810 809.999993" version="1.2">
<defs>
<clipPath id="clip1">
  <path d="M 102 178 L 805 178 L 805 632.714844 L 102 632.714844 Z M 102 178 "/>
</clipPath>
<clipPath id="clip2">
  <path d="M 393 190 L 456 190 L 456 253 L 393 253 Z M 393 190 "/>
</clipPath>
<clipPath id="clip3">
  <path d="M 243.355469 184.5 L 243.355469 328.921875 L 174.34375 328.921875 L 174.34375 401.132812 L 116.558594 401.132812 L 115.914062 407.410156 C 112.304688 446.75 119.164062 483.035156 134.933594 514.0625 L 140.226562 523.574219 C 143.367188 529.277344 147.128906 534.632812 151.011719 539.863281 C 154.898438 545.089844 156.300781 547.972656 158.761719 551.441406 C 200.441406 598.28125 262.585938 620.886719 334.328125 620.886719 C 493.210938 620.886719 628.054688 550.441406 687.738281 392.191406 C 730.058594 396.535156 770.683594 385.671875 789.191406 349.511719 C 759.703125 332.484375 721.8125 337.945312 699.984375 348.925781 L 757.828125 184.488281 L 531.96875 328.910156 L 459.816406 328.910156 L 459.816406 184.488281 Z M 243.355469 184.5 "/>
</clipPath>
<clipPath id="clip4">
  <path d="M 401 195 L 449 195 L 449 248 L 401 248 Z M 401 195 "/>
</clipPath>
<clipPath id="clip5">
  <path d="M 243.355469 184.5 L 243.355469 328.921875 L 174.34375 328.921875 L 174.34375 401.132812 L 116.558594 401.132812 L 115.914062 407.410156 C 112.304688 446.75 119.164062 483.035156 134.933594 514.0625 L 140.226562 523.574219 C 143.367188 529.277344 147.128906 534.632812 151.011719 539.863281 C 154.898438 545.089844 156.300781 547.972656 158.761719 551.441406 C 200.441406 598.28125 262.585938 620.886719 334.328125 620.886719 C 493.210938 620.886719 628.054688 550.441406 687.738281 392.191406 C 730.058594 396.535156 770.683594 385.671875 789.191406 349.511719 C 759.703125 332.484375 721.8125 337.945312 699.984375 348.925781 L 757.828125 184.488281 L 531.96875 328.910156 L 459.816406 328.910156 L 459.816406 184.488281 Z M 243.355469 184.5 "/>
</clipPath>
<clipPath id="clip6">
  <path d="M 398 192 L 451 192 L 451 250 L 398 250 Z M 398 192 "/>
</clipPath>
<clipPath id="clip7">
  <path d="M 243.355469 184.5 L 243.355469 328.921875 L 174.34375 328.921875 L 174.34375 401.132812 L 116.558594 401.132812 L 115.914062 407.410156 C 112.304688 446.75 119.164062 483.035156 134.933594 514.0625 L 140.226562 523.574219 C 143.367188 529.277344 147.128906 534.632812 151.011719 539.863281 C 154.898438 545.089844 156.300781 547.972656 158.761719 551.441406 C 200.441406 598.28125 262.585938 620.886719 334.328125 620.886719 C 493.210938 620.886719 628.054688 550.441406 687.738281 392.191406 C 730.058594 396.535156 770.683594 385.671875 789.191406 349.511719 C 759.703125 332.484375 721.8125 337.945312 699.984375 348.925781 L 757.828125 184.488281 L 531.96875 328.910156 L 459.816406 328.910156 L 459.816406 184.488281 Z M 243.355469 184.5 "/>
</clipPath>
<clipPath id="clip8">
  <path d="M 465 190 L 528 190 L 528 253 L 465 253 Z M 465 190 "/>
</clipPath>
<clipPath id="clip9">
  <path d="M 243.355469 184.5 L 243.355469 328.921875 L 174.34375 328.921875 L 174.34375 401.132812 L 116.558594 401.132812 L 115.914062 407.410156 C 112.304688 446.75 119.164062 483.035156 134.933594 514.0625 L 140.226562 523.574219 C 143.367188 529.277344 147.128906 534.632812 151.011719 539.863281 C 154.898438 545.089844 156.300781 547.972656 158.761719 551.441406 C 200.441406 598.28125 262.585938 620.886719 334.328125 620.886719 C 493.210938 620.886719 628.054688 550.441406 687.738281 392.191406 C 730.058594 396.535156 770.683594 385.671875 789.191406 349.511719 C 759.703125 332.484375 721.8125 337.945312 699.984375 348.925781 L 757.828125 184.488281 L 531.96875 328.910156 L 459.816406 328.910156 L 459.816406 184.488281 Z M 243.355469 184.5 "/>
</clipPath>
<clipPath id="clip10">
  <path d="M 472 195 L 520 195 L 520 248 L 472 248 Z M 472 195 "/>
</clipPath>
<clipPath id="clip11">
  <path d="M 243.355469 184.5 L 243.355469 328.921875 L 174.34375 328.921875 L 174.34375 401.132812 L 116.558594 401.132812 L 115.914062 407.410156 C 112.304688 446.75 119.164062 483.035156 134.933594 514.0625 L 140.226562 523.574219 C 143.367188 529.277344 147.128906 534.632812 151.011719 539.863281 C 154.898438 545.089844 156.300781 547.972656 158.761719 551.441406 C 200.441406 598.28125 262.585938 620.886719 334.328125 620.886719 C 493.210938 620.886719 628.054688 550.441406 687.738281 392.191406 C 730.058594 396.535156 770.683594 385.671875 789.191406 349.511719 C 759.703125 332.484375 721.8125 337.945312 699.984375 348.925781 L 757.828125 184.488281 L 531.96875 328.910156 L 459.816406 328.910156 L 459.816406 184.488281 Z M 243.355469 184.5 "/>
</clipPath>
<clipPath id="clip12">
  <path d="M 470 192 L 523 192 L 523 250 L 470 250 Z M 470 192 "/>
</clipPath>
<clipPath id="clip13">
  <path d="M 243.355469 184.5 L 243.355469 328.921875 L 174.34375 328.921875 L 174.34375 401.132812 L 116.558594 401.132812 L 115.914062 407.410156 C 112.304688 446.75 119.164062 483.035156 134.933594 514.0625 L 140.226562 523.574219 C 143.367188 529.277344 147.128906 534.632812 151.011719 539.863281 C 154.898438 545.089844 156.300781 547.972656 158.761719 551.441406 C 200.441406 598.28125 262.585938 620.886719 334.328125 620.886719 C 493.210938 620.886719 628.054688 550.441406 687.738281 392.191406 C 730.058594 396.535156 770.683594 385.671875 789.191406 349.511719 C 759.703125 332.484375 721.8125 337.945312 699.984375 348.925781 L 757.828125 184.488281 L 531.96875 328.910156 L 459.816406 328.910156 L 459.816406 184.488281 Z M 243.355469 184.5 "/>
</clipPath>
<clipPath id="clip14">
  <path d="M 114.742188 261 L 169 261 L 169 325 L 114.742188 325 Z M 114.742188 261 "/>
</clipPath>
<clipPath id="clip15">
  <path d="M 243.355469 184.5 L 243.355469 328.921875 L 174.34375 328.921875 L 174.34375 401.132812 L 116.558594 401.132812 L 115.914062 407.410156 C 112.304688 446.75 119.164062 483.035156 134.933594 514.0625 L 140.226562 523.574219 C 143.367188 529.277344 147.128906 534.632812 151.011719 539.863281 C 154.898438 545.089844 156.300781 547.972656 158.761719 551.441406 C 200.441406 598.28125 262.585938 620.886719 334.328125 620.886719 C 493.210938 620.886719 628.054688 550.441406 687.738281 392.191406 C 730.058594 396.535156 770.683594 385.671875 789.191406 349.511719 C 759.703125 332.484375 721.8125 337.945312 699.984375 348.925781 L 757.828125 184.488281 L 531.96875 328.910156 L 459.816406 328.910156 L 459.816406 184.488281 Z M 243.355469 184.5 "/>
</clipPath>
<clipPath id="clip16">
  <path d="M 114.742188 333 L 169 333 L 169 396 L 114.742188 396 Z M 114.742188 333 "/>
</clipPath>
<clipPath id="clip17">
  <path d="M 243.355469 184.5 L 243.355469 328.921875 L 174.34375 328.921875 L 174.34375 401.132812 L 116.558594 401.132812 L 115.914062 407.410156 C 112.304688 446.75 119.164062 483.035156 134.933594 514.0625 L 140.226562 523.574219 C 143.367188 529.277344 147.128906 534.632812 151.011719 539.863281 C 154.898438 545.089844 156.300781 547.972656 158.761719 551.441406 C 200.441406 598.28125 262.585938 620.886719 334.328125 620.886719 C 493.210938 620.886719 628.054688 550.441406 687.738281 392.191406 C 730.058594 396.535156 770.683594 385.671875 789.191406 349.511719 C 759.703125 332.484375 721.8125 337.945312 699.984375 348.925781 L 757.828125 184.488281 L 531.96875 328.910156 L 459.816406 328.910156 L 459.816406 184.488281 Z M 243.355469 184.5 "/>
</clipPath>
<clipPath id="clip18">
  <path d="M 114.742188 267 L 162 267 L 162 320 L 114.742188 320 Z M 114.742188 267 "/>
</clipPath>
<clipPath id="clip19">
  <path d="M 243.355469 184.5 L 243.355469 328.921875 L 174.34375 328.921875 L 174.34375 401.132812 L 116.558594 401.132812 L 115.914062 407.410156 C 112.304688 446.75 119.164062 483.035156 134.933594 514.0625 L 140.226562 523.574219 C 143.367188 529.277344 147.128906 534.632812 151.011719 539.863281 C 154.898438 545.089844 156.300781 547.972656 158.761719 551.441406 C 200.441406 598.28125 262.585938 620.886719 334.328125 620.886719 C 493.210938 620.886719 628.054688 550.441406 687.738281 392.191406 C 730.058594 396.535156 770.683594 385.671875 789.191406 349.511719 C 759.703125 332.484375 721.8125 337.945312 699.984375 348.925781 L 757.828125 184.488281 L 531.96875 328.910156 L 459.816406 328.910156 L 459.816406 184.488281 Z M 243.355469 184.5 "/>
</clipPath>
<clipPath id="clip20">
  <path d="M 114.742188 264 L 164 264 L 164 322 L 114.742188 322 Z M 114.742188 264 "/>
</clipPath>
<clipPath id="clip21">
  <path d="M 243.355469 184.5 L 243.355469 328.921875 L 174.34375 328.921875 L 174.34375 401.132812 L 116.558594 401.132812 L 115.914062 407.410156 C 112.304688 446.75 119.164062 483.035156 134.933594 514.0625 L 140.226562 523.574219 C 143.367188 529.277344 147.128906 534.632812 151.011719 539.863281 C 154.898438 545.089844 156.300781 547.972656 158.761719 551.441406 C 200.441406 598.28125 262.585938 620.886719 334.328125 620.886719 C 493.210938 620.886719 628.054688 550.441406 687.738281 392.191406 C 730.058594 396.535156 770.683594 385.671875 789.191406 349.511719 C 759.703125 332.484375 721.8125 337.945312 699.984375 348.925781 L 757.828125 184.488281 L 531.96875 328.910156 L 459.816406 328.910156 L 459.816406 184.488281 Z M 243.355469 184.5 "/>
</clipPath>
<clipPath id="clip22">
  <path d="M 114.742188 338 L 162 338 L 162 391 L 114.742188 391 Z M 114.742188 338 "/>
</clipPath>
<clipPath id="clip23">
  <path d="M 243.355469 184.5 L 243.355469 328.921875 L 174.34375 328.921875 L 174.34375 401.132812 L 116.558594 401.132812 L 115.914062 407.410156 C 112.304688 446.75 119.164062 483.035156 134.933594 514.0625 L 140.226562 523.574219 C 143.367188 529.277344 147.128906 534.632812 151.011719 539.863281 C 154.898438 545.089844 156.300781 547.972656 158.761719 551.441406 C 200.441406 598.28125 262.585938 620.886719 334.328125 620.886719 C 493.210938 620.886719 628.054688 550.441406 687.738281 392.191406 C 730.058594 396.535156 770.683594 385.671875 789.191406 349.511719 C 759.703125 332.484375 721.8125 337.945312 699.984375 348.925781 L 757.828125 184.488281 L 531.96875 328.910156 L 459.816406 328.910156 L 459.816406 184.488281 Z M 243.355469 184.5 "/>
</clipPath>
<clipPath id="clip24">
  <path d="M 114.742188 336 L 164 336 L 164 394 L 114.742188 394 Z M 114.742188 336 "/>
</clipPath>
<clipPath id="clip25">
  <path d="M 243.355469 184.5 L 243.355469 328.921875 L 174.34375 328.921875 L 174.34375 401.132812 L 116.558594 401.132812 L 115.914062 407.410156 C 112.304688 446.75 119.164062 483.035156 134.933594 514.0625 L 140.226562 523.574219 C 143.367188 529.277344 147.128906 534.632812 151.011719 539.863281 C 154.898438 545.089844 156.300781 547.972656 158.761719 551.441406 C 200.441406 598.28125 262.585938 620.886719 334.328125 620.886719 C 493.210938 620.886719 628.054688 550.441406 687.738281 392.191406 C 730.058594 396.535156 770.683594 385.671875 789.191406 349.511719 C 759.703125 332.484375 721.8125 337.945312 699.984375 348.925781 L 757.828125 184.488281 L 531.96875 328.910156 L 459.816406 328.910156 L 459.816406 184.488281 Z M 243.355469 184.5 "/>
</clipPath>
<clipPath id="clip26">
  <path d="M 178 333 L 241 333 L 241 397 L 178 397 Z M 178 333 "/>
</clipPath>
<clipPath id="clip27">
  <path d="M 243.355469 184.5 L 243.355469 328.921875 L 174.34375 328.921875 L 174.34375 401.132812 L 116.558594 401.132812 L 115.914062 407.410156 C 112.304688 446.75 119.164062 483.035156 134.933594 514.0625 L 140.226562 523.574219 C 143.367188 529.277344 147.128906 534.632812 151.011719 539.863281 C 154.898438 545.089844 156.300781 547.972656 158.761719 551.441406 C 200.441406 598.28125 262.585938 620.886719 334.328125 620.886719 C 493.210938 620.886719 628.054688 550.441406 687.738281 392.191406 C 730.058594 396.535156 770.683594 385.671875 789.191406 349.511719 C 759.703125 332.484375 721.8125 337.945312 699.984375 348.925781 L 757.828125 184.488281 L 531.96875 328.910156 L 459.816406 328.910156 L 459.816406 184.488281 Z M 243.355469 184.5 "/>
</clipPath>
<clipPath id="clip28">
  <path d="M 178 261 L 241 261 L 241 325 L 178 325 Z M 178 261 "/>
</clipPath>
<clipPath id="clip29">
  <path d="M 243.355469 184.5 L 243.355469 328.921875 L 174.34375 328.921875 L 174.34375 401.132812 L 116.558594 401.132812 L 115.914062 407.410156 C 112.304688 446.75 119.164062 483.035156 134.933594 514.0625 L 140.226562 523.574219 C 143.367188 529.277344 147.128906 534.632812 151.011719 539.863281 C 154.898438 545.089844 156.300781 547.972656 158.761719 551.441406 C 200.441406 598.28125 262.585938 620.886719 334.328125 620.886719 C 493.210938 620.886719 628.054688 550.441406 687.738281 392.191406 C 730.058594 396.535156 770.683594 385.671875 789.191406 349.511719 C 759.703125 332.484375 721.8125 337.945312 699.984375 348.925781 L 757.828125 184.488281 L 531.96875 328.910156 L 459.816406 328.910156 L 459.816406 184.488281 Z M 243.355469 184.5 "/>
</clipPath>
<clipPath id="clip30">
  <path d="M 185 338 L 233 338 L 233 391 L 185 391 Z M 185 338 "/>
</clipPath>
<clipPath id="clip31">
  <path d="M 243.355469 184.5 L 243.355469 328.921875 L 174.34375 328.921875 L 174.34375 401.132812 L 116.558594 401.132812 L 115.914062 407.410156 C 112.304688 446.75 119.164062 483.035156 134.933594 514.0625 L 140.226562 523.574219 C 143.367188 529.277344 147.128906 534.632812 151.011719 539.863281 C 154.898438 545.089844 156.300781 547.972656 158.761719 551.441406 C 200.441406 598.28125 262.585938 620.886719 334.328125 620.886719 C 493.210938 620.886719 628.054688 550.441406 687.738281 392.191406 C 730.058594 396.535156 770.683594 385.671875 789.191406 349.511719 C 759.703125 332.484375 721.8125 337.945312 699.984375 348.925781 L 757.828125 184.488281 L 531.96875 328.910156 L 459.816406 328.910156 L 459.816406 184.488281 Z M 243.355469 184.5 "/>
</clipPath>
<clipPath id="clip32">
  <path d="M 183 336 L 236 336 L 236 394 L 183 394 Z M 183 336 "/>
</clipPath>
<clipPath id="clip33">
  <path d="M 243.355469 184.5 L 243.355469 328.921875 L 174.34375 328.921875 L 174.34375 401.132812 L 116.558594 401.132812 L 115.914062 407.410156 C 112.304688 446.75 119.164062 483.035156 134.933594 514.0625 L 140.226562 523.574219 C 143.367188 529.277344 147.128906 534.632812 151.011719 539.863281 C 154.898438 545.089844 156.300781 547.972656 158.761719 551.441406 C 200.441406 598.28125 262.585938 620.886719 334.328125 620.886719 C 493.210938 620.886719 628.054688 550.441406 687.738281 392.191406 C 730.058594 396.535156 770.683594 385.671875 789.191406 349.511719 C 759.703125 332.484375 721.8125 337.945312 699.984375 348.925781 L 757.828125 184.488281 L 531.96875 328.910156 L 459.816406 328.910156 L 459.816406 184.488281 Z M 243.355469 184.5 "/>
</clipPath>
<clipPath id="clip34">
  <path d="M 185 267 L 233 267 L 233 320 L 185 320 Z M 185 267 "/>
</clipPath>
<clipPath id="clip35">
  <path d="M 243.355469 184.5 L 243.355469 328.921875 L 174.34375 328.921875 L 174.34375 401.132812 L 116.558594 401.132812 L 115.914062 407.410156 C 112.304688 446.75 119.164062 483.035156 134.933594 514.0625 L 140.226562 523.574219 C 143.367188 529.277344 147.128906 534.632812 151.011719 539.863281 C 154.898438 545.089844 156.300781 547.972656 158.761719 551.441406 C 200.441406 598.28125 262.585938 620.886719 334.328125 620.886719 C 493.210938 620.886719 628.054688 550.441406 687.738281 392.191406 C 730.058594 396.535156 770.683594 385.671875 789.191406 349.511719 C 759.703125 332.484375 721.8125 337.945312 699.984375 348.925781 L 757.828125 184.488281 L 531.96875 328.910156 L 459.816406 328.910156 L 459.816406 184.488281 Z M 243.355469 184.5 "/>
</clipPath>
<clipPath id="clip36">
  <path d="M 183 264 L 236 264 L 236 322 L 183 322 Z M 183 264 "/>
</clipPath>
<clipPath id="clip37">
  <path d="M 243.355469 184.5 L 243.355469 328.921875 L 174.34375 328.921875 L 174.34375 401.132812 L 116.558594 401.132812 L 115.914062 407.410156 C 112.304688 446.75 119.164062 483.035156 134.933594 514.0625 L 140.226562 523.574219 C 143.367188 529.277344 147.128906 534.632812 151.011719 539.863281 C 154.898438 545.089844 156.300781 547.972656 158.761719 551.441406 C 200.441406 598.28125 262.585938 620.886719 334.328125 620.886719 C 493.210938 620.886719 628.054688 550.441406 687.738281 392.191406 C 730.058594 396.535156 770.683594 385.671875 789.191406 349.511719 C 759.703125 332.484375 721.8125 337.945312 699.984375 348.925781 L 757.828125 184.488281 L 531.96875 328.910156 L 459.816406 328.910156 L 459.816406 184.488281 Z M 243.355469 184.5 "/>
</clipPath>
<clipPath id="clip38">
  <path d="M 250 261 L 313 261 L 313 325 L 250 325 Z M 250 261 "/>
</clipPath>
<clipPath id="clip39">
  <path d="M 243.355469 184.5 L 243.355469 328.921875 L 174.34375 328.921875 L 174.34375 401.132812 L 116.558594 401.132812 L 115.914062 407.410156 C 112.304688 446.75 119.164062 483.035156 134.933594 514.0625 L 140.226562 523.574219 C 143.367188 529.277344 147.128906 534.632812 151.011719 539.863281 C 154.898438 545.089844 156.300781 547.972656 158.761719 551.441406 C 200.441406 598.28125 262.585938 620.886719 334.328125 620.886719 C 493.210938 620.886719 628.054688 550.441406 687.738281 392.191406 C 730.058594 396.535156 770.683594 385.671875 789.191406 349.511719 C 759.703125 332.484375 721.8125 337.945312 699.984375 348.925781 L 757.828125 184.488281 L 531.96875 328.910156 L 459.816406 328.910156 L 459.816406 184.488281 Z M 243.355469 184.5 "/>
</clipPath>
<clipPath id="clip40">
  <path d="M 250 333 L 313 333 L 313 396 L 250 396 Z M 250 333 "/>
</clipPath>
<clipPath id="clip41">
  <path d="M 243.355469 184.5 L 243.355469 328.921875 L 174.34375 328.921875 L 174.34375 401.132812 L 116.558594 401.132812 L 115.914062 407.410156 C 112.304688 446.75 119.164062 483.035156 134.933594 514.0625 L 140.226562 523.574219 C 143.367188 529.277344 147.128906 534.632812 151.011719 539.863281 C 154.898438 545.089844 156.300781 547.972656 158.761719 551.441406 C 200.441406 598.28125 262.585938 620.886719 334.328125 620.886719 C 493.210938 620.886719 628.054688 550.441406 687.738281 392.191406 C 730.058594 396.535156 770.683594 385.671875 789.191406 349.511719 C 759.703125 332.484375 721.8125 337.945312 699.984375 348.925781 L 757.828125 184.488281 L 531.96875 328.910156 L 459.816406 328.910156 L 459.816406 184.488281 Z M 243.355469 184.5 "/>
</clipPath>
<clipPath id="clip42">
  <path d="M 257 267 L 305 267 L 305 320 L 257 320 Z M 257 267 "/>
</clipPath>
<clipPath id="clip43">
  <path d="M 243.355469 184.5 L 243.355469 328.921875 L 174.34375 328.921875 L 174.34375 401.132812 L 116.558594 401.132812 L 115.914062 407.410156 C 112.304688 446.75 119.164062 483.035156 134.933594 514.0625 L 140.226562 523.574219 C 143.367188 529.277344 147.128906 534.632812 151.011719 539.863281 C 154.898438 545.089844 156.300781 547.972656 158.761719 551.441406 C 200.441406 598.28125 262.585938 620.886719 334.328125 620.886719 C 493.210938 620.886719 628.054688 550.441406 687.738281 392.191406 C 730.058594 396.535156 770.683594 385.671875 789.191406 349.511719 C 759.703125 332.484375 721.8125 337.945312 699.984375 348.925781 L 757.828125 184.488281 L 531.96875 328.910156 L 459.816406 328.910156 L 459.816406 184.488281 Z M 243.355469 184.5 "/>
</clipPath>
<clipPath id="clip44">
  <path d="M 255 264 L 307 264 L 307 322 L 255 322 Z M 255 264 "/>
</clipPath>
<clipPath id="clip45">
  <path d="M 243.355469 184.5 L 243.355469 328.921875 L 174.34375 328.921875 L 174.34375 401.132812 L 116.558594 401.132812 L 115.914062 407.410156 C 112.304688 446.75 119.164062 483.035156 134.933594 514.0625 L 140.226562 523.574219 C 143.367188 529.277344 147.128906 534.632812 151.011719 539.863281 C 154.898438 545.089844 156.300781 547.972656 158.761719 551.441406 C 200.441406 598.28125 262.585938 620.886719 334.328125 620.886719 C 493.210938 620.886719 628.054688 550.441406 687.738281 392.191406 C 730.058594 396.535156 770.683594 385.671875 789.191406 349.511719 C 759.703125 332.484375 721.8125 337.945312 699.984375 348.925781 L 757.828125 184.488281 L 531.96875 328.910156 L 459.816406 328.910156 L 459.816406 184.488281 Z M 243.355469 184.5 "/>
</clipPath>
<clipPath id="clip46">
  <path d="M 257 338 L 305 338 L 305 391 L 257 391 Z M 257 338 "/>
</clipPath>
<clipPath id="clip47">
  <path d="M 243.355469 184.5 L 243.355469 328.921875 L 174.34375 328.921875 L 174.34375 401.132812 L 116.558594 401.132812 L 115.914062 407.410156 C 112.304688 446.75 119.164062 483.035156 134.933594 514.0625 L 140.226562 523.574219 C 143.367188 529.277344 147.128906 534.632812 151.011719 539.863281 C 154.898438 545.089844 156.300781 547.972656 158.761719 551.441406 C 200.441406 598.28125 262.585938 620.886719 334.328125 620.886719 C 493.210938 620.886719 628.054688 550.441406 687.738281 392.191406 C 730.058594 396.535156 770.683594 385.671875 789.191406 349.511719 C 759.703125 332.484375 721.8125 337.945312 699.984375 348.925781 L 757.828125 184.488281 L 531.96875 328.910156 L 459.816406 328.910156 L 459.816406 184.488281 Z M 243.355469 184.5 "/>
</clipPath>
<clipPath id="clip48">
  <path d="M 255 336 L 307 336 L 307 394 L 255 394 Z M 255 336 "/>
</clipPath>
<clipPath id="clip49">
  <path d="M 243.355469 184.5 L 243.355469 328.921875 L 174.34375 328.921875 L 174.34375 401.132812 L 116.558594 401.132812 L 115.914062 407.410156 C 112.304688 446.75 119.164062 483.035156 134.933594 514.0625 L 140.226562 523.574219 C 143.367188 529.277344 147.128906 534.632812 151.011719 539.863281 C 154.898438 545.089844 156.300781 547.972656 158.761719 551.441406 C 200.441406 598.28125 262.585938 620.886719 334.328125 620.886719 C 493.210938 620.886719 628.054688 550.441406 687.738281 392.191406 C 730.058594 396.535156 770.683594 385.671875 789.191406 349.511719 C 759.703125 332.484375 721.8125 337.945312 699.984375 348.925781 L 757.828125 184.488281 L 531.96875 328.910156 L 459.816406 328.910156 L 459.816406 184.488281 Z M 243.355469 184.5 "/>
</clipPath>
<clipPath id="clip50">
  <path d="M 321 333 L 384 333 L 384 397 L 321 397 Z M 321 333 "/>
</clipPath>
<clipPath id="clip51">
  <path d="M 243.355469 184.5 L 243.355469 328.921875 L 174.34375 328.921875 L 174.34375 401.132812 L 116.558594 401.132812 L 115.914062 407.410156 C 112.304688 446.75 119.164062 483.035156 134.933594 514.0625 L 140.226562 523.574219 C 143.367188 529.277344 147.128906 534.632812 151.011719 539.863281 C 154.898438 545.089844 156.300781 547.972656 158.761719 551.441406 C 200.441406 598.28125 262.585938 620.886719 334.328125 620.886719 C 493.210938 620.886719 628.054688 550.441406 687.738281 392.191406 C 730.058594 396.535156 770.683594 385.671875 789.191406 349.511719 C 759.703125 332.484375 721.8125 337.945312 699.984375 348.925781 L 757.828125 184.488281 L 531.96875 328.910156 L 459.816406 328.910156 L 459.816406 184.488281 Z M 243.355469 184.5 "/>
</clipPath>
<clipPath id="clip52">
  <path d="M 321 261 L 384 261 L 384 325 L 321 325 Z M 321 261 "/>
</clipPath>
<clipPath id="clip53">
  <path d="M 243.355469 184.5 L 243.355469 328.921875 L 174.34375 328.921875 L 174.34375 401.132812 L 116.558594 401.132812 L 115.914062 407.410156 C 112.304688 446.75 119.164062 483.035156 134.933594 514.0625 L 140.226562 523.574219 C 143.367188 529.277344 147.128906 534.632812 151.011719 539.863281 C 154.898438 545.089844 156.300781 547.972656 158.761719 551.441406 C 200.441406 598.28125 262.585938 620.886719 334.328125 620.886719 C 493.210938 620.886719 628.054688 550.441406 687.738281 392.191406 C 730.058594 396.535156 770.683594 385.671875 789.191406 349.511719 C 759.703125 332.484375 721.8125 337.945312 699.984375 348.925781 L 757.828125 184.488281 L 531.96875 328.910156 L 459.816406 328.910156 L 459.816406 184.488281 Z M 243.355469 184.5 "/>
</clipPath>
<clipPath id="clip54">
  <path d="M 329 338 L 377 338 L 377 391 L 329 391 Z M 329 338 "/>
</clipPath>
<clipPath id="clip55">
  <path d="M 243.355469 184.5 L 243.355469 328.921875 L 174.34375 328.921875 L 174.34375 401.132812 L 116.558594 401.132812 L 115.914062 407.410156 C 112.304688 446.75 119.164062 483.035156 134.933594 514.0625 L 140.226562 523.574219 C 143.367188 529.277344 147.128906 534.632812 151.011719 539.863281 C 154.898438 545.089844 156.300781 547.972656 158.761719 551.441406 C 200.441406 598.28125 262.585938 620.886719 334.328125 620.886719 C 493.210938 620.886719 628.054688 550.441406 687.738281 392.191406 C 730.058594 396.535156 770.683594 385.671875 789.191406 349.511719 C 759.703125 332.484375 721.8125 337.945312 699.984375 348.925781 L 757.828125 184.488281 L 531.96875 328.910156 L 459.816406 328.910156 L 459.816406 184.488281 Z M 243.355469 184.5 "/>
</clipPath>
<clipPath id="clip56">
  <path d="M 326 336 L 379 336 L 379 394 L 326 394 Z M 326 336 "/>
</clipPath>
<clipPath id="clip57">
  <path d="M 243.355469 184.5 L 243.355469 328.921875 L 174.34375 328.921875 L 174.34375 401.132812 L 116.558594 401.132812 L 115.914062 407.410156 C 112.304688 446.75 119.164062 483.035156 134.933594 514.0625 L 140.226562 523.574219 C 143.367188 529.277344 147.128906 534.632812 151.011719 539.863281 C 154.898438 545.089844 156.300781 547.972656 158.761719 551.441406 C 200.441406 598.28125 262.585938 620.886719 334.328125 620.886719 C 493.210938 620.886719 628.054688 550.441406 687.738281 392.191406 C 730.058594 396.535156 770.683594 385.671875 789.191406 349.511719 C 759.703125 332.484375 721.8125 337.945312 699.984375 348.925781 L 757.828125 184.488281 L 531.96875 328.910156 L 459.816406 328.910156 L 459.816406 184.488281 Z M 243.355469 184.5 "/>
</clipPath>
<clipPath id="clip58">
  <path d="M 329 267 L 377 267 L 377 320 L 329 320 Z M 329 267 "/>
</clipPath>
<clipPath id="clip59">
  <path d="M 243.355469 184.5 L 243.355469 328.921875 L 174.34375 328.921875 L 174.34375 401.132812 L 116.558594 401.132812 L 115.914062 407.410156 C 112.304688 446.75 119.164062 483.035156 134.933594 514.0625 L 140.226562 523.574219 C 143.367188 529.277344 147.128906 534.632812 151.011719 539.863281 C 154.898438 545.089844 156.300781 547.972656 158.761719 551.441406 C 200.441406 598.28125 262.585938 620.886719 334.328125 620.886719 C 493.210938 620.886719 628.054688 550.441406 687.738281 392.191406 C 730.058594 396.535156 770.683594 385.671875 789.191406 349.511719 C 759.703125 332.484375 721.8125 337.945312 699.984375 348.925781 L 757.828125 184.488281 L 531.96875 328.910156 L 459.816406 328.910156 L 459.816406 184.488281 Z M 243.355469 184.5 "/>
</clipPath>
<clipPath id="clip60">
  <path d="M 326 264 L 379 264 L 379 322 L 326 322 Z M 326 264 "/>
</clipPath>
<clipPath id="clip61">
  <path d="M 243.355469 184.5 L 243.355469 328.921875 L 174.34375 328.921875 L 174.34375 401.132812 L 116.558594 401.132812 L 115.914062 407.410156 C 112.304688 446.75 119.164062 483.035156 134.933594 514.0625 L 140.226562 523.574219 C 143.367188 529.277344 147.128906 534.632812 151.011719 539.863281 C 154.898438 545.089844 156.300781 547.972656 158.761719 551.441406 C 200.441406 598.28125 262.585938 620.886719 334.328125 620.886719 C 493.210938 620.886719 628.054688 550.441406 687.738281 392.191406 C 730.058594 396.535156 770.683594 385.671875 789.191406 349.511719 C 759.703125 332.484375 721.8125 337.945312 699.984375 348.925781 L 757.828125 184.488281 L 531.96875 328.910156 L 459.816406 328.910156 L 459.816406 184.488281 Z M 243.355469 184.5 "/>
</clipPath>
<clipPath id="clip62">
  <path d="M 393 261 L 456 261 L 456 325 L 393 325 Z M 393 261 "/>
</clipPath>
<clipPath id="clip63">
  <path d="M 243.355469 184.5 L 243.355469 328.921875 L 174.34375 328.921875 L 174.34375 401.132812 L 116.558594 401.132812 L 115.914062 407.410156 C 112.304688 446.75 119.164062 483.035156 134.933594 514.0625 L 140.226562 523.574219 C 143.367188 529.277344 147.128906 534.632812 151.011719 539.863281 C 154.898438 545.089844 156.300781 547.972656 158.761719 551.441406 C 200.441406 598.28125 262.585938 620.886719 334.328125 620.886719 C 493.210938 620.886719 628.054688 550.441406 687.738281 392.191406 C 730.058594 396.535156 770.683594 385.671875 789.191406 349.511719 C 759.703125 332.484375 721.8125 337.945312 699.984375 348.925781 L 757.828125 184.488281 L 531.96875 328.910156 L 459.816406 328.910156 L 459.816406 184.488281 Z M 243.355469 184.5 "/>
</clipPath>
<clipPath id="clip64">
  <path d="M 393 333 L 456 333 L 456 396 L 393 396 Z M 393 333 "/>
</clipPath>
<clipPath id="clip65">
  <path d="M 243.355469 184.5 L 243.355469 328.921875 L 174.34375 328.921875 L 174.34375 401.132812 L 116.558594 401.132812 L 115.914062 407.410156 C 112.304688 446.75 119.164062 483.035156 134.933594 514.0625 L 140.226562 523.574219 C 143.367188 529.277344 147.128906 534.632812 151.011719 539.863281 C 154.898438 545.089844 156.300781 547.972656 158.761719 551.441406 C 200.441406 598.28125 262.585938 620.886719 334.328125 620.886719 C 493.210938 620.886719 628.054688 550.441406 687.738281 392.191406 C 730.058594 396.535156 770.683594 385.671875 789.191406 349.511719 C 759.703125 332.484375 721.8125 337.945312 699.984375 348.925781 L 757.828125 184.488281 L 531.96875 328.910156 L 459.816406 328.910156 L 459.816406 184.488281 Z M 243.355469 184.5 "/>
</clipPath>
<clipPath id="clip66">
  <path d="M 401 267 L 449 267 L 449 320 L 401 320 Z M 401 267 "/>
</clipPath>
<clipPath id="clip67">
  <path d="M 243.355469 184.5 L 243.355469 328.921875 L 174.34375 328.921875 L 174.34375 401.132812 L 116.558594 401.132812 L 115.914062 407.410156 C 112.304688 446.75 119.164062 483.035156 134.933594 514.0625 L 140.226562 523.574219 C 143.367188 529.277344 147.128906 534.632812 151.011719 539.863281 C 154.898438 545.089844 156.300781 547.972656 158.761719 551.441406 C 200.441406 598.28125 262.585938 620.886719 334.328125 620.886719 C 493.210938 620.886719 628.054688 550.441406 687.738281 392.191406 C 730.058594 396.535156 770.683594 385.671875 789.191406 349.511719 C 759.703125 332.484375 721.8125 337.945312 699.984375 348.925781 L 757.828125 184.488281 L 531.96875 328.910156 L 459.816406 328.910156 L 459.816406 184.488281 Z M 243.355469 184.5 "/>
</clipPath>
<clipPath id="clip68">
  <path d="M 398 264 L 451 264 L 451 322 L 398 322 Z M 398 264 "/>
</clipPath>
<clipPath id="clip69">
  <path d="M 243.355469 184.5 L 243.355469 328.921875 L 174.34375 328.921875 L 174.34375 401.132812 L 116.558594 401.132812 L 115.914062 407.410156 C 112.304688 446.75 119.164062 483.035156 134.933594 514.0625 L 140.226562 523.574219 C 143.367188 529.277344 147.128906 534.632812 151.011719 539.863281 C 154.898438 545.089844 156.300781 547.972656 158.761719 551.441406 C 200.441406 598.28125 262.585938 620.886719 334.328125 620.886719 C 493.210938 620.886719 628.054688 550.441406 687.738281 392.191406 C 730.058594 396.535156 770.683594 385.671875 789.191406 349.511719 C 759.703125 332.484375 721.8125 337.945312 699.984375 348.925781 L 757.828125 184.488281 L 531.96875 328.910156 L 459.816406 328.910156 L 459.816406 184.488281 Z M 243.355469 184.5 "/>
</clipPath>
<clipPath id="clip70">
  <path d="M 401 338 L 449 338 L 449 391 L 401 391 Z M 401 338 "/>
</clipPath>
<clipPath id="clip71">
  <path d="M 243.355469 184.5 L 243.355469 328.921875 L 174.34375 328.921875 L 174.34375 401.132812 L 116.558594 401.132812 L 115.914062 407.410156 C 112.304688 446.75 119.164062 483.035156 134.933594 514.0625 L 140.226562 523.574219 C 143.367188 529.277344 147.128906 534.632812 151.011719 539.863281 C 154.898438 545.089844 156.300781 547.972656 158.761719 551.441406 C 200.441406 598.28125 262.585938 620.886719 334.328125 620.886719 C 493.210938 620.886719 628.054688 550.441406 687.738281 392.191406 C 730.058594 396.535156 770.683594 385.671875 789.191406 349.511719 C 759.703125 332.484375 721.8125 337.945312 699.984375 348.925781 L 757.828125 184.488281 L 531.96875 328.910156 L 459.816406 328.910156 L 459.816406 184.488281 Z M 243.355469 184.5 "/>
</clipPath>
<clipPath id="clip72">
  <path d="M 398 336 L 451 336 L 451 394 L 398 394 Z M 398 336 "/>
</clipPath>
<clipPath id="clip73">
  <path d="M 243.355469 184.5 L 243.355469 328.921875 L 174.34375 328.921875 L 174.34375 401.132812 L 116.558594 401.132812 L 115.914062 407.410156 C 112.304688 446.75 119.164062 483.035156 134.933594 514.0625 L 140.226562 523.574219 C 143.367188 529.277344 147.128906 534.632812 151.011719 539.863281 C 154.898438 545.089844 156.300781 547.972656 158.761719 551.441406 C 200.441406 598.28125 262.585938 620.886719 334.328125 620.886719 C 493.210938 620.886719 628.054688 550.441406 687.738281 392.191406 C 730.058594 396.535156 770.683594 385.671875 789.191406 349.511719 C 759.703125 332.484375 721.8125 337.945312 699.984375 348.925781 L 757.828125 184.488281 L 531.96875 328.910156 L 459.816406 328.910156 L 459.816406 184.488281 Z M 243.355469 184.5 "/>
</clipPath>
<clipPath id="clip74">
  <path d="M 465 333 L 528 333 L 528 397 L 465 397 Z M 465 333 "/>
</clipPath>
<clipPath id="clip75">
  <path d="M 243.355469 184.5 L 243.355469 328.921875 L 174.34375 328.921875 L 174.34375 401.132812 L 116.558594 401.132812 L 115.914062 407.410156 C 112.304688 446.75 119.164062 483.035156 134.933594 514.0625 L 140.226562 523.574219 C 143.367188 529.277344 147.128906 534.632812 151.011719 539.863281 C 154.898438 545.089844 156.300781 547.972656 158.761719 551.441406 C 200.441406 598.28125 262.585938 620.886719 334.328125 620.886719 C 493.210938 620.886719 628.054688 550.441406 687.738281 392.191406 C 730.058594 396.535156 770.683594 385.671875 789.191406 349.511719 C 759.703125 332.484375 721.8125 337.945312 699.984375 348.925781 L 757.828125 184.488281 L 531.96875 328.910156 L 459.816406 328.910156 L 459.816406 184.488281 Z M 243.355469 184.5 "/>
</clipPath>
<clipPath id="clip76">
  <path d="M 465 261 L 528 261 L 528 325 L 465 325 Z M 465 261 "/>
</clipPath>
<clipPath id="clip77">
  <path d="M 243.355469 184.5 L 243.355469 328.921875 L 174.34375 328.921875 L 174.34375 401.132812 L 116.558594 401.132812 L 115.914062 407.410156 C 112.304688 446.75 119.164062 483.035156 134.933594 514.0625 L 140.226562 523.574219 C 143.367188 529.277344 147.128906 534.632812 151.011719 539.863281 C 154.898438 545.089844 156.300781 547.972656 158.761719 551.441406 C 200.441406 598.28125 262.585938 620.886719 334.328125 620.886719 C 493.210938 620.886719 628.054688 550.441406 687.738281 392.191406 C 730.058594 396.535156 770.683594 385.671875 789.191406 349.511719 C 759.703125 332.484375 721.8125 337.945312 699.984375 348.925781 L 757.828125 184.488281 L 531.96875 328.910156 L 459.816406 328.910156 L 459.816406 184.488281 Z M 243.355469 184.5 "/>
</clipPath>
<clipPath id="clip78">
  <path d="M 472 338 L 520 338 L 520 391 L 472 391 Z M 472 338 "/>
</clipPath>
<clipPath id="clip79">
  <path d="M 243.355469 184.5 L 243.355469 328.921875 L 174.34375 328.921875 L 174.34375 401.132812 L 116.558594 401.132812 L 115.914062 407.410156 C 112.304688 446.75 119.164062 483.035156 134.933594 514.0625 L 140.226562 523.574219 C 143.367188 529.277344 147.128906 534.632812 151.011719 539.863281 C 154.898438 545.089844 156.300781 547.972656 158.761719 551.441406 C 200.441406 598.28125 262.585938 620.886719 334.328125 620.886719 C 493.210938 620.886719 628.054688 550.441406 687.738281 392.191406 C 730.058594 396.535156 770.683594 385.671875 789.191406 349.511719 C 759.703125 332.484375 721.8125 337.945312 699.984375 348.925781 L 757.828125 184.488281 L 531.96875 328.910156 L 459.816406 328.910156 L 459.816406 184.488281 Z M 243.355469 184.5 "/>
</clipPath>
<clipPath id="clip80">
  <path d="M 470 336 L 523 336 L 523 394 L 470 394 Z M 470 336 "/>
</clipPath>
<clipPath id="clip81">
  <path d="M 243.355469 184.5 L 243.355469 328.921875 L 174.34375 328.921875 L 174.34375 401.132812 L 116.558594 401.132812 L 115.914062 407.410156 C 112.304688 446.75 119.164062 483.035156 134.933594 514.0625 L 140.226562 523.574219 C 143.367188 529.277344 147.128906 534.632812 151.011719 539.863281 C 154.898438 545.089844 156.300781 547.972656 158.761719 551.441406 C 200.441406 598.28125 262.585938 620.886719 334.328125 620.886719 C 493.210938 620.886719 628.054688 550.441406 687.738281 392.191406 C 730.058594 396.535156 770.683594 385.671875 789.191406 349.511719 C 759.703125 332.484375 721.8125 337.945312 699.984375 348.925781 L 757.828125 184.488281 L 531.96875 328.910156 L 459.816406 328.910156 L 459.816406 184.488281 Z M 243.355469 184.5 "/>
</clipPath>
<clipPath id="clip82">
  <path d="M 472 267 L 520 267 L 520 320 L 472 320 Z M 472 267 "/>
</clipPath>
<clipPath id="clip83">
  <path d="M 243.355469 184.5 L 243.355469 328.921875 L 174.34375 328.921875 L 174.34375 401.132812 L 116.558594 401.132812 L 115.914062 407.410156 C 112.304688 446.75 119.164062 483.035156 134.933594 514.0625 L 140.226562 523.574219 C 143.367188 529.277344 147.128906 534.632812 151.011719 539.863281 C 154.898438 545.089844 156.300781 547.972656 158.761719 551.441406 C 200.441406 598.28125 262.585938 620.886719 334.328125 620.886719 C 493.210938 620.886719 628.054688 550.441406 687.738281 392.191406 C 730.058594 396.535156 770.683594 385.671875 789.191406 349.511719 C 759.703125 332.484375 721.8125 337.945312 699.984375 348.925781 L 757.828125 184.488281 L 531.96875 328.910156 L 459.816406 328.910156 L 459.816406 184.488281 Z M 243.355469 184.5 "/>
</clipPath>
<clipPath id="clip84">
  <path d="M 470 264 L 523 264 L 523 322 L 470 322 Z M 470 264 "/>
</clipPath>
<clipPath id="clip85">
  <path d="M 243.355469 184.5 L 243.355469 328.921875 L 174.34375 328.921875 L 174.34375 401.132812 L 116.558594 401.132812 L 115.914062 407.410156 C 112.304688 446.75 119.164062 483.035156 134.933594 514.0625 L 140.226562 523.574219 C 143.367188 529.277344 147.128906 534.632812 151.011719 539.863281 C 154.898438 545.089844 156.300781 547.972656 158.761719 551.441406 C 200.441406 598.28125 262.585938 620.886719 334.328125 620.886719 C 493.210938 620.886719 628.054688 550.441406 687.738281 392.191406 C 730.058594 396.535156 770.683594 385.671875 789.191406 349.511719 C 759.703125 332.484375 721.8125 337.945312 699.984375 348.925781 L 757.828125 184.488281 L 531.96875 328.910156 L 459.816406 328.910156 L 459.816406 184.488281 Z M 243.355469 184.5 "/>
</clipPath>
<clipPath id="clip86">
  <path d="M 114.742188 268 L 789.191406 268 L 789.191406 620.898438 L 114.742188 620.898438 Z M 114.742188 268 "/>
</clipPath>
<clipPath id="clip87">
  <path d="M 243.355469 184.5 L 243.355469 328.921875 L 174.34375 328.921875 L 174.34375 401.132812 L 116.558594 401.132812 L 115.914062 407.410156 C 112.304688 446.75 119.164062 483.035156 134.933594 514.0625 L 140.226562 523.574219 C 143.367188 529.277344 147.128906 534.632812 151.011719 539.863281 C 154.898438 545.089844 156.300781 547.972656 158.761719 551.441406 C 200.441406 598.28125 262.585938 620.886719 334.328125 620.886719 C 493.210938 620.886719 628.054688 550.441406 687.738281 392.191406 C 730.058594 396.535156 770.683594 385.671875 789.191406 349.511719 C 759.703125 332.484375 721.8125 337.945312 699.984375 348.925781 L 757.828125 184.488281 L 531.96875 328.910156 L 459.816406 328.910156 L 459.816406 184.488281 Z M 243.355469 184.5 "/>
</clipPath>
<clipPath id="clip88">
  <path d="M 114.742188 457 L 789.191406 457 L 789.191406 620.898438 L 114.742188 620.898438 Z M 114.742188 457 "/>
</clipPath>
<clipPath id="clip89">
  <path d="M 243.355469 184.5 L 243.355469 328.921875 L 174.34375 328.921875 L 174.34375 401.132812 L 116.558594 401.132812 L 115.914062 407.410156 C 112.304688 446.75 119.164062 483.035156 134.933594 514.0625 L 140.226562 523.574219 C 143.367188 529.277344 147.128906 534.632812 151.011719 539.863281 C 154.898438 545.089844 156.300781 547.972656 158.761719 551.441406 C 200.441406 598.28125 262.585938 620.886719 334.328125 620.886719 C 493.210938 620.886719 628.054688 550.441406 687.738281 392.191406 C 730.058594 396.535156 770.683594 385.671875 789.191406 349.511719 C 759.703125 332.484375 721.8125 337.945312 699.984375 348.925781 L 757.828125 184.488281 L 531.96875 328.910156 L 459.816406 328.910156 L 459.816406 184.488281 Z M 243.355469 184.5 "/>
</clipPath>
<clipPath id="clip90">
  <path d="M 146 543 L 354 543 L 354 620.898438 L 146 620.898438 Z M 146 543 "/>
</clipPath>
<clipPath id="clip91">
  <path d="M 243.355469 184.5 L 243.355469 328.921875 L 174.34375 328.921875 L 174.34375 401.132812 L 116.558594 401.132812 L 115.914062 407.410156 C 112.304688 446.75 119.164062 483.035156 134.933594 514.0625 L 140.226562 523.574219 C 143.367188 529.277344 147.128906 534.632812 151.011719 539.863281 C 154.898438 545.089844 156.300781 547.972656 158.761719 551.441406 C 200.441406 598.28125 262.585938 620.886719 334.328125 620.886719 C 493.210938 620.886719 628.054688 550.441406 687.738281 392.191406 C 730.058594 396.535156 770.683594 385.671875 789.191406 349.511719 C 759.703125 332.484375 721.8125 337.945312 699.984375 348.925781 L 757.828125 184.488281 L 531.96875 328.910156 L 459.816406 328.910156 L 459.816406 184.488281 Z M 243.355469 184.5 "/>
</clipPath>
<clipPath id="clip92">
  <path d="M 114.742188 335 L 789.191406 335 L 789.191406 620.898438 L 114.742188 620.898438 Z M 114.742188 335 "/>
</clipPath>
<clipPath id="clip93">
  <path d="M 243.355469 184.5 L 243.355469 328.921875 L 174.34375 328.921875 L 174.34375 401.132812 L 116.558594 401.132812 L 115.914062 407.410156 C 112.304688 446.75 119.164062 483.035156 134.933594 514.0625 L 140.226562 523.574219 C 143.367188 529.277344 147.128906 534.632812 151.011719 539.863281 C 154.898438 545.089844 156.300781 547.972656 158.761719 551.441406 C 200.441406 598.28125 262.585938 620.886719 334.328125 620.886719 C 493.210938 620.886719 628.054688 550.441406 687.738281 392.191406 C 730.058594 396.535156 770.683594 385.671875 789.191406 349.511719 C 759.703125 332.484375 721.8125 337.945312 699.984375 348.925781 L 757.828125 184.488281 L 531.96875 328.910156 L 459.816406 328.910156 L 459.816406 184.488281 Z M 243.355469 184.5 "/>
</clipPath>
</defs>
<g id="surface1">
<g clip-path="url(#clip1)" clip-rule="nonzero">
<path style=" stroke:none;fill-rule:nonzero;fill:rgb(22.349548%,30.198669%,32.939148%);fill-opacity:1;" d="M 467.601562 321.804688 L 539.324219 321.804688 L 539.324219 395.183594 L 575.59375 395.183594 C 592.660156 395.101562 609.273438 392.3125 625.4375 386.816406 C 633.25 384.164062 641.980469 380.492188 649.660156 375.867188 C 639.535156 362.640625 634.371094 345.945312 632.671875 329.453125 C 630.601562 307.0625 635.117188 277.902344 650.273438 260.375 L 657.816406 251.652344 L 666.816406 258.878906 C 689.445312 277.070312 708.472656 302.488281 711.835938 331.476562 C 739.066406 323.453125 771.054688 325.355469 795.078125 339.230469 L 804.929688 344.925781 L 799.746094 355.058594 C 779.582031 394.671875 737.113281 406.964844 695.613281 404.789062 C 633.503906 559.589844 498.296875 632.886719 334.367188 632.886719 C 249.664062 632.886719 171.960938 601.195312 127.726562 525.996094 C 125.128906 521.320312 122.917969 516.441406 120.558594 511.644531 C 105.609375 478.542969 100.628906 442.277344 103.996094 406.234375 L 105.011719 395.386719 L 166.167969 395.386719 L 166.167969 321.855469 L 237.890625 321.855469 L 237.890625 250.070312 L 381.355469 250.070312 L 381.355469 178.289062 L 467.433594 178.289062 L 467.433594 321.871094 "/>
</g>
<g clip-path="url(#clip2)" clip-rule="nonzero">
<g clip-path="url(#clip3)" clip-rule="nonzero">
<path style=" stroke:none;fill-rule:nonzero;fill:rgb(12.548828%,76.078796%,93.728638%);fill-opacity:1;" d="M 393.492188 190.183594 L 455.660156 190.183594 L 455.660156 252.402344 L 393.484375 252.402344 Z M 393.492188 190.183594 "/>
</g>
</g>
<g clip-path="url(#clip4)" clip-rule="nonzero">
<g clip-path="url(#clip5)" clip-rule="nonzero">
<path style=" stroke:none;fill-rule:nonzero;fill:rgb(0%,0%,0%);fill-opacity:1;" d="M 401.113281 247.21875 L 401.113281 195.363281 M 410.4375 247.21875 L 410.4375 195.363281 M 419.855469 247.21875 L 419.855469 195.363281 M 429.277344 247.21875 L 429.277344 195.363281 M 438.695312 247.21875 L 438.695312 195.363281 M 448.011719 247.21875 L 448.011719 195.363281 "/>
</g>
</g>
<g clip-path="url(#clip6)" clip-rule="nonzero">
<g clip-path="url(#clip7)" clip-rule="nonzero">
<path style="fill:none;stroke-width:1.56;stroke-linecap:butt;stroke-linejoin:miter;stroke:rgb(22.349548%,30.198669%,32.939148%);stroke-opacity:1;stroke-miterlimit:4;" d="M 126.289492 21.976475 L 126.289492 5.459672 M 129.261853 21.976475 L 129.261853 5.459672 M 132.264101 21.976475 L 132.264101 5.459672 M 135.267593 21.976475 L 135.267593 5.459672 M 138.26984 21.976475 L 138.26984 5.459672 M 141.239712 21.976475 L 141.239712 5.459672 " transform="matrix(3.136973,0,0,3.139558,4.946553,178.222321)"/>
</g>
</g>
<g clip-path="url(#clip8)" clip-rule="nonzero">
<g clip-path="url(#clip9)" clip-rule="nonzero">
<path style=" stroke:none;fill-rule:nonzero;fill:rgb(0%,67.449951%,82.749939%);fill-opacity:1;" d="M 465.222656 252.4375 L 527.390625 252.4375 L 527.390625 190.222656 L 465.214844 190.222656 Z M 465.222656 252.4375 "/>
</g>
</g>
<g clip-path="url(#clip10)" clip-rule="nonzero">
<g clip-path="url(#clip11)" clip-rule="nonzero">
<path style=" stroke:none;fill-rule:nonzero;fill:rgb(0%,0%,0%);fill-opacity:1;" d="M 472.84375 195.371094 L 472.84375 247.226562 M 482.167969 195.371094 L 482.167969 247.226562 M 491.585938 195.371094 L 491.585938 247.226562 M 501.003906 195.371094 L 501.003906 247.226562 M 510.425781 195.371094 L 510.425781 247.226562 M 519.742188 195.371094 L 519.742188 247.226562 "/>
</g>
</g>
<g clip-path="url(#clip12)" clip-rule="nonzero">
<g clip-path="url(#clip13)" clip-rule="nonzero">
<path style="fill:none;stroke-width:1.56;stroke-linecap:butt;stroke-linejoin:miter;stroke:rgb(22.349548%,30.198669%,32.939148%);stroke-opacity:1;stroke-miterlimit:4;" d="M 126.289632 21.976545 L 126.289632 5.459742 M 129.261994 21.976545 L 129.261994 5.459742 M 132.264241 21.976545 L 132.264241 5.459742 M 135.266489 21.976545 L 135.266489 5.459742 M 138.269981 21.976545 L 138.269981 5.459742 M 141.239853 21.976545 L 141.239853 5.459742 " transform="matrix(3.136973,0,0,-3.139558,76.67658,264.367742)"/>
</g>
</g>
<g clip-path="url(#clip14)" clip-rule="nonzero">
<g clip-path="url(#clip15)" clip-rule="nonzero">
<path style=" stroke:none;fill-rule:nonzero;fill:rgb(0%,67.449951%,82.749939%);fill-opacity:1;" d="M 106.570312 261.941406 L 168.742188 261.941406 L 168.742188 324.160156 L 106.566406 324.160156 Z M 106.570312 261.941406 "/>
</g>
</g>
<g clip-path="url(#clip16)" clip-rule="nonzero">
<g clip-path="url(#clip17)" clip-rule="nonzero">
<path style=" stroke:none;fill-rule:nonzero;fill:rgb(12.548828%,76.078796%,93.728638%);fill-opacity:1;" d="M 106.570312 333.761719 L 168.742188 333.761719 L 168.742188 395.980469 L 106.566406 395.980469 Z M 106.570312 333.761719 "/>
</g>
</g>
<g clip-path="url(#clip18)" clip-rule="nonzero">
<g clip-path="url(#clip19)" clip-rule="nonzero">
<path style=" stroke:none;fill-rule:nonzero;fill:rgb(0%,0%,0%);fill-opacity:1;" d="M 114.195312 319.007812 L 114.195312 267.152344 M 123.519531 319.007812 L 123.519531 267.152344 M 132.933594 319.007812 L 132.933594 267.152344 M 142.355469 319.007812 L 142.355469 267.152344 M 151.777344 319.007812 L 151.777344 267.152344 M 161.09375 319.007812 L 161.09375 267.152344 "/>
</g>
</g>
<g clip-path="url(#clip20)" clip-rule="nonzero">
<g clip-path="url(#clip21)" clip-rule="nonzero">
<path style="fill:none;stroke-width:1.56;stroke-linecap:butt;stroke-linejoin:miter;stroke:rgb(22.349548%,30.198669%,32.939148%);stroke-opacity:1;stroke-miterlimit:4;" d="M 126.290174 21.976453 L 126.290174 5.45965 M 129.262536 21.976453 L 129.262536 5.45965 M 132.263538 21.976453 L 132.263538 5.45965 M 135.26703 21.976453 L 135.26703 5.45965 M 138.270523 21.976453 L 138.270523 5.45965 M 141.240394 21.976453 L 141.240394 5.45965 " transform="matrix(3.136973,0,0,3.139558,-281.973556,250.011454)"/>
</g>
</g>
<g clip-path="url(#clip22)" clip-rule="nonzero">
<g clip-path="url(#clip23)" clip-rule="nonzero">
<path style=" stroke:none;fill-rule:nonzero;fill:rgb(0%,0%,0%);fill-opacity:1;" d="M 114.195312 390.796875 L 114.195312 338.941406 M 123.519531 390.796875 L 123.519531 338.941406 M 132.933594 390.796875 L 132.933594 338.941406 M 142.355469 390.796875 L 142.355469 338.941406 M 151.777344 390.796875 L 151.777344 338.941406 M 161.09375 390.796875 L 161.09375 338.941406 "/>
</g>
</g>
<g clip-path="url(#clip24)" clip-rule="nonzero">
<g clip-path="url(#clip25)" clip-rule="nonzero">
<path style="fill:none;stroke-width:1.56;stroke-linecap:butt;stroke-linejoin:miter;stroke:rgb(22.349548%,30.198669%,32.939148%);stroke-opacity:1;stroke-miterlimit:4;" d="M 126.290174 21.976426 L 126.290174 5.459623 M 129.262536 21.976426 L 129.262536 5.459623 M 132.263538 21.976426 L 132.263538 5.459623 M 135.26703 21.976426 L 135.26703 5.459623 M 138.270523 21.976426 L 138.270523 5.459623 M 141.240394 21.976426 L 141.240394 5.459623 " transform="matrix(3.136973,0,0,3.139558,-281.973556,321.800601)"/>
</g>
</g>
<g clip-path="url(#clip26)" clip-rule="nonzero">
<g clip-path="url(#clip27)" clip-rule="nonzero">
<path style=" stroke:none;fill-rule:nonzero;fill:rgb(0%,67.449951%,82.749939%);fill-opacity:1;" d="M 178.300781 396.015625 L 240.46875 396.015625 L 240.46875 333.800781 L 178.296875 333.800781 Z M 178.300781 396.015625 "/>
</g>
</g>
<g clip-path="url(#clip28)" clip-rule="nonzero">
<g clip-path="url(#clip29)" clip-rule="nonzero">
<path style=" stroke:none;fill-rule:nonzero;fill:rgb(12.548828%,76.078796%,93.728638%);fill-opacity:1;" d="M 178.300781 324.195312 L 240.46875 324.195312 L 240.46875 261.976562 L 178.296875 261.976562 Z M 178.300781 324.195312 "/>
</g>
</g>
<g clip-path="url(#clip30)" clip-rule="nonzero">
<g clip-path="url(#clip31)" clip-rule="nonzero">
<path style=" stroke:none;fill-rule:nonzero;fill:rgb(0%,0%,0%);fill-opacity:1;" d="M 185.925781 338.949219 L 185.925781 390.804688 M 195.246094 338.949219 L 195.246094 390.804688 M 204.664062 338.949219 L 204.664062 390.804688 M 214.085938 338.949219 L 214.085938 390.804688 M 223.503906 338.949219 L 223.503906 390.804688 M 232.824219 338.949219 L 232.824219 390.804688 "/>
</g>
</g>
<g clip-path="url(#clip32)" clip-rule="nonzero">
<g clip-path="url(#clip33)" clip-rule="nonzero">
<path style="fill:none;stroke-width:1.56;stroke-linecap:butt;stroke-linejoin:miter;stroke:rgb(22.349548%,30.198669%,32.939148%);stroke-opacity:1;stroke-miterlimit:4;" d="M 126.290315 21.976587 L 126.290315 5.459784 M 129.261432 21.976587 L 129.261432 5.459784 M 132.263679 21.976587 L 132.263679 5.459784 M 135.267171 21.976587 L 135.267171 5.459784 M 138.269419 21.976587 L 138.269419 5.459784 M 141.240535 21.976587 L 141.240535 5.459784 " transform="matrix(3.136973,0,0,-3.139558,-210.243531,407.945999)"/>
</g>
</g>
<g clip-path="url(#clip34)" clip-rule="nonzero">
<g clip-path="url(#clip35)" clip-rule="nonzero">
<path style=" stroke:none;fill-rule:nonzero;fill:rgb(0%,0%,0%);fill-opacity:1;" d="M 185.925781 267.160156 L 185.925781 319.015625 M 195.246094 267.160156 L 195.246094 319.015625 M 204.664062 267.160156 L 204.664062 319.015625 M 214.085938 267.160156 L 214.085938 319.015625 M 223.503906 267.160156 L 223.503906 319.015625 M 232.824219 267.160156 L 232.824219 319.015625 "/>
</g>
</g>
<g clip-path="url(#clip36)" clip-rule="nonzero">
<g clip-path="url(#clip37)" clip-rule="nonzero">
<path style="fill:none;stroke-width:1.56;stroke-linecap:butt;stroke-linejoin:miter;stroke:rgb(22.349548%,30.198669%,32.939148%);stroke-opacity:1;stroke-miterlimit:4;" d="M 126.290315 21.976562 L 126.290315 5.459759 M 129.261432 21.976562 L 129.261432 5.459759 M 132.263679 21.976562 L 132.263679 5.459759 M 135.267171 21.976562 L 135.267171 5.459759 M 138.269419 21.976562 L 138.269419 5.459759 M 141.240535 21.976562 L 141.240535 5.459759 " transform="matrix(3.136973,0,0,-3.139558,-210.243531,336.156857)"/>
</g>
</g>
<g clip-path="url(#clip38)" clip-rule="nonzero">
<g clip-path="url(#clip39)" clip-rule="nonzero">
<path style=" stroke:none;fill-rule:nonzero;fill:rgb(0%,67.449951%,82.749939%);fill-opacity:1;" d="M 250.03125 261.941406 L 312.199219 261.941406 L 312.199219 324.160156 L 250.027344 324.160156 Z M 250.03125 261.941406 "/>
</g>
</g>
<g clip-path="url(#clip40)" clip-rule="nonzero">
<g clip-path="url(#clip41)" clip-rule="nonzero">
<path style=" stroke:none;fill-rule:nonzero;fill:rgb(12.548828%,76.078796%,93.728638%);fill-opacity:1;" d="M 250.03125 333.761719 L 312.199219 333.761719 L 312.199219 395.980469 L 250.027344 395.980469 Z M 250.03125 333.761719 "/>
</g>
</g>
<g clip-path="url(#clip42)" clip-rule="nonzero">
<g clip-path="url(#clip43)" clip-rule="nonzero">
<path style=" stroke:none;fill-rule:nonzero;fill:rgb(0%,0%,0%);fill-opacity:1;" d="M 257.65625 319.007812 L 257.65625 267.152344 M 266.976562 319.007812 L 266.976562 267.152344 M 276.394531 319.007812 L 276.394531 267.152344 M 285.816406 319.007812 L 285.816406 267.152344 M 295.234375 319.007812 L 295.234375 267.152344 M 304.550781 319.007812 L 304.550781 267.152344 "/>
</g>
</g>
<g clip-path="url(#clip44)" clip-rule="nonzero">
<g clip-path="url(#clip45)" clip-rule="nonzero">
<path style="fill:none;stroke-width:1.56;stroke-linecap:butt;stroke-linejoin:miter;stroke:rgb(22.349548%,30.198669%,32.939148%);stroke-opacity:1;stroke-miterlimit:4;" d="M 126.290457 21.976453 L 126.290457 5.45965 M 129.261573 21.976453 L 129.261573 5.45965 M 132.26382 21.976453 L 132.26382 5.45965 M 135.267313 21.976453 L 135.267313 5.45965 M 138.26956 21.976453 L 138.26956 5.45965 M 141.239431 21.976453 L 141.239431 5.45965 " transform="matrix(3.136973,0,0,3.139558,-138.513506,250.011454)"/>
</g>
</g>
<g clip-path="url(#clip46)" clip-rule="nonzero">
<g clip-path="url(#clip47)" clip-rule="nonzero">
<path style=" stroke:none;fill-rule:nonzero;fill:rgb(0%,0%,0%);fill-opacity:1;" d="M 257.65625 390.796875 L 257.65625 338.941406 M 266.976562 390.796875 L 266.976562 338.941406 M 276.394531 390.796875 L 276.394531 338.941406 M 285.816406 390.796875 L 285.816406 338.941406 M 295.234375 390.796875 L 295.234375 338.941406 M 304.550781 390.796875 L 304.550781 338.941406 "/>
</g>
</g>
<g clip-path="url(#clip48)" clip-rule="nonzero">
<g clip-path="url(#clip49)" clip-rule="nonzero">
<path style="fill:none;stroke-width:1.56;stroke-linecap:butt;stroke-linejoin:miter;stroke:rgb(22.349548%,30.198669%,32.939148%);stroke-opacity:1;stroke-miterlimit:4;" d="M 126.290457 21.976426 L 126.290457 5.459623 M 129.261573 21.976426 L 129.261573 5.459623 M 132.26382 21.976426 L 132.26382 5.459623 M 135.267313 21.976426 L 135.267313 5.459623 M 138.26956 21.976426 L 138.26956 5.459623 M 141.239431 21.976426 L 141.239431 5.459623 " transform="matrix(3.136973,0,0,3.139558,-138.513506,321.800601)"/>
</g>
</g>
<g clip-path="url(#clip50)" clip-rule="nonzero">
<g clip-path="url(#clip51)" clip-rule="nonzero">
<path style=" stroke:none;fill-rule:nonzero;fill:rgb(0%,67.449951%,82.749939%);fill-opacity:1;" d="M 321.761719 396.015625 L 383.929688 396.015625 L 383.929688 333.800781 L 321.753906 333.800781 Z M 321.761719 396.015625 "/>
</g>
</g>
<g clip-path="url(#clip52)" clip-rule="nonzero">
<g clip-path="url(#clip53)" clip-rule="nonzero">
<path style=" stroke:none;fill-rule:nonzero;fill:rgb(12.548828%,76.078796%,93.728638%);fill-opacity:1;" d="M 321.761719 324.195312 L 383.929688 324.195312 L 383.929688 261.976562 L 321.753906 261.976562 Z M 321.761719 324.195312 "/>
</g>
</g>
<g clip-path="url(#clip54)" clip-rule="nonzero">
<g clip-path="url(#clip55)" clip-rule="nonzero">
<path style=" stroke:none;fill-rule:nonzero;fill:rgb(0%,0%,0%);fill-opacity:1;" d="M 329.386719 338.949219 L 329.386719 390.804688 M 338.707031 338.949219 L 338.707031 390.804688 M 348.125 338.949219 L 348.125 390.804688 M 357.546875 338.949219 L 357.546875 390.804688 M 366.964844 338.949219 L 366.964844 390.804688 M 376.28125 338.949219 L 376.28125 390.804688 "/>
</g>
</g>
<g clip-path="url(#clip56)" clip-rule="nonzero">
<g clip-path="url(#clip57)" clip-rule="nonzero">
<path style="fill:none;stroke-width:1.56;stroke-linecap:butt;stroke-linejoin:miter;stroke:rgb(22.349548%,30.198669%,32.939148%);stroke-opacity:1;stroke-miterlimit:4;" d="M 126.290596 21.976587 L 126.290596 5.459784 M 129.261712 21.976587 L 129.261712 5.459784 M 132.263959 21.976587 L 132.263959 5.459784 M 135.267452 21.976587 L 135.267452 5.459784 M 138.269699 21.976587 L 138.269699 5.459784 M 141.239571 21.976587 L 141.239571 5.459784 " transform="matrix(3.136973,0,0,-3.139558,-66.783473,407.945999)"/>
</g>
</g>
<g clip-path="url(#clip58)" clip-rule="nonzero">
<g clip-path="url(#clip59)" clip-rule="nonzero">
<path style=" stroke:none;fill-rule:nonzero;fill:rgb(0%,0%,0%);fill-opacity:1;" d="M 329.386719 267.160156 L 329.386719 319.015625 M 338.707031 267.160156 L 338.707031 319.015625 M 348.125 267.160156 L 348.125 319.015625 M 357.546875 267.160156 L 357.546875 319.015625 M 366.964844 267.160156 L 366.964844 319.015625 M 376.28125 267.160156 L 376.28125 319.015625 "/>
</g>
</g>
<g clip-path="url(#clip60)" clip-rule="nonzero">
<g clip-path="url(#clip61)" clip-rule="nonzero">
<path style="fill:none;stroke-width:1.56;stroke-linecap:butt;stroke-linejoin:miter;stroke:rgb(22.349548%,30.198669%,32.939148%);stroke-opacity:1;stroke-miterlimit:4;" d="M 126.290596 21.976562 L 126.290596 5.459759 M 129.261712 21.976562 L 129.261712 5.459759 M 132.263959 21.976562 L 132.263959 5.459759 M 135.267452 21.976562 L 135.267452 5.459759 M 138.269699 21.976562 L 138.269699 5.459759 M 141.239571 21.976562 L 141.239571 5.459759 " transform="matrix(3.136973,0,0,-3.139558,-66.783473,336.156857)"/>
</g>
</g>
<g clip-path="url(#clip62)" clip-rule="nonzero">
<g clip-path="url(#clip63)" clip-rule="nonzero">
<path style=" stroke:none;fill-rule:nonzero;fill:rgb(0%,67.449951%,82.749939%);fill-opacity:1;" d="M 393.492188 261.941406 L 455.660156 261.941406 L 455.660156 324.160156 L 393.484375 324.160156 Z M 393.492188 261.941406 "/>
</g>
</g>
<g clip-path="url(#clip64)" clip-rule="nonzero">
<g clip-path="url(#clip65)" clip-rule="nonzero">
<path style=" stroke:none;fill-rule:nonzero;fill:rgb(12.548828%,76.078796%,93.728638%);fill-opacity:1;" d="M 393.492188 333.761719 L 455.660156 333.761719 L 455.660156 395.980469 L 393.484375 395.980469 Z M 393.492188 333.761719 "/>
</g>
</g>
<g clip-path="url(#clip66)" clip-rule="nonzero">
<g clip-path="url(#clip67)" clip-rule="nonzero">
<path style=" stroke:none;fill-rule:nonzero;fill:rgb(0%,0%,0%);fill-opacity:1;" d="M 401.113281 319.007812 L 401.113281 267.152344 M 410.4375 319.007812 L 410.4375 267.152344 M 419.855469 319.007812 L 419.855469 267.152344 M 429.277344 319.007812 L 429.277344 267.152344 M 438.695312 319.007812 L 438.695312 267.152344 M 448.011719 319.007812 L 448.011719 267.152344 "/>
</g>
</g>
<g clip-path="url(#clip68)" clip-rule="nonzero">
<g clip-path="url(#clip69)" clip-rule="nonzero">
<path style="fill:none;stroke-width:1.56;stroke-linecap:butt;stroke-linejoin:miter;stroke:rgb(22.349548%,30.198669%,32.939148%);stroke-opacity:1;stroke-miterlimit:4;" d="M 126.289492 21.976453 L 126.289492 5.45965 M 129.261853 21.976453 L 129.261853 5.45965 M 132.264101 21.976453 L 132.264101 5.45965 M 135.267593 21.976453 L 135.267593 5.45965 M 138.26984 21.976453 L 138.26984 5.45965 M 141.239712 21.976453 L 141.239712 5.45965 " transform="matrix(3.136973,0,0,3.139558,4.946553,250.011454)"/>
</g>
</g>
<g clip-path="url(#clip70)" clip-rule="nonzero">
<g clip-path="url(#clip71)" clip-rule="nonzero">
<path style=" stroke:none;fill-rule:nonzero;fill:rgb(0%,0%,0%);fill-opacity:1;" d="M 401.113281 390.796875 L 401.113281 338.941406 M 410.4375 390.796875 L 410.4375 338.941406 M 419.855469 390.796875 L 419.855469 338.941406 M 429.277344 390.796875 L 429.277344 338.941406 M 438.695312 390.796875 L 438.695312 338.941406 M 448.011719 390.796875 L 448.011719 338.941406 "/>
</g>
</g>
<g clip-path="url(#clip72)" clip-rule="nonzero">
<g clip-path="url(#clip73)" clip-rule="nonzero">
<path style="fill:none;stroke-width:1.56;stroke-linecap:butt;stroke-linejoin:miter;stroke:rgb(22.349548%,30.198669%,32.939148%);stroke-opacity:1;stroke-miterlimit:4;" d="M 126.289492 21.976426 L 126.289492 5.459623 M 129.261853 21.976426 L 129.261853 5.459623 M 132.264101 21.976426 L 132.264101 5.459623 M 135.267593 21.976426 L 135.267593 5.459623 M 138.26984 21.976426 L 138.26984 5.459623 M 141.239712 21.976426 L 141.239712 5.459623 " transform="matrix(3.136973,0,0,3.139558,4.946553,321.800601)"/>
</g>
</g>
<g clip-path="url(#clip74)" clip-rule="nonzero">
<g clip-path="url(#clip75)" clip-rule="nonzero">
<path style=" stroke:none;fill-rule:nonzero;fill:rgb(0%,67.449951%,82.749939%);fill-opacity:1;" d="M 465.222656 396.015625 L 527.390625 396.015625 L 527.390625 333.800781 L 465.214844 333.800781 Z M 465.222656 396.015625 "/>
</g>
</g>
<g clip-path="url(#clip76)" clip-rule="nonzero">
<g clip-path="url(#clip77)" clip-rule="nonzero">
<path style=" stroke:none;fill-rule:nonzero;fill:rgb(12.548828%,76.078796%,93.728638%);fill-opacity:1;" d="M 465.222656 324.195312 L 527.390625 324.195312 L 527.390625 261.976562 L 465.214844 261.976562 Z M 465.222656 324.195312 "/>
</g>
</g>
<g clip-path="url(#clip78)" clip-rule="nonzero">
<g clip-path="url(#clip79)" clip-rule="nonzero">
<path style=" stroke:none;fill-rule:nonzero;fill:rgb(0%,0%,0%);fill-opacity:1;" d="M 472.84375 338.949219 L 472.84375 390.804688 M 482.167969 338.949219 L 482.167969 390.804688 M 491.585938 338.949219 L 491.585938 390.804688 M 501.003906 338.949219 L 501.003906 390.804688 M 510.425781 338.949219 L 510.425781 390.804688 M 519.742188 338.949219 L 519.742188 390.804688 "/>
</g>
</g>
<g clip-path="url(#clip80)" clip-rule="nonzero">
<g clip-path="url(#clip81)" clip-rule="nonzero">
<path style="fill:none;stroke-width:1.56;stroke-linecap:butt;stroke-linejoin:miter;stroke:rgb(22.349548%,30.198669%,32.939148%);stroke-opacity:1;stroke-miterlimit:4;" d="M 126.289632 21.976587 L 126.289632 5.459784 M 129.261994 21.976587 L 129.261994 5.459784 M 132.264241 21.976587 L 132.264241 5.459784 M 135.266489 21.976587 L 135.266489 5.459784 M 138.269981 21.976587 L 138.269981 5.459784 M 141.239853 21.976587 L 141.239853 5.459784 " transform="matrix(3.136973,0,0,-3.139558,76.67658,407.945999)"/>
</g>
</g>
<g clip-path="url(#clip82)" clip-rule="nonzero">
<g clip-path="url(#clip83)" clip-rule="nonzero">
<path style=" stroke:none;fill-rule:nonzero;fill:rgb(0%,0%,0%);fill-opacity:1;" d="M 472.84375 267.160156 L 472.84375 319.015625 M 482.167969 267.160156 L 482.167969 319.015625 M 491.585938 267.160156 L 491.585938 319.015625 M 501.003906 267.160156 L 501.003906 319.015625 M 510.425781 267.160156 L 510.425781 319.015625 M 519.742188 267.160156 L 519.742188 319.015625 "/>
</g>
</g>
<g clip-path="url(#clip84)" clip-rule="nonzero">
<g clip-path="url(#clip85)" clip-rule="nonzero">
<path style="fill:none;stroke-width:1.56;stroke-linecap:butt;stroke-linejoin:miter;stroke:rgb(22.349548%,30.198669%,32.939148%);stroke-opacity:1;stroke-miterlimit:4;" d="M 126.289632 21.976562 L 126.289632 5.459759 M 129.261994 21.976562 L 129.261994 5.459759 M 132.264241 21.976562 L 132.264241 5.459759 M 135.266489 21.976562 L 135.266489 5.459759 M 138.269981 21.976562 L 138.269981 5.459759 M 141.239853 21.976562 L 141.239853 5.459759 " transform="matrix(3.136973,0,0,-3.139558,76.67658,336.156857)"/>
</g>
</g>
<g clip-path="url(#clip86)" clip-rule="nonzero">
<g clip-path="url(#clip87)" clip-rule="nonzero">
<path style=" stroke:none;fill-rule:nonzero;fill:rgb(9.01947%,70.979309%,92.158508%);fill-opacity:1;" d="M 700.003906 348.953125 C 704.816406 311.542969 676.84375 282.15625 659.496094 268.207031 C 639.503906 291.339844 636.398438 351.964844 667.761719 377.488281 C 650.257812 393.046875 613.375 407.148438 575.609375 407.148438 L 111.589844 407.148438 C 107.917969 446.605469 111.589844 636.597656 111.589844 636.597656 L 792.3125 636.597656 L 789.214844 349.566406 C 759.726562 332.539062 721.820312 337.96875 699.988281 348.949219 "/>
</g>
</g>
<g clip-path="url(#clip88)" clip-rule="nonzero">
<g clip-path="url(#clip89)" clip-rule="nonzero">
<path style=" stroke:none;fill-rule:nonzero;fill:rgb(0%,0%,0%);fill-opacity:0.1686;" d="M 111.605469 457.644531 L 111.605469 636.597656 L 792.328125 636.597656 L 792.328125 457.644531 "/>
</g>
</g>
<g clip-path="url(#clip90)" clip-rule="nonzero">
<g clip-path="url(#clip91)" clip-rule="nonzero">
<path style=" stroke:none;fill-rule:nonzero;fill:rgb(83.139038%,92.939758%,94.509888%);fill-opacity:1;" d="M 353.902344 620.585938 C 311.429688 600.414062 288.113281 572.992188 275.144531 543.058594 L 146.109375 548.675781 L 211.988281 636.585938 L 353.894531 620.574219 "/>
</g>
</g>
<g clip-path="url(#clip92)" clip-rule="nonzero">
<g clip-path="url(#clip93)" clip-rule="nonzero">
<path style=" stroke:none;fill-rule:nonzero;fill:rgb(0%,0%,0%);fill-opacity:0.0863;" d="M 702.921875 347.5625 L 702.921875 347.65625 C 637.484375 432.113281 543.617188 505.828125 442.847656 544.570312 C 352.960938 579.132812 274.589844 579.292969 220.515625 551.539062 C 214.695312 548.25 208.984375 544.597656 203.261719 541.144531 C 163.621094 513.414062 141.296875 467.550781 143.171875 407.125 L 111.613281 407.125 L 111.613281 636.597656 L 792.335938 636.597656 L 792.335938 335.199219 L 713.910156 335.199219 Z M 702.921875 347.5625 "/>
</g>
</g>
<path style="fill:none;stroke-width:0.628;stroke-linecap:round;stroke-linejoin:miter;stroke:rgb(22.349548%,30.198669%,32.939148%);stroke-opacity:1;stroke-miterlimit:4;" d="M 11.496033 9.612971 C 14.112106 9.756108 16.902936 9.782989 19.338043 9.019055 " transform="matrix(16.987834,0,0,17.001833,-47.214585,382.210314)"/>
<path style=" stroke:none;fill-rule:nonzero;fill:rgb(83.139038%,92.939758%,94.509888%);fill-opacity:1;" d="M 325.449219 514.027344 C 325.445312 514.585938 325.417969 515.148438 325.363281 515.707031 C 325.308594 516.265625 325.226562 516.820312 325.117188 517.371094 C 325.003906 517.921875 324.867188 518.464844 324.707031 519.003906 C 324.542969 519.539062 324.351562 520.070312 324.136719 520.585938 C 323.921875 521.105469 323.683594 521.613281 323.417969 522.109375 C 323.152344 522.605469 322.867188 523.085938 322.554688 523.550781 C 322.242188 524.019531 321.90625 524.46875 321.550781 524.902344 C 321.195312 525.339844 320.820312 525.753906 320.421875 526.152344 C 320.023438 526.546875 319.609375 526.925781 319.175781 527.28125 C 318.742188 527.636719 318.292969 527.972656 317.824219 528.285156 C 317.359375 528.597656 316.878906 528.882812 316.382812 529.148438 C 315.886719 529.414062 315.382812 529.65625 314.863281 529.871094 C 314.34375 530.085938 313.816406 530.273438 313.28125 530.4375 C 312.742188 530.601562 312.199219 530.738281 311.648438 530.847656 C 311.097656 530.957031 310.542969 531.039062 309.984375 531.097656 C 309.429688 531.152344 308.867188 531.179688 308.308594 531.179688 C 307.746094 531.179688 307.183594 531.152344 306.625 531.097656 C 306.066406 531.042969 305.511719 530.960938 304.960938 530.851562 C 304.410156 530.742188 303.867188 530.605469 303.328125 530.441406 C 302.792969 530.277344 302.261719 530.089844 301.746094 529.875 C 301.226562 529.660156 300.71875 529.421875 300.222656 529.15625 C 299.726562 528.890625 299.246094 528.601562 298.78125 528.289062 C 298.3125 527.976562 297.863281 527.644531 297.429688 527.289062 C 296.992188 526.929688 296.578125 526.554688 296.179688 526.15625 C 295.785156 525.757812 295.40625 525.34375 295.050781 524.910156 C 294.691406 524.476562 294.359375 524.023438 294.046875 523.558594 C 293.734375 523.089844 293.445312 522.609375 293.179688 522.113281 C 292.914062 521.617188 292.675781 521.109375 292.460938 520.589844 C 292.246094 520.074219 292.054688 519.542969 291.890625 519.007812 C 291.726562 518.46875 291.589844 517.925781 291.480469 517.375 C 291.371094 516.820312 291.289062 516.265625 291.234375 515.707031 C 291.175781 515.148438 291.148438 514.585938 291.148438 514.027344 C 291.148438 513.464844 291.175781 512.902344 291.230469 512.34375 C 291.285156 511.78125 291.367188 511.226562 291.480469 510.675781 C 291.589844 510.125 291.726562 509.578125 291.886719 509.039062 C 292.050781 508.503906 292.238281 507.972656 292.457031 507.453125 C 292.671875 506.933594 292.910156 506.425781 293.175781 505.929688 C 293.441406 505.433594 293.726562 504.953125 294.039062 504.484375 C 294.351562 504.019531 294.6875 503.566406 295.042969 503.132812 C 295.398438 502.695312 295.777344 502.28125 296.175781 501.882812 C 296.570312 501.484375 296.988281 501.109375 297.421875 500.75 C 297.855469 500.394531 298.308594 500.058594 298.773438 499.746094 C 299.242188 499.433594 299.722656 499.144531 300.21875 498.882812 C 300.714844 498.617188 301.222656 498.375 301.742188 498.160156 C 302.261719 497.945312 302.789062 497.757812 303.328125 497.59375 C 303.863281 497.429688 304.410156 497.292969 304.960938 497.183594 C 305.511719 497.074219 306.066406 496.992188 306.625 496.9375 C 307.183594 496.882812 307.746094 496.855469 308.308594 496.855469 C 308.867188 496.855469 309.429688 496.882812 309.988281 496.9375 C 310.546875 496.992188 311.101562 497.078125 311.652344 497.1875 C 312.203125 497.296875 312.746094 497.433594 313.285156 497.597656 C 313.820312 497.761719 314.347656 497.949219 314.867188 498.164062 C 315.386719 498.382812 315.894531 498.621094 316.386719 498.886719 C 316.882812 499.152344 317.363281 499.441406 317.832031 499.753906 C 318.296875 500.066406 318.75 500.402344 319.183594 500.757812 C 319.617188 501.113281 320.03125 501.492188 320.429688 501.890625 C 320.824219 502.285156 321.203125 502.703125 321.558594 503.136719 C 321.914062 503.570312 322.246094 504.023438 322.558594 504.492188 C 322.871094 504.957031 323.160156 505.441406 323.425781 505.933594 C 323.6875 506.429688 323.929688 506.9375 324.144531 507.457031 C 324.359375 507.976562 324.546875 508.507812 324.710938 509.042969 C 324.871094 509.582031 325.007812 510.125 325.117188 510.675781 C 325.226562 511.230469 325.308594 511.785156 325.363281 512.34375 C 325.421875 512.902344 325.449219 513.464844 325.449219 514.027344 Z M 325.449219 514.027344 "/>
<path style=" stroke:none;fill-rule:nonzero;fill:rgb(22.349548%,30.198669%,32.939148%);fill-opacity:1;" d="M 312.925781 502.582031 C 311.433594 503.433594 310.414062 505.066406 310.414062 506.9375 C 310.414062 509.707031 312.65625 511.953125 315.425781 511.953125 C 317.328125 511.953125 318.824219 510.898438 319.839844 509.332031 C 320.460938 510.839844 320.773438 512.410156 320.777344 514.042969 C 320.777344 520.84375 315.273438 526.335938 308.492188 526.335938 C 301.714844 526.335938 296.210938 520.828125 296.210938 514.042969 C 296.210938 507.257812 301.714844 501.75 308.492188 501.75 C 310.03125 501.75 311.511719 502.027344 312.945312 502.582031 Z M 4.9375 461.269531 L 802.753906 461.269531 C 785.375 456.847656 747.800781 451.066406 754 428.117188 C 722.402344 464.703125 646.230469 453.617188 627.015625 435.730469 C 605.609375 466.8125 480.972656 454.996094 472.289062 430.632812 C 445.449219 462.152344 362.292969 462.152344 335.453125 430.632812 C 326.753906 454.84375 202.132812 466.675781 180.863281 435.730469 C 161.464844 453.617188 85.289062 464.71875 53.691406 428.117188 C 59.894531 450.898438 22.300781 457.019531 4.9375 461.269531 "/>
</g>
</svg>
