<?xml version="1.0" encoding="UTF-8"?>
<svg xmlns="http://www.w3.org/2000/svg" xmlns:xlink="http://www.w3.org/1999/xlink" width="810pt" height="809.999993pt" viewBox="0 0 810 809.999993" version="1.2">
<g id="surface1">
<path style=" stroke:none;fill-rule:nonzero;fill:rgb(100%,56.079102%,0%);fill-opacity:1;" d="M 113.105469 643.988281 L 391.246094 122.886719 C 397.105469 111.902344 412.953125 112.105469 418.519531 123.25 L 514.777344 315.609375 Z M 113.105469 643.988281 "/>
<path style=" stroke:none;fill-rule:nonzero;fill:rgb(100%,62.748718%,0%);fill-opacity:1;" d="M 113.105469 643.839844 L 214.363281 19.941406 C 217.011719 3.613281 238.957031 0.0742188 246.625 14.742188 L 441.746094 388.433594 Z M 113.105469 643.839844 "/>
<path style=" stroke:none;fill-rule:nonzero;fill:rgb(100%,43.528748%,0%);fill-opacity:1;" d="M 113.25 643.730469 L 116.902344 640.867188 L 436.945312 379.242188 L 346.675781 206.367188 Z M 113.25 643.730469 "/>
<path style=" stroke:none;fill-rule:nonzero;fill:rgb(100%,76.858521%,0%);fill-opacity:1;" d="M 113.105469 643.988281 L 599.96875 174.898438 C 610.171875 165.066406 627.207031 170.867188 629.289062 184.878906 L 697.355469 643.988281 L 423.488281 803.488281 C 412.367188 809.726562 398.804688 809.726562 387.683594 803.488281 Z M 113.105469 643.988281 "/>
</g>
</svg>
