<?xml version="1.0" encoding="UTF-8"?>
<svg xmlns="http://www.w3.org/2000/svg" xmlns:xlink="http://www.w3.org/1999/xlink" width="810pt" height="809.999993pt" viewBox="0 0 810 809.999993" version="1.2">
<g id="surface1">
<path style=" stroke:none;fill-rule:nonzero;fill:rgb(87.059021%,29.798889%,21.179199%);fill-opacity:1;" d="M 789.90625 369.34375 L 440.625 20.09375 C 420.53125 -0.03125 387.90625 -0.03125 367.78125 20.089844 L 295.234375 92.621094 L 387.25 184.628906 C 408.625 177.40625 433.15625 182.25 450.1875 199.296875 C 467.3125 216.449219 472.125 241.175781 464.71875 262.625 L 553.40625 351.3125 C 574.84375 343.90625 599.59375 348.6875 616.75 365.84375 C 640.6875 389.78125 640.6875 428.59375 616.75 452.53125 C 592.78125 476.5 554 476.5 530.03125 452.53125 C 512 434.5 507.5625 408.0625 516.6875 385.875 L 434 303.171875 L 433.96875 520.78125 C 439.8125 523.6875 445.3125 527.53125 450.1875 532.375 C 474.125 556.3125 474.125 595.125 450.1875 619.09375 C 426.25 643.03125 387.40625 643.03125 363.5 619.09375 C 339.5625 595.125 339.5625 556.3125 363.5 532.375 C 369.40625 526.46875 376.25 522 383.5625 519 L 383.5625 299.363281 C 376.25 296.378906 369.4375 291.9375 363.5 285.984375 C 345.34375 267.867188 341 241.246094 350.28125 218.96875 L 259.597656 128.257812 L 20.097656 367.75 C -0.03125 387.875 -0.03125 420.5 20.097656 440.625 L 369.378906 789.90625 C 389.503906 810 422.128906 810 442.253906 789.90625 L 789.910156 442.25 C 810.035156 422.125 810.035156 389.46875 789.910156 369.34375 "/>
</g>
</svg>
