<?xml version="1.0" encoding="UTF-8"?>
<svg xmlns="http://www.w3.org/2000/svg" xmlns:xlink="http://www.w3.org/1999/xlink" width="810pt" height="809.999993pt" viewBox="0 0 810 809.999993" version="1.2">
<defs>
<clipPath id="clip1">
  <path d="M 54.167969 503 L 181 503 L 181 630 L 54.167969 630 Z M 54.167969 503 "/>
</clipPath>
<clipPath id="clip2">
  <path d="M 630 503 L 756.167969 503 L 756.167969 630 L 630 630 Z M 630 503 "/>
</clipPath>
<clipPath id="clip3">
  <path d="M 54.167969 180 L 181 180 L 181 307 L 54.167969 307 Z M 54.167969 180 "/>
</clipPath>
<clipPath id="clip4">
  <path d="M 630 180 L 756.167969 180 L 756.167969 307 L 630 307 Z M 630 180 "/>
</clipPath>
</defs>
<g id="surface1">
<path style=" stroke:none;fill-rule:nonzero;fill:rgb(100%,25.099182%,50.588989%);fill-opacity:1;" d="M 405.339844 776.71875 L 90.1875 590.671875 L 90.1875 219.328125 L 405.339844 33.28125 L 720.492188 219.328125 L 720.492188 590.671875 Z M 126.203125 570.160156 L 405.339844 734.941406 L 684.472656 570.160156 L 684.472656 239.839844 L 405.339844 75.058594 L 126.203125 239.839844 Z M 126.203125 570.160156 "/>
<path style=" stroke:none;fill-rule:nonzero;fill:rgb(100%,25.099182%,50.588989%);fill-opacity:1;" d="M 468.371094 63.164062 C 468.371094 65.226562 468.269531 67.285156 468.066406 69.335938 C 467.863281 71.390625 467.5625 73.425781 467.15625 75.449219 C 466.753906 77.472656 466.253906 79.472656 465.65625 81.445312 C 465.054688 83.417969 464.359375 85.359375 463.570312 87.261719 C 462.78125 89.167969 461.898438 91.03125 460.925781 92.847656 C 459.953125 94.667969 458.894531 96.433594 457.746094 98.148438 C 456.601562 99.863281 455.371094 101.519531 454.0625 103.113281 C 452.753906 104.707031 451.367188 106.234375 449.90625 107.691406 C 448.449219 109.148438 446.921875 110.535156 445.324219 111.839844 C 443.730469 113.148438 442.074219 114.378906 440.355469 115.523438 C 438.640625 116.667969 436.871094 117.726562 435.050781 118.699219 C 433.230469 119.671875 431.367188 120.550781 429.460938 121.34375 C 427.550781 122.132812 425.609375 122.824219 423.636719 123.421875 C 421.660156 124.023438 419.660156 124.523438 417.636719 124.925781 C 415.609375 125.328125 413.570312 125.628906 411.515625 125.832031 C 409.460938 126.035156 407.402344 126.136719 405.339844 126.136719 C 403.273438 126.136719 401.214844 126.035156 399.160156 125.832031 C 397.105469 125.628906 395.066406 125.328125 393.042969 124.925781 C 391.015625 124.523438 389.015625 124.023438 387.042969 123.421875 C 385.066406 122.824219 383.125 122.132812 381.21875 121.34375 C 379.3125 120.550781 377.445312 119.671875 375.625 118.699219 C 373.804688 117.726562 372.039062 116.667969 370.320312 115.523438 C 368.605469 114.378906 366.949219 113.148438 365.351562 111.839844 C 363.757812 110.535156 362.230469 109.148438 360.769531 107.691406 C 359.308594 106.234375 357.925781 104.707031 356.617188 103.113281 C 355.304688 101.519531 354.078125 99.863281 352.929688 98.148438 C 351.785156 96.433594 350.722656 94.667969 349.75 92.847656 C 348.777344 91.03125 347.894531 89.167969 347.105469 87.261719 C 346.316406 85.359375 345.621094 83.417969 345.023438 81.445312 C 344.421875 79.472656 343.921875 77.472656 343.519531 75.449219 C 343.117188 73.425781 342.8125 71.390625 342.613281 69.335938 C 342.410156 67.285156 342.308594 65.226562 342.308594 63.164062 C 342.308594 61.101562 342.410156 59.046875 342.613281 56.992188 C 342.8125 54.941406 343.117188 52.902344 343.519531 50.878906 C 343.921875 48.859375 344.421875 46.859375 345.023438 44.886719 C 345.621094 42.914062 346.316406 40.972656 347.105469 39.066406 C 347.894531 37.164062 348.777344 35.300781 349.75 33.480469 C 350.722656 31.664062 351.785156 29.894531 352.929688 28.179688 C 354.078125 26.46875 355.304688 24.8125 356.617188 23.21875 C 357.925781 21.625 359.308594 20.097656 360.769531 18.640625 C 362.230469 17.179688 363.757812 15.796875 365.351562 14.488281 C 366.949219 13.179688 368.605469 11.953125 370.320312 10.808594 C 372.039062 9.664062 373.804688 8.605469 375.625 7.632812 C 377.445312 6.660156 379.3125 5.777344 381.21875 4.988281 C 383.125 4.199219 385.066406 3.507812 387.042969 2.90625 C 389.015625 2.308594 391.015625 1.808594 393.042969 1.40625 C 395.066406 1.003906 397.105469 0.703125 399.160156 0.5 C 401.214844 0.296875 403.273438 0.195312 405.339844 0.195312 C 407.402344 0.195312 409.460938 0.296875 411.515625 0.5 C 413.570312 0.703125 415.609375 1.003906 417.636719 1.40625 C 419.660156 1.808594 421.660156 2.308594 423.636719 2.90625 C 425.609375 3.507812 427.550781 4.199219 429.460938 4.988281 C 431.367188 5.777344 433.230469 6.660156 435.050781 7.632812 C 436.871094 8.605469 438.640625 9.664062 440.355469 10.808594 C 442.074219 11.953125 443.730469 13.179688 445.324219 14.488281 C 446.921875 15.796875 448.449219 17.179688 449.90625 18.640625 C 451.367188 20.097656 452.753906 21.625 454.0625 23.21875 C 455.371094 24.8125 456.601562 26.46875 457.746094 28.179688 C 458.894531 29.894531 459.953125 31.664062 460.925781 33.480469 C 461.898438 35.300781 462.78125 37.164062 463.570312 39.066406 C 464.359375 40.972656 465.054688 42.914062 465.65625 44.886719 C 466.253906 46.859375 466.753906 48.859375 467.15625 50.878906 C 467.5625 52.902344 467.863281 54.941406 468.066406 56.992188 C 468.269531 59.046875 468.371094 61.101562 468.371094 63.164062 Z M 468.371094 63.164062 "/>
<path style=" stroke:none;fill-rule:nonzero;fill:rgb(100%,25.099182%,50.588989%);fill-opacity:1;" d="M 468.371094 746.835938 C 468.371094 748.898438 468.269531 750.953125 468.066406 753.007812 C 467.863281 755.058594 467.5625 757.097656 467.15625 759.117188 C 466.753906 761.140625 466.253906 763.140625 465.65625 765.113281 C 465.054688 767.085938 464.359375 769.027344 463.570312 770.933594 C 462.78125 772.835938 461.898438 774.699219 460.925781 776.519531 C 459.953125 778.335938 458.894531 780.105469 457.746094 781.816406 C 456.601562 783.53125 455.371094 785.1875 454.0625 786.78125 C 452.753906 788.375 451.367188 789.902344 449.90625 791.359375 C 448.449219 792.820312 446.921875 794.203125 445.324219 795.511719 C 443.730469 796.820312 442.074219 798.046875 440.355469 799.191406 C 438.640625 800.335938 436.871094 801.394531 435.050781 802.367188 C 433.230469 803.339844 431.367188 804.222656 429.460938 805.011719 C 427.550781 805.800781 425.609375 806.492188 423.636719 807.09375 C 421.660156 807.691406 419.660156 808.191406 417.636719 808.59375 C 415.609375 808.996094 413.570312 809.296875 411.515625 809.5 C 409.460938 809.703125 407.402344 809.804688 405.339844 809.804688 C 403.273438 809.804688 401.214844 809.703125 399.160156 809.5 C 397.105469 809.296875 395.066406 808.996094 393.042969 808.59375 C 391.015625 808.191406 389.015625 807.691406 387.042969 807.09375 C 385.066406 806.492188 383.125 805.800781 381.21875 805.011719 C 379.3125 804.222656 377.445312 803.339844 375.625 802.367188 C 373.804688 801.394531 372.039062 800.335938 370.320312 799.191406 C 368.605469 798.046875 366.949219 796.820312 365.351562 795.511719 C 363.757812 794.203125 362.230469 792.820312 360.769531 791.359375 C 359.308594 789.902344 357.925781 788.375 356.617188 786.78125 C 355.304688 785.1875 354.078125 783.53125 352.929688 781.816406 C 351.785156 780.101562 350.722656 778.335938 349.75 776.519531 C 348.777344 774.699219 347.894531 772.835938 347.105469 770.933594 C 346.316406 769.027344 345.621094 767.085938 345.023438 765.113281 C 344.421875 763.140625 343.921875 761.140625 343.519531 759.117188 C 343.117188 757.097656 342.8125 755.058594 342.613281 753.007812 C 342.410156 750.953125 342.308594 748.898438 342.308594 746.835938 C 342.308594 744.773438 342.410156 742.714844 342.613281 740.664062 C 342.8125 738.609375 343.117188 736.574219 343.519531 734.550781 C 343.921875 732.527344 344.421875 730.527344 345.023438 728.554688 C 345.621094 726.582031 346.316406 724.640625 347.105469 722.738281 C 347.894531 720.832031 348.777344 718.96875 349.75 717.152344 C 350.722656 715.332031 351.785156 713.566406 352.929688 711.851562 C 354.078125 710.136719 355.304688 708.480469 356.617188 706.886719 C 357.925781 705.292969 359.308594 703.765625 360.769531 702.308594 C 362.230469 700.851562 363.757812 699.464844 365.351562 698.160156 C 366.949219 696.851562 368.605469 695.621094 370.320312 694.476562 C 372.039062 693.332031 373.804688 692.273438 375.625 691.300781 C 377.445312 690.328125 379.3125 689.449219 381.21875 688.65625 C 383.125 687.867188 385.066406 687.175781 387.042969 686.578125 C 389.015625 685.976562 391.015625 685.476562 393.042969 685.074219 C 395.066406 684.671875 397.105469 684.371094 399.160156 684.167969 C 401.214844 683.964844 403.273438 683.863281 405.339844 683.863281 C 407.402344 683.863281 409.460938 683.964844 411.515625 684.167969 C 413.570312 684.371094 415.609375 684.671875 417.636719 685.074219 C 419.660156 685.476562 421.660156 685.976562 423.636719 686.578125 C 425.609375 687.175781 427.550781 687.867188 429.460938 688.65625 C 431.367188 689.449219 433.230469 690.328125 435.050781 691.300781 C 436.871094 692.273438 438.640625 693.332031 440.355469 694.476562 C 442.074219 695.621094 443.730469 696.851562 445.324219 698.160156 C 446.921875 699.464844 448.449219 700.851562 449.90625 702.308594 C 451.367188 703.765625 452.753906 705.292969 454.0625 706.886719 C 455.371094 708.480469 456.601562 710.136719 457.746094 711.851562 C 458.894531 713.566406 459.953125 715.332031 460.925781 717.152344 C 461.898438 718.96875 462.78125 720.832031 463.570312 722.738281 C 464.359375 724.640625 465.054688 726.582031 465.65625 728.554688 C 466.253906 730.527344 466.753906 732.527344 467.15625 734.550781 C 467.5625 736.574219 467.863281 738.609375 468.066406 740.664062 C 468.269531 742.714844 468.371094 744.773438 468.371094 746.835938 Z M 468.371094 746.835938 "/>
<g clip-path="url(#clip1)" clip-rule="nonzero">
<path style=" stroke:none;fill-rule:nonzero;fill:rgb(100%,25.099182%,50.588989%);fill-opacity:1;" d="M 180.230469 566.921875 C 180.230469 568.984375 180.128906 571.042969 179.925781 573.09375 C 179.722656 575.144531 179.421875 577.183594 179.019531 579.207031 C 178.617188 581.230469 178.113281 583.226562 177.515625 585.199219 C 176.917969 587.175781 176.222656 589.113281 175.433594 591.019531 C 174.640625 592.925781 173.761719 594.785156 172.789062 596.605469 C 171.8125 598.425781 170.753906 600.191406 169.605469 601.90625 C 168.460938 603.621094 167.230469 605.273438 165.921875 606.867188 C 164.613281 608.464844 163.226562 609.988281 161.769531 611.449219 C 160.308594 612.90625 158.78125 614.289062 157.183594 615.597656 C 155.589844 616.90625 153.933594 618.132812 152.21875 619.277344 C 150.5 620.425781 148.730469 621.484375 146.910156 622.457031 C 145.089844 623.429688 143.226562 624.308594 141.320312 625.097656 C 139.414062 625.886719 137.472656 626.582031 135.496094 627.179688 C 133.519531 627.777344 131.519531 628.277344 129.496094 628.679688 C 127.472656 629.082031 125.433594 629.386719 123.378906 629.585938 C 121.324219 629.789062 119.261719 629.890625 117.199219 629.890625 C 115.136719 629.890625 113.074219 629.789062 111.019531 629.585938 C 108.96875 629.386719 106.925781 629.082031 104.902344 628.679688 C 102.878906 628.277344 100.878906 627.777344 98.902344 627.179688 C 96.925781 626.582031 94.984375 625.886719 93.078125 625.097656 C 91.171875 624.308594 89.308594 623.429688 87.488281 622.457031 C 85.667969 621.484375 83.898438 620.425781 82.179688 619.277344 C 80.464844 618.132812 78.808594 616.90625 77.214844 615.597656 C 75.617188 614.289062 74.089844 612.90625 72.628906 611.449219 C 71.171875 609.988281 69.785156 608.464844 68.476562 606.867188 C 67.167969 605.273438 65.9375 603.621094 64.792969 601.90625 C 63.644531 600.191406 62.585938 598.425781 61.609375 596.605469 C 60.636719 594.785156 59.757812 592.925781 58.964844 591.019531 C 58.175781 589.113281 57.480469 587.175781 56.882812 585.199219 C 56.285156 583.226562 55.78125 581.230469 55.378906 579.207031 C 54.976562 577.183594 54.675781 575.144531 54.472656 573.09375 C 54.269531 571.042969 54.167969 568.984375 54.167969 566.921875 C 54.167969 564.859375 54.269531 562.800781 54.472656 560.75 C 54.675781 558.695312 54.976562 556.660156 55.378906 554.636719 C 55.78125 552.613281 56.285156 550.617188 56.882812 548.640625 C 57.480469 546.667969 58.175781 544.730469 58.964844 542.824219 C 59.757812 540.917969 60.636719 539.058594 61.609375 537.238281 C 62.585938 535.417969 63.644531 533.652344 64.792969 531.9375 C 65.9375 530.222656 67.167969 528.566406 68.476562 526.972656 C 69.785156 525.378906 71.171875 523.855469 72.628906 522.394531 C 74.089844 520.9375 75.617188 519.554688 77.214844 518.246094 C 78.808594 516.9375 80.464844 515.710938 82.179688 514.5625 C 83.898438 513.417969 85.667969 512.359375 87.488281 511.386719 C 89.308594 510.414062 91.171875 509.535156 93.078125 508.746094 C 94.984375 507.957031 96.925781 507.261719 98.902344 506.664062 C 100.878906 506.066406 102.878906 505.5625 104.902344 505.160156 C 106.925781 504.757812 108.96875 504.457031 111.019531 504.253906 C 113.074219 504.054688 115.136719 503.953125 117.199219 503.953125 C 119.261719 503.953125 121.324219 504.054688 123.378906 504.253906 C 125.433594 504.457031 127.472656 504.757812 129.496094 505.160156 C 131.519531 505.5625 133.519531 506.066406 135.496094 506.664062 C 137.472656 507.261719 139.414062 507.957031 141.320312 508.746094 C 143.226562 509.535156 145.089844 510.414062 146.910156 511.386719 C 148.730469 512.359375 150.5 513.417969 152.21875 514.5625 C 153.933594 515.710938 155.589844 516.9375 157.183594 518.246094 C 158.78125 519.554688 160.308594 520.9375 161.769531 522.394531 C 163.226562 523.855469 164.613281 525.378906 165.921875 526.972656 C 167.230469 528.566406 168.460938 530.222656 169.605469 531.9375 C 170.753906 533.652344 171.8125 535.417969 172.789062 537.238281 C 173.761719 539.058594 174.640625 540.917969 175.433594 542.824219 C 176.222656 544.730469 176.917969 546.667969 177.515625 548.640625 C 178.113281 550.617188 178.617188 552.613281 179.019531 554.636719 C 179.421875 556.660156 179.722656 558.695312 179.925781 560.75 C 180.128906 562.800781 180.230469 564.859375 180.230469 566.921875 Z M 180.230469 566.921875 "/>
</g>
<g clip-path="url(#clip2)" clip-rule="nonzero">
<path style=" stroke:none;fill-rule:nonzero;fill:rgb(100%,25.099182%,50.588989%);fill-opacity:1;" d="M 756.507812 566.921875 C 756.507812 568.984375 756.40625 571.042969 756.207031 573.09375 C 756.003906 575.144531 755.699219 577.183594 755.296875 579.207031 C 754.894531 581.230469 754.394531 583.226562 753.792969 585.199219 C 753.195312 587.175781 752.5 589.113281 751.710938 591.019531 C 750.921875 592.925781 750.039062 594.785156 749.066406 596.605469 C 748.09375 598.425781 747.03125 600.191406 745.886719 601.90625 C 744.738281 603.621094 743.511719 605.273438 742.203125 606.867188 C 740.890625 608.464844 739.507812 609.988281 738.046875 611.449219 C 736.585938 612.90625 735.058594 614.289062 733.464844 615.597656 C 731.867188 616.90625 730.210938 618.132812 728.496094 619.277344 C 726.78125 620.425781 725.011719 621.484375 723.191406 622.457031 C 721.371094 623.429688 719.507812 624.308594 717.597656 625.097656 C 715.691406 625.886719 713.75 626.582031 711.773438 627.179688 C 709.800781 627.777344 707.800781 628.277344 705.773438 628.679688 C 703.75 629.082031 701.710938 629.386719 699.65625 629.585938 C 697.601562 629.789062 695.542969 629.890625 693.476562 629.890625 C 691.414062 629.890625 689.355469 629.789062 687.300781 629.585938 C 685.246094 629.386719 683.207031 629.082031 681.179688 628.679688 C 679.15625 628.277344 677.15625 627.777344 675.179688 627.179688 C 673.207031 626.582031 671.265625 625.886719 669.355469 625.097656 C 667.449219 624.308594 665.585938 623.429688 663.765625 622.457031 C 661.945312 621.484375 660.175781 620.425781 658.460938 619.277344 C 656.742188 618.132812 655.085938 616.90625 653.492188 615.597656 C 651.894531 614.289062 650.367188 612.90625 648.910156 611.449219 C 647.449219 609.988281 646.066406 608.464844 644.753906 606.867188 C 643.445312 605.273438 642.21875 603.621094 641.070312 601.90625 C 639.921875 600.191406 638.863281 598.425781 637.890625 596.605469 C 636.917969 594.785156 636.035156 592.925781 635.246094 591.019531 C 634.457031 589.113281 633.761719 587.175781 633.160156 585.199219 C 632.5625 583.226562 632.0625 581.230469 631.660156 579.207031 C 631.257812 577.183594 630.953125 575.144531 630.75 573.09375 C 630.550781 571.042969 630.449219 568.984375 630.449219 566.921875 C 630.449219 564.859375 630.550781 562.800781 630.75 560.75 C 630.953125 558.695312 631.257812 556.660156 631.660156 554.636719 C 632.0625 552.613281 632.5625 550.617188 633.160156 548.640625 C 633.761719 546.667969 634.457031 544.730469 635.246094 542.824219 C 636.035156 540.917969 636.917969 539.058594 637.890625 537.238281 C 638.863281 535.417969 639.921875 533.652344 641.070312 531.9375 C 642.21875 530.222656 643.445312 528.566406 644.753906 526.972656 C 646.066406 525.378906 647.449219 523.855469 648.910156 522.394531 C 650.367188 520.9375 651.894531 519.554688 653.492188 518.246094 C 655.085938 516.9375 656.742188 515.710938 658.460938 514.5625 C 660.175781 513.417969 661.945312 512.359375 663.765625 511.386719 C 665.585938 510.414062 667.449219 509.535156 669.355469 508.746094 C 671.265625 507.957031 673.207031 507.261719 675.179688 506.664062 C 677.15625 506.066406 679.15625 505.5625 681.179688 505.160156 C 683.207031 504.757812 685.246094 504.457031 687.300781 504.253906 C 689.355469 504.054688 691.414062 503.953125 693.476562 503.953125 C 695.542969 503.953125 697.601562 504.054688 699.65625 504.253906 C 701.710938 504.457031 703.75 504.757812 705.773438 505.160156 C 707.800781 505.5625 709.800781 506.066406 711.773438 506.664062 C 713.75 507.261719 715.691406 507.957031 717.597656 508.746094 C 719.507812 509.535156 721.371094 510.414062 723.191406 511.386719 C 725.011719 512.359375 726.78125 513.417969 728.496094 514.5625 C 730.210938 515.710938 731.867188 516.9375 733.464844 518.246094 C 735.058594 519.554688 736.585938 520.9375 738.046875 522.394531 C 739.507812 523.855469 740.890625 525.378906 742.203125 526.972656 C 743.511719 528.566406 744.738281 530.222656 745.886719 531.9375 C 747.03125 533.652344 748.09375 535.417969 749.066406 537.238281 C 750.039062 539.058594 750.921875 540.917969 751.710938 542.824219 C 752.5 544.730469 753.195312 546.667969 753.792969 548.640625 C 754.394531 550.617188 754.894531 552.613281 755.296875 554.636719 C 755.699219 556.660156 756.003906 558.695312 756.207031 560.75 C 756.40625 562.800781 756.507812 564.859375 756.507812 566.921875 Z M 756.507812 566.921875 "/>
</g>
<g clip-path="url(#clip3)" clip-rule="nonzero">
<path style=" stroke:none;fill-rule:nonzero;fill:rgb(100%,25.099182%,50.588989%);fill-opacity:1;" d="M 180.230469 243.078125 C 180.230469 245.140625 180.128906 247.199219 179.925781 249.25 C 179.722656 251.304688 179.421875 253.339844 179.019531 255.363281 C 178.617188 257.386719 178.113281 259.382812 177.515625 261.359375 C 176.917969 263.332031 176.222656 265.269531 175.433594 267.175781 C 174.640625 269.082031 173.761719 270.941406 172.789062 272.761719 C 171.8125 274.582031 170.753906 276.347656 169.605469 278.0625 C 168.460938 279.777344 167.230469 281.429688 165.921875 283.027344 C 164.613281 284.621094 163.226562 286.144531 161.769531 287.605469 C 160.308594 289.0625 158.78125 290.445312 157.183594 291.753906 C 155.589844 293.0625 153.933594 294.289062 152.21875 295.4375 C 150.5 296.582031 148.730469 297.640625 146.910156 298.613281 C 145.089844 299.585938 143.226562 300.464844 141.320312 301.253906 C 139.414062 302.042969 137.472656 302.738281 135.496094 303.335938 C 133.519531 303.933594 131.519531 304.4375 129.496094 304.839844 C 127.472656 305.242188 125.433594 305.542969 123.378906 305.746094 C 121.324219 305.945312 119.261719 306.046875 117.199219 306.046875 C 115.136719 306.046875 113.074219 305.945312 111.019531 305.746094 C 108.96875 305.542969 106.925781 305.242188 104.902344 304.839844 C 102.878906 304.4375 100.878906 303.933594 98.902344 303.335938 C 96.925781 302.738281 94.984375 302.042969 93.078125 301.253906 C 91.171875 300.464844 89.308594 299.585938 87.488281 298.613281 C 85.667969 297.640625 83.898438 296.582031 82.179688 295.4375 C 80.464844 294.289062 78.808594 293.0625 77.214844 291.753906 C 75.617188 290.445312 74.089844 289.0625 72.628906 287.605469 C 71.171875 286.144531 69.785156 284.621094 68.476562 283.027344 C 67.167969 281.429688 65.9375 279.777344 64.792969 278.0625 C 63.644531 276.347656 62.585938 274.582031 61.609375 272.761719 C 60.636719 270.941406 59.757812 269.082031 58.964844 267.175781 C 58.175781 265.269531 57.480469 263.332031 56.882812 261.359375 C 56.285156 259.382812 55.78125 257.386719 55.378906 255.363281 C 54.976562 253.339844 54.675781 251.304688 54.472656 249.25 C 54.269531 247.199219 54.167969 245.140625 54.167969 243.078125 C 54.167969 241.015625 54.269531 238.957031 54.472656 236.90625 C 54.675781 234.855469 54.976562 232.816406 55.378906 230.792969 C 55.78125 228.769531 56.285156 226.773438 56.882812 224.800781 C 57.480469 222.824219 58.175781 220.886719 58.964844 218.980469 C 59.757812 217.074219 60.636719 215.214844 61.609375 213.394531 C 62.585938 211.574219 63.644531 209.808594 64.792969 208.09375 C 65.9375 206.378906 67.167969 204.726562 68.476562 203.132812 C 69.785156 201.535156 71.171875 200.011719 72.628906 198.550781 C 74.089844 197.09375 75.617188 195.710938 77.214844 194.402344 C 78.808594 193.09375 80.464844 191.867188 82.179688 190.722656 C 83.898438 189.574219 85.667969 188.515625 87.488281 187.542969 C 89.308594 186.570312 91.171875 185.691406 93.078125 184.902344 C 94.984375 184.113281 96.925781 183.417969 98.902344 182.820312 C 100.878906 182.222656 102.878906 181.722656 104.902344 181.320312 C 106.925781 180.917969 108.96875 180.613281 111.019531 180.414062 C 113.074219 180.210938 115.136719 180.109375 117.199219 180.109375 C 119.261719 180.109375 121.324219 180.210938 123.378906 180.414062 C 125.433594 180.613281 127.472656 180.917969 129.496094 181.320312 C 131.519531 181.722656 133.519531 182.222656 135.496094 182.820312 C 137.472656 183.417969 139.414062 184.113281 141.320312 184.902344 C 143.226562 185.691406 145.089844 186.570312 146.910156 187.542969 C 148.730469 188.515625 150.5 189.574219 152.21875 190.722656 C 153.933594 191.867188 155.589844 193.09375 157.183594 194.402344 C 158.78125 195.710938 160.308594 197.09375 161.769531 198.550781 C 163.226562 200.011719 164.613281 201.535156 165.921875 203.132812 C 167.230469 204.726562 168.460938 206.378906 169.605469 208.09375 C 170.753906 209.808594 171.8125 211.574219 172.789062 213.394531 C 173.761719 215.214844 174.640625 217.074219 175.433594 218.980469 C 176.222656 220.886719 176.917969 222.824219 177.515625 224.800781 C 178.113281 226.773438 178.617188 228.769531 179.019531 230.792969 C 179.421875 232.816406 179.722656 234.855469 179.925781 236.90625 C 180.128906 238.957031 180.230469 241.015625 180.230469 243.078125 Z M 180.230469 243.078125 "/>
</g>
<g clip-path="url(#clip4)" clip-rule="nonzero">
<path style=" stroke:none;fill-rule:nonzero;fill:rgb(100%,25.099182%,50.588989%);fill-opacity:1;" d="M 756.507812 243.078125 C 756.507812 245.140625 756.40625 247.199219 756.207031 249.25 C 756.003906 251.304688 755.699219 253.339844 755.296875 255.363281 C 754.894531 257.386719 754.394531 259.382812 753.792969 261.359375 C 753.195312 263.332031 752.5 265.269531 751.710938 267.175781 C 750.921875 269.082031 750.039062 270.941406 749.066406 272.761719 C 748.09375 274.582031 747.03125 276.347656 745.886719 278.0625 C 744.738281 279.777344 743.511719 281.429688 742.203125 283.027344 C 740.890625 284.621094 739.507812 286.144531 738.046875 287.605469 C 736.585938 289.0625 735.058594 290.445312 733.464844 291.753906 C 731.867188 293.0625 730.210938 294.289062 728.496094 295.4375 C 726.78125 296.582031 725.011719 297.640625 723.191406 298.613281 C 721.371094 299.585938 719.507812 300.464844 717.597656 301.253906 C 715.691406 302.042969 713.75 302.738281 711.773438 303.335938 C 709.800781 303.933594 707.800781 304.4375 705.773438 304.839844 C 703.75 305.242188 701.710938 305.542969 699.65625 305.746094 C 697.601562 305.945312 695.542969 306.046875 693.476562 306.046875 C 691.414062 306.046875 689.355469 305.945312 687.300781 305.746094 C 685.246094 305.542969 683.207031 305.242188 681.179688 304.839844 C 679.15625 304.4375 677.15625 303.933594 675.179688 303.335938 C 673.207031 302.738281 671.265625 302.042969 669.355469 301.253906 C 667.449219 300.464844 665.585938 299.585938 663.765625 298.613281 C 661.945312 297.640625 660.175781 296.582031 658.460938 295.4375 C 656.742188 294.289062 655.085938 293.0625 653.492188 291.753906 C 651.894531 290.445312 650.367188 289.0625 648.910156 287.605469 C 647.449219 286.144531 646.066406 284.621094 644.753906 283.027344 C 643.445312 281.429688 642.21875 279.777344 641.070312 278.0625 C 639.921875 276.347656 638.863281 274.582031 637.890625 272.761719 C 636.917969 270.941406 636.035156 269.082031 635.246094 267.175781 C 634.457031 265.269531 633.761719 263.332031 633.160156 261.359375 C 632.5625 259.382812 632.0625 257.386719 631.660156 255.363281 C 631.257812 253.339844 630.953125 251.304688 630.75 249.25 C 630.550781 247.199219 630.449219 245.140625 630.449219 243.078125 C 630.449219 241.015625 630.550781 238.957031 630.75 236.90625 C 630.953125 234.855469 631.257812 232.816406 631.660156 230.792969 C 632.0625 228.769531 632.5625 226.773438 633.160156 224.800781 C 633.761719 222.824219 634.457031 220.886719 635.246094 218.980469 C 636.035156 217.074219 636.917969 215.214844 637.890625 213.394531 C 638.863281 211.574219 639.921875 209.808594 641.070312 208.09375 C 642.21875 206.378906 643.445312 204.726562 644.753906 203.132812 C 646.066406 201.535156 647.449219 200.011719 648.910156 198.550781 C 650.367188 197.09375 651.894531 195.710938 653.492188 194.402344 C 655.085938 193.09375 656.742188 191.867188 658.460938 190.722656 C 660.175781 189.574219 661.945312 188.515625 663.765625 187.542969 C 665.585938 186.570312 667.449219 185.691406 669.355469 184.902344 C 671.265625 184.113281 673.207031 183.417969 675.179688 182.820312 C 677.15625 182.222656 679.15625 181.722656 681.179688 181.320312 C 683.207031 180.917969 685.246094 180.613281 687.300781 180.414062 C 689.355469 180.210938 691.414062 180.109375 693.476562 180.109375 C 695.542969 180.109375 697.601562 180.210938 699.65625 180.414062 C 701.710938 180.613281 703.75 180.917969 705.773438 181.320312 C 707.800781 181.722656 709.800781 182.222656 711.773438 182.820312 C 713.75 183.417969 715.691406 184.113281 717.597656 184.902344 C 719.507812 185.691406 721.371094 186.570312 723.191406 187.542969 C 725.011719 188.515625 726.78125 189.574219 728.496094 190.722656 C 730.210938 191.867188 731.867188 193.09375 733.464844 194.402344 C 735.058594 195.710938 736.585938 197.09375 738.046875 198.550781 C 739.507812 200.011719 740.890625 201.535156 742.203125 203.132812 C 743.511719 204.726562 744.738281 206.378906 745.886719 208.09375 C 747.03125 209.808594 748.09375 211.574219 749.066406 213.394531 C 750.039062 215.214844 750.921875 217.074219 751.710938 218.980469 C 752.5 220.886719 753.195312 222.824219 753.792969 224.800781 C 754.394531 226.773438 754.894531 228.769531 755.296875 230.792969 C 755.699219 232.816406 756.003906 234.855469 756.207031 236.90625 C 756.40625 238.957031 756.507812 241.015625 756.507812 243.078125 Z M 756.507812 243.078125 "/>
</g>
<path style=" stroke:none;fill-rule:nonzero;fill:rgb(100%,25.099182%,50.588989%);fill-opacity:1;" d="M 733.457031 593.910156 L 77.21875 593.910156 L 405.339844 17.792969 Z M 139.167969 557.925781 L 671.507812 557.925781 L 405.339844 90.546875 Z M 139.167969 557.925781 "/>
</g>
</svg>
