<?xml version="1.0" encoding="UTF-8"?>
<svg xmlns="http://www.w3.org/2000/svg" xmlns:xlink="http://www.w3.org/1999/xlink" width="810pt" height="809.999993pt" viewBox="0 0 810 809.999993" version="1.2">
<g id="surface1">
<path style=" stroke:none;fill-rule:nonzero;fill:rgb(59.999084%,25.489807%,35.688782%);fill-opacity:1;" d="M 762.421875 398.085938 L 762.382812 398.121094 C 762.382812 434.992188 732.1875 464.984375 695.039062 464.984375 C 657.855469 464.871094 627.773438 434.917969 627.773438 398.007812 C 627.773438 376.804688 637.699219 357.929688 653.160156 345.664062 L 653.3125 345.550781 L 653.578125 345.28125 C 655.71875 343.675781 658.121094 342.070312 660.527344 340.503906 C 660.527344 340.503906 660.832031 340.503906 660.832031 340.238281 C 661.902344 339.703125 662.972656 338.902344 664.039062 338.328125 C 664.308594 338.328125 664.574219 338.097656 664.839844 338.097656 C 665.910156 337.5625 667.246094 337.027344 668.582031 336.492188 C 669.882812 335.957031 671.292969 335.460938 672.363281 334.925781 C 672.628906 334.925781 672.859375 334.660156 673.125 334.660156 C 674.195312 334.390625 675.265625 333.859375 676.371094 333.589844 C 676.636719 333.589844 677.132812 333.324219 677.441406 333.324219 C 678.738281 333.054688 679.84375 332.789062 681.179688 332.558594 L 681.449219 332.558594 L 685.457031 331.71875 C 685.722656 331.71875 686.222656 331.71875 686.527344 331.449219 C 687.59375 331.449219 688.664062 331.183594 689.734375 331.183594 L 691.03125 331.183594 C 692.367188 331.183594 693.742188 330.914062 695.308594 330.914062 L 698.78125 330.914062 C 699.851562 330.914062 700.691406 330.914062 701.757812 331.183594 L 702.292969 331.183594 C 704.429688 331.449219 706.570312 331.71875 708.707031 332.253906 C 739.554688 338.976562 762.347656 365.875 762.421875 398.085938 Z M 762.421875 398.085938 "/>
<path style=" stroke:none;fill-rule:nonzero;fill:rgb(59.999084%,25.489807%,35.688782%);fill-opacity:1;" d="M 344.6875 -0.382812 L 765.363281 -0.382812 L 668.8125 282.355469 C 664.804688 283.117188 660.796875 284.457031 656.785156 285.792969 L 555.199219 80.042969 L 453.265625 284.457031 C 449.257812 283.15625 444.941406 282.355469 440.667969 281.550781 Z M 344.6875 -0.382812 "/>
<path style=" stroke:none;fill-rule:nonzero;fill:rgb(59.999084%,25.489807%,35.688782%);fill-opacity:1;" d="M 351.101562 397.855469 C 351.101562 397.816406 351.101562 397.742188 351.101562 397.664062 C 351.101562 366.640625 372.480469 340.542969 401.421875 333.207031 L 401.878906 333.09375 L 401.878906 333.054688 C 403.175781 332.789062 404.285156 332.519531 405.621094 332.289062 L 406.382812 332.289062 C 407.492188 331.984375 408.519531 331.984375 409.628906 331.71875 L 410.699219 331.71875 C 411.765625 331.71875 412.566406 331.449219 413.636719 331.449219 L 424.058594 331.449219 C 425.128906 331.449219 425.929688 331.71875 426.769531 331.71875 C 427.304688 331.71875 427.535156 331.71875 428.105469 331.984375 C 429.136719 332.253906 429.9375 332.253906 431.046875 332.519531 C 431.3125 332.519531 431.582031 332.519531 432.113281 332.789062 L 435.855469 333.550781 L 436.125 333.550781 C 437.191406 333.859375 438.261719 334.125 439.328125 334.660156 C 439.597656 334.660156 439.863281 334.925781 440.398438 334.925781 C 441.199219 335.195312 442.269531 335.460938 443.109375 335.957031 C 443.375 335.957031 443.644531 336.226562 443.875 336.226562 C 444.941406 336.761719 446.011719 337.027344 447.117188 337.5625 L 447.386719 337.5625 C 448.683594 338.058594 449.828125 338.710938 450.898438 339.472656 L 450.859375 339.4375 L 451.125 339.4375 C 452.195312 339.96875 453.265625 340.734375 454.371094 341.269531 C 454.640625 341.269531 454.640625 341.539062 454.867188 341.539062 C 455.9375 342.070312 456.777344 342.875 457.847656 343.410156 L 458.113281 343.675781 C 461.320312 346.046875 464.257812 348.71875 467.199219 351.355469 L 467.464844 351.625 C 478.882812 363.582031 485.945312 379.746094 485.945312 397.585938 C 485.945312 397.664062 485.945312 397.742188 485.945312 397.855469 C 484.683594 433.847656 455.019531 462.539062 418.5625 462.539062 C 382.101562 462.539062 352.4375 433.847656 351.179688 397.96875 L 351.179688 397.855469 Z M 351.101562 397.855469 "/>
<path style=" stroke:none;fill-rule:nonzero;fill:rgb(59.999084%,25.489807%,35.688782%);fill-opacity:1;" d="M 206.105469 398.085938 C 206.105469 399.179688 206.078125 400.273438 206.027344 401.367188 C 205.972656 402.460938 205.890625 403.550781 205.78125 404.640625 C 205.675781 405.730469 205.539062 406.816406 205.378906 407.902344 C 205.214844 408.984375 205.027344 410.0625 204.8125 411.136719 C 204.597656 412.210938 204.355469 413.277344 204.085938 414.339844 C 203.820312 415.402344 203.527344 416.457031 203.207031 417.503906 C 202.886719 418.550781 202.539062 419.59375 202.167969 420.621094 C 201.796875 421.652344 201.398438 422.675781 200.976562 423.6875 C 200.554688 424.699219 200.109375 425.699219 199.636719 426.6875 C 199.164062 427.679688 198.671875 428.65625 198.148438 429.621094 C 197.628906 430.585938 197.085938 431.539062 196.519531 432.480469 C 195.953125 433.417969 195.363281 434.34375 194.75 435.253906 C 194.136719 436.164062 193.503906 437.058594 192.847656 437.9375 C 192.191406 438.816406 191.511719 439.679688 190.8125 440.527344 C 190.113281 441.371094 189.390625 442.203125 188.652344 443.011719 C 187.910156 443.824219 187.152344 444.617188 186.371094 445.390625 C 185.589844 446.164062 184.792969 446.917969 183.976562 447.65625 C 183.160156 448.390625 182.324219 449.105469 181.472656 449.800781 C 180.617188 450.496094 179.75 451.167969 178.863281 451.820312 C 177.976562 452.472656 177.078125 453.101562 176.160156 453.710938 C 175.242188 454.320312 174.3125 454.90625 173.367188 455.46875 C 172.421875 456.03125 171.460938 456.570312 170.488281 457.085938 C 169.515625 457.601562 168.53125 458.09375 167.535156 458.5625 C 166.539062 459.03125 165.527344 459.472656 164.511719 459.894531 C 163.492188 460.3125 162.464844 460.707031 161.425781 461.074219 C 160.386719 461.445312 159.339844 461.789062 158.285156 462.105469 C 157.230469 462.421875 156.167969 462.714844 155.097656 462.980469 C 154.027344 463.246094 152.953125 463.488281 151.871094 463.699219 C 150.789062 463.914062 149.703125 464.101562 148.613281 464.261719 C 147.519531 464.421875 146.425781 464.554688 145.328125 464.664062 C 144.230469 464.769531 143.132812 464.851562 142.03125 464.90625 C 140.929688 464.957031 139.828125 464.984375 138.722656 464.984375 C 137.621094 464.984375 136.519531 464.957031 135.417969 464.90625 C 134.316406 464.851562 133.21875 464.769531 132.121094 464.664062 C 131.023438 464.554688 129.929688 464.421875 128.835938 464.261719 C 127.746094 464.101562 126.660156 463.914062 125.578125 463.699219 C 124.496094 463.488281 123.421875 463.246094 122.351562 462.980469 C 121.28125 462.714844 120.21875 462.421875 119.164062 462.105469 C 118.109375 461.789062 117.0625 461.445312 116.023438 461.074219 C 114.984375 460.707031 113.957031 460.3125 112.9375 459.894531 C 111.917969 459.472656 110.910156 459.03125 109.914062 458.5625 C 108.917969 458.09375 107.933594 457.601562 106.960938 457.085938 C 105.988281 456.570312 105.027344 456.03125 104.082031 455.46875 C 103.136719 454.90625 102.207031 454.320312 101.289062 453.710938 C 100.371094 453.101562 99.46875 452.472656 98.585938 451.820312 C 97.699219 451.167969 96.828125 450.496094 95.976562 449.800781 C 95.125 449.105469 94.289062 448.390625 93.472656 447.65625 C 92.65625 446.917969 91.859375 446.164062 91.078125 445.390625 C 90.296875 444.617188 89.539062 443.824219 88.796875 443.011719 C 88.058594 442.203125 87.335938 441.371094 86.636719 440.527344 C 85.9375 439.679688 85.257812 438.816406 84.601562 437.9375 C 83.945312 437.058594 83.3125 436.164062 82.699219 435.253906 C 82.085938 434.34375 81.496094 433.417969 80.929688 432.480469 C 80.363281 431.539062 79.816406 430.585938 79.296875 429.621094 C 78.777344 428.65625 78.28125 427.679688 77.8125 426.6875 C 77.339844 425.699219 76.894531 424.699219 76.472656 423.6875 C 76.050781 422.675781 75.652344 421.652344 75.28125 420.621094 C 74.910156 419.59375 74.5625 418.550781 74.242188 417.503906 C 73.921875 416.457031 73.628906 415.402344 73.359375 414.339844 C 73.09375 413.277344 72.851562 412.210938 72.636719 411.136719 C 72.421875 410.0625 72.234375 408.984375 72.070312 407.902344 C 71.910156 406.816406 71.773438 405.730469 71.667969 404.640625 C 71.558594 403.550781 71.476562 402.460938 71.421875 401.367188 C 71.367188 400.273438 71.34375 399.179688 71.34375 398.085938 C 71.34375 396.988281 71.367188 395.894531 71.421875 394.800781 C 71.476562 393.707031 71.558594 392.617188 71.667969 391.527344 C 71.773438 390.4375 71.910156 389.351562 72.070312 388.269531 C 72.234375 387.183594 72.421875 386.105469 72.636719 385.03125 C 72.851562 383.957031 73.09375 382.890625 73.359375 381.828125 C 73.628906 380.765625 73.921875 379.710938 74.242188 378.664062 C 74.5625 377.617188 74.910156 376.578125 75.28125 375.546875 C 75.652344 374.515625 76.050781 373.492188 76.472656 372.480469 C 76.894531 371.472656 77.339844 370.46875 77.8125 369.480469 C 78.28125 368.492188 78.777344 367.511719 79.296875 366.546875 C 79.816406 365.582031 80.363281 364.628906 80.929688 363.691406 C 81.496094 362.75 82.085938 361.828125 82.699219 360.914062 C 83.3125 360.003906 83.945312 359.109375 84.601562 358.230469 C 85.257812 357.351562 85.9375 356.488281 86.636719 355.644531 C 87.335938 354.796875 88.058594 353.96875 88.796875 353.15625 C 89.539062 352.34375 90.296875 351.550781 91.078125 350.777344 C 91.859375 350.003906 92.65625 349.25 93.472656 348.515625 C 94.289062 347.777344 95.125 347.0625 95.976562 346.367188 C 96.828125 345.675781 97.699219 345 98.585938 344.347656 C 99.46875 343.695312 100.371094 343.066406 101.289062 342.457031 C 102.207031 341.851562 103.136719 341.265625 104.082031 340.699219 C 105.027344 340.136719 105.988281 339.597656 106.960938 339.082031 C 107.933594 338.566406 108.917969 338.074219 109.914062 337.605469 C 110.910156 337.136719 111.917969 336.695312 112.9375 336.277344 C 113.957031 335.855469 114.984375 335.460938 116.023438 335.09375 C 117.0625 334.726562 118.109375 334.382812 119.164062 334.0625 C 120.21875 333.746094 121.28125 333.453125 122.351562 333.1875 C 123.421875 332.921875 124.496094 332.683594 125.578125 332.46875 C 126.660156 332.253906 127.746094 332.066406 128.835938 331.90625 C 129.929688 331.746094 131.023438 331.613281 132.121094 331.503906 C 133.21875 331.398438 134.316406 331.316406 135.417969 331.261719 C 136.519531 331.210938 137.621094 331.183594 138.722656 331.183594 C 139.828125 331.183594 140.929688 331.210938 142.03125 331.261719 C 143.132812 331.316406 144.230469 331.398438 145.328125 331.503906 C 146.425781 331.613281 147.519531 331.746094 148.613281 331.90625 C 149.703125 332.066406 150.789062 332.253906 151.871094 332.46875 C 152.953125 332.683594 154.027344 332.921875 155.097656 333.1875 C 156.167969 333.453125 157.230469 333.746094 158.285156 334.0625 C 159.339844 334.382812 160.386719 334.726562 161.425781 335.09375 C 162.464844 335.460938 163.492188 335.855469 164.511719 336.277344 C 165.527344 336.695312 166.539062 337.136719 167.535156 337.605469 C 168.53125 338.074219 169.515625 338.566406 170.488281 339.082031 C 171.460938 339.597656 172.421875 340.136719 173.367188 340.699219 C 174.3125 341.265625 175.242188 341.851562 176.160156 342.457031 C 177.078125 343.066406 177.976562 343.695312 178.863281 344.347656 C 179.75 345 180.617188 345.675781 181.472656 346.367188 C 182.324219 347.0625 183.160156 347.777344 183.976562 348.515625 C 184.792969 349.25 185.589844 350.003906 186.371094 350.777344 C 187.152344 351.550781 187.910156 352.34375 188.652344 353.15625 C 189.390625 353.96875 190.113281 354.796875 190.8125 355.644531 C 191.511719 356.488281 192.191406 357.351562 192.847656 358.230469 C 193.503906 359.109375 194.136719 360.003906 194.75 360.914062 C 195.363281 361.828125 195.953125 362.75 196.519531 363.691406 C 197.085938 364.628906 197.628906 365.582031 198.148438 366.546875 C 198.671875 367.511719 199.164062 368.492188 199.636719 369.480469 C 200.109375 370.46875 200.554688 371.472656 200.976562 372.480469 C 201.398438 373.492188 201.796875 374.515625 202.167969 375.546875 C 202.539062 376.578125 202.886719 377.617188 203.207031 378.664062 C 203.527344 379.710938 203.820312 380.765625 204.085938 381.828125 C 204.355469 382.890625 204.597656 383.957031 204.8125 385.03125 C 205.027344 386.105469 205.214844 387.183594 205.378906 388.269531 C 205.539062 389.351562 205.675781 390.4375 205.78125 391.527344 C 205.890625 392.617188 205.972656 393.707031 206.027344 394.800781 C 206.078125 395.894531 206.105469 396.988281 206.105469 398.085938 Z M 206.105469 398.085938 "/>
<path style=" stroke:none;fill-rule:nonzero;fill:rgb(59.999084%,25.489807%,35.688782%);fill-opacity:1;" d="M 57.140625 626.679688 C 63.554688 587.898438 81.457031 551.5625 98.601562 516.757812 C 99.667969 514.65625 100.472656 512.785156 101.578125 510.644531 C 107.417969 512.785156 113.605469 514.386719 120.019531 515.457031 C 109.863281 571.738281 138.722656 629.851562 194.921875 658.546875 L 205.074219 663.855469 L 215.996094 659.882812 C 262.800781 643.414062 306.128906 616.59375 344.382812 580.753906 C 365.191406 561.460938 383.515625 539.949219 399.167969 516.527344 L 400.007812 515.191406 C 406.15625 516.222656 412.339844 516.488281 418.484375 516.488281 C 473.84375 516.375 520.339844 479.046875 534.046875 428.421875 L 534.238281 427.582031 L 579.132812 427.582031 C 592.953125 479.121094 639.570312 516.488281 694.925781 516.488281 L 694.964844 516.488281 C 717.144531 516.488281 737.683594 510.375 755.398438 500.058594 C 762.347656 519.929688 764.484375 540.675781 760.742188 561.382812 L 760.78125 561.382812 C 754.328125 596.535156 732.835938 625.6875 703.324219 642.574219 L 702.75 642.878906 C 673.585938 659.613281 637.734375 664.925781 600.015625 670.238281 C 574.898438 673.445312 553.441406 677.34375 532.40625 682.234375 L 536.910156 681.355469 C 481.285156 694.917969 427.839844 721.472656 375.957031 746.957031 C 309.605469 779.585938 247.03125 810.382812 189.003906 810.382812 C 188.734375 810.382812 188.429688 810.382812 188.125 810.382812 C 157.429688 810.382812 129.027344 800.5625 105.929688 783.980469 C 47.253906 743.632812 50.152344 668.058594 57.140625 626.679688 Z M 57.140625 626.679688 "/>
</g>
</svg>
