<?xml version="1.0" encoding="UTF-8"?>
<svg xmlns="http://www.w3.org/2000/svg" xmlns:xlink="http://www.w3.org/1999/xlink" width="810pt" height="809.999993pt" viewBox="0 0 810 809.999993" version="1.2">
<g id="surface1">
<rect x="0" y="0" width="810" height="809.999993" style="fill:rgb(100%,83.918762%,0%);fill-opacity:1;stroke:none;"/>
<path style=" stroke:none;fill-rule:nonzero;fill:rgb(0%,0%,0.389099%);fill-opacity:1;" d="M 529.605469 606.308594 C 545.175781 631.597656 562.09375 655.828125 597.9375 655.828125 C 628.042969 655.828125 643.835938 640.867188 643.835938 620.167969 C 643.835938 595.394531 627.503906 586.597656 594.382812 572.175781 L 576.226562 564.433594 C 523.824219 542.203125 488.96875 514.351562 488.96875 455.511719 C 488.96875 401.289062 530.484375 360.023438 595.351562 360.023438 C 641.542969 360.023438 674.730469 376.019531 698.671875 417.914062 L 642.105469 454.074219 C 629.664062 431.84375 616.207031 423.089844 595.351562 423.089844 C 574.066406 423.089844 560.585938 436.523438 560.585938 454.074219 C 560.585938 475.761719 574.085938 484.539062 605.25 497.96875 L 623.40625 505.710938 C 685.171875 532.011719 720 558.878906 720 619.265625 C 720 684.335938 668.609375 720 599.625 720 C 532.148438 720 493.828125 686.136719 472.5 644.21875 Z M 268.921875 608.152344 C 280.304688 628.539062 297.609375 644.21875 322.492188 644.21875 C 346.296875 644.21875 360 634.816406 360 598.253906 L 360 360 L 434.992188 360 L 434.992188 609.773438 C 434.992188 685.53125 391.050781 720 326.878906 720 C 268.898438 720 227.046875 680.714844 209.992188 644.21875 Z M 268.921875 608.152344 "/>
</g>
</svg>
