<?xml version="1.0" encoding="UTF-8"?>
<svg xmlns="http://www.w3.org/2000/svg" xmlns:xlink="http://www.w3.org/1999/xlink" width="810pt" height="809.999993pt" viewBox="0 0 810 809.999993" version="1.2">
<defs>
<clipPath id="clip1">
  <path d="M 2 13.253906 L 797 13.253906 L 797 786 L 2 786 Z M 2 13.253906 "/>
</clipPath>
</defs>
<g id="surface1">
<g clip-path="url(#clip1)" clip-rule="nonzero">
<path style=" stroke:none;fill-rule:nonzero;fill:rgb(19.60907%,42.349243%,89.7995%);fill-opacity:1;" d="M 397.105469 13.230469 C 389.929688 13.652344 383.121094 15.460938 376.679688 18.648438 L 100.070312 150.816406 C 85.625 157.703125 75.128906 170.804688 71.527344 186.417969 L 3.820312 483.046875 C 0.59375 496.96875 3.203125 511.5625 11.269531 523.496094 C 12.210938 524.9375 13.203125 526.332031 14.246094 527.675781 L 205.351562 765.703125 C 215.453125 778.132812 230.617188 785.269531 246.601562 785.195312 L 553.117188 785.195312 C 569.148438 785.21875 584.339844 777.734375 594.414062 765.480469 L 785.421875 527.402344 C 795.449219 514.96875 799.195312 498.5625 795.351562 482.996094 L 727.195312 186.121094 C 723.597656 170.507812 713.050781 157.40625 698.65625 150.519531 L 422.492188 18.675781 C 418.515625 16.710938 414.355469 15.265625 410.015625 14.34375 C 405.675781 13.421875 401.289062 13.050781 396.855469 13.230469 Z M 397.105469 13.230469 "/>
</g>
<path style="fill-rule:nonzero;fill:rgb(100%,100%,100%);fill-opacity:1;stroke-width:0.055;stroke-linecap:butt;stroke-linejoin:miter;stroke:rgb(100%,100%,100%);stroke-opacity:1;stroke-miterlimit:4;" d="M 16.002045 4.542054 C 15.618015 4.568922 15.327001 4.897926 15.34699 5.282078 L 15.34699 5.469991 C 15.364932 5.683042 15.39704 5.894051 15.439063 6.103017 C 15.500445 6.504138 15.522479 6.907459 15.505009 7.312979 C 15.467078 7.446058 15.391059 7.565938 15.287025 7.658009 L 15.272073 7.940035 C 14.866952 7.973973 14.464979 8.036034 14.068987 8.126062 C 12.40302 8.502045 10.885943 9.366034 9.714965 10.611033 L 9.474946 10.441032 C 9.343054 10.48094 9.200931 10.466014 9.080056 10.400967 C 8.754574 10.160263 8.455692 9.890178 8.182936 9.591026 C 8.046322 9.427624 7.900579 9.272549 7.746023 9.125958 L 7.598077 9.007963 C 7.466027 8.902066 7.304073 8.840947 7.135037 8.832934 C 7.084515 8.830263 7.034465 8.833563 6.984887 8.842675 C 6.935152 8.851945 6.887306 8.866714 6.841191 8.887297 C 6.795075 8.907722 6.751951 8.933332 6.711816 8.964127 C 6.671682 8.994765 6.635797 9.029802 6.604005 9.068925 C 6.377993 9.385988 6.451966 9.824974 6.768004 10.052009 L 6.906035 10.161991 C 7.083728 10.280301 7.267716 10.387926 7.458 10.485025 C 7.811969 10.68205 8.145949 10.913013 8.456007 11.184983 C 8.536905 11.300308 8.581289 11.428358 8.589001 11.568979 L 8.806985 11.768989 C 7.630027 13.53499 7.146998 15.673988 7.449029 17.774964 L 7.169033 17.854937 C 7.096004 17.971046 6.999052 18.070031 6.883056 18.142933 C 6.491471 18.247573 6.093433 18.313248 5.688942 18.339958 C 5.474735 18.344358 5.261315 18.361012 5.048997 18.389922 L 4.871933 18.429987 L 4.851945 18.429987 C 4.790563 18.438471 4.731542 18.455283 4.674724 18.480107 C 4.617907 18.505089 4.565653 18.537298 4.517807 18.576735 C 4.469961 18.616171 4.42841 18.661421 4.393155 18.712484 C 4.357899 18.76339 4.330199 18.818224 4.310053 18.876829 C 4.290064 18.935591 4.278418 18.995924 4.275112 19.057828 C 4.271807 19.119733 4.276844 19.180851 4.290537 19.241342 C 4.30423 19.301832 4.325949 19.359337 4.355539 19.413857 C 4.385128 19.468219 4.421642 19.517711 4.464924 19.562019 C 4.508678 19.606169 4.557627 19.643405 4.611769 19.673886 C 4.665911 19.704367 4.7232 19.726992 4.783638 19.741447 C 4.843918 19.756059 4.9053 19.762186 4.967311 19.759672 C 5.029323 19.757159 5.089918 19.746317 5.148939 19.726992 L 5.162002 19.726992 L 5.342056 19.707038 C 5.544931 19.647019 5.744973 19.573017 5.939978 19.488959 C 6.315037 19.339069 6.703947 19.224059 7.101985 19.148957 C 7.240015 19.15697 7.372065 19.203948 7.483969 19.283921 L 7.783953 19.233957 C 8.433972 21.251032 9.799955 22.959999 11.623942 24.03704 L 11.501965 24.292042 C 11.557996 24.408937 11.578929 24.53903 11.56193 24.668024 C 11.396986 25.049977 11.195056 25.41606 10.958971 25.759991 C 10.82944 25.930777 10.710139 26.108477 10.601068 26.292933 L 10.516077 26.47299 C 10.485229 26.526567 10.462093 26.583129 10.446983 26.642991 C 10.431874 26.702853 10.425106 26.763657 10.42668 26.825405 C 10.428254 26.887152 10.438327 26.947485 10.456584 27.006404 C 10.474999 27.065323 10.500968 27.120786 10.534492 27.172477 C 10.568173 27.224326 10.60815 27.270519 10.65458 27.311212 C 10.70101 27.351905 10.752004 27.385686 10.80772 27.412239 C 10.863436 27.438791 10.921827 27.457331 10.98258 27.467858 C 11.04349 27.478385 11.104557 27.480428 11.165939 27.473986 C 11.227478 27.467073 11.286971 27.451989 11.344418 27.428579 C 11.401708 27.405168 11.454748 27.374373 11.503539 27.336194 C 11.55233 27.298014 11.59514 27.254021 11.631654 27.204058 C 11.668326 27.154094 11.697443 27.100046 11.719005 27.04207 L 11.801949 26.872069 C 11.877969 26.672058 11.942026 26.467962 11.993965 26.261981 C 12.171028 25.825037 12.267035 25.356042 12.508943 25.066003 C 12.589999 24.989958 12.685219 24.943294 12.795077 24.926011 L 12.945069 24.652941 C 13.189652 24.747054 13.438013 24.829698 13.689994 24.901029 C 13.942132 24.972361 14.196945 25.032222 14.454592 25.0803 C 14.712238 25.128378 14.971459 25.164672 15.232253 25.189183 C 15.493205 25.213693 15.754629 25.226262 16.016682 25.226891 C 16.278578 25.227519 16.54016 25.216207 16.801111 25.192954 C 17.06222 25.169857 17.321598 25.13482 17.579402 25.087842 C 17.837206 25.041021 18.092335 24.982573 18.344787 24.912342 C 18.59724 24.842267 18.845915 24.76088 19.090971 24.668024 L 19.223965 24.923026 C 19.359949 24.94298 19.481926 25.017925 19.563926 25.128064 C 19.752007 25.485978 19.904045 25.861017 20.020041 26.247998 C 20.072924 26.455393 20.137611 26.659017 20.213945 26.859028 L 20.297046 27.029029 C 20.318766 27.086848 20.348041 27.140582 20.38487 27.190389 C 20.421541 27.240038 20.464351 27.283874 20.513142 27.321739 C 20.561933 27.359604 20.614973 27.390242 20.672263 27.413338 C 20.729553 27.436592 20.788888 27.451518 20.85027 27.458431 C 20.91181 27.465187 20.973034 27.463459 21.033944 27.453246 C 21.094854 27.443191 21.153403 27.424965 21.209276 27.398569 C 21.265149 27.372174 21.316458 27.338865 21.363203 27.298328 C 21.40979 27.257792 21.450082 27.211599 21.484078 27.160065 C 21.517602 27.108059 21.543414 27.052439 21.561671 26.993363 C 21.579771 26.93413 21.589686 26.87364 21.591103 26.811735 C 21.592362 26.749831 21.585437 26.689027 21.570012 26.629008 C 21.554431 26.569146 21.531137 26.512427 21.499974 26.459007 L 21.412938 26.27895 C 21.303867 26.095122 21.184566 25.918051 21.055034 25.74805 C 20.824931 25.41606 20.626935 25.062075 20.455065 24.690963 C 20.438854 24.62246 20.436651 24.553485 20.448455 24.484039 C 20.460102 24.41475 20.485127 24.350332 20.523058 24.290942 C 20.480248 24.203742 20.443261 24.114027 20.411941 24.021957 C 22.231993 22.93706 23.591995 21.221965 24.234931 19.202062 L 24.519019 19.252026 C 24.621007 19.159012 24.754946 19.109991 24.892032 19.114076 C 25.288968 19.189964 25.678035 19.31393 26.054039 19.453922 C 26.249044 19.54395 26.448929 19.619995 26.651961 19.683942 C 26.699965 19.696982 26.770003 19.707981 26.823988 19.721021 L 26.837051 19.721021 C 26.896072 19.740033 26.95651 19.750717 27.018521 19.752916 C 27.080533 19.755273 27.1416 19.748988 27.20188 19.734376 C 27.262003 19.719607 27.319135 19.696982 27.37312 19.666345 C 27.427104 19.635864 27.475895 19.59847 27.519492 19.55432 C 27.563089 19.510327 27.599761 19.460992 27.629665 19.406786 C 27.659726 19.352424 27.681603 19.295076 27.695611 19.234586 C 27.709619 19.174252 27.715127 19.112977 27.712137 19.051072 C 27.709146 18.989168 27.697814 18.928835 27.677983 18.870073 C 27.657837 18.811311 27.629979 18.756477 27.594567 18.705414 C 27.558997 18.654351 27.517289 18.609258 27.469285 18.569821 C 27.421281 18.530542 27.368713 18.498333 27.311738 18.473665 C 27.254763 18.448841 27.195584 18.432344 27.134045 18.424016 L 26.939984 18.377981 C 26.727666 18.349071 26.514245 18.332417 26.300038 18.328017 C 25.89602 18.301936 25.495936 18.235947 25.106082 18.130992 C 24.985994 18.06406 24.886051 17.963976 24.818059 17.842996 L 24.547979 17.763023 C 24.583549 17.50315 24.607315 17.242335 24.619276 16.98042 C 24.63108 16.718506 24.63108 16.456591 24.619276 16.194519 C 24.607315 15.932604 24.583549 15.671789 24.547821 15.412073 C 24.512094 15.152201 24.464877 14.894685 24.405699 14.639212 C 24.346678 14.383739 24.27601 14.131408 24.19401 13.882377 C 24.11201 13.633346 24.018835 13.388557 23.914643 13.147853 C 23.810294 12.907306 23.695243 12.671944 23.569646 12.441767 C 23.443892 12.211746 23.308064 11.987697 23.162007 11.769932 L 23.397934 11.55201 C 23.388018 11.415003 23.433032 11.27894 23.521957 11.173985 C 23.829024 10.910028 24.16206 10.677022 24.511937 10.477955 C 24.70222 10.380856 24.886209 10.27323 25.064059 10.155078 L 25.209959 10.036926 C 25.263786 10.003617 25.31179 9.963552 25.354128 9.916574 C 25.396623 9.869596 25.431563 9.81759 25.459264 9.760713 C 25.486964 9.703837 25.506166 9.644132 25.516868 9.581913 C 25.527728 9.519538 25.529617 9.457005 25.522692 9.394001 C 25.515609 9.331154 25.500028 9.270506 25.475947 9.212059 C 25.451866 9.153611 25.420074 9.099563 25.380569 9.050071 C 25.341222 9.000736 25.295579 8.957685 25.244112 8.921077 C 25.192489 8.884469 25.136773 8.855873 25.076965 8.834977 C 25.017314 8.814237 24.955932 8.802139 24.892819 8.798682 C 24.829706 8.795383 24.76738 8.800725 24.705683 8.815023 C 24.644144 8.82932 24.585752 8.851788 24.530508 8.882583 C 24.475422 8.913221 24.42553 8.951086 24.380988 8.996022 L 24.233042 9.114017 C 24.078486 9.260608 23.932743 9.415683 23.795972 9.578928 C 23.53203 9.881065 23.240072 10.156021 22.922932 10.402067 C 22.792457 10.455173 22.657889 10.469784 22.519071 10.44606 L 22.265989 10.625959 C 20.806044 9.095949 18.83899 8.146016 16.731073 7.956061 C 16.731073 7.855977 16.71801 7.70593 16.715964 7.658952 C 16.602958 7.581022 16.523948 7.461927 16.497979 7.326963 C 16.484129 6.922228 16.509469 6.51985 16.573998 6.119986 C 16.616966 5.910077 16.647027 5.700011 16.666071 5.486959 L 16.666071 5.286949 C 16.68606 4.902953 16.395991 4.573949 16.011016 4.546925 Z M 15.168038 9.708079 L 14.967996 13.200958 L 14.953044 13.200958 C 14.942971 13.416995 14.815958 13.60098 14.620952 13.704991 C 14.425947 13.809003 14.195056 13.778051 14.020984 13.650943 L 11.156023 11.620985 C 11.382821 11.398192 11.624099 11.192054 11.879542 11.002884 C 12.135143 10.813558 12.402548 10.642771 12.681757 10.490681 C 12.961123 10.338591 13.24946 10.206613 13.547084 10.094588 C 13.844707 9.982563 14.148784 9.891749 14.458999 9.821989 C 14.693037 9.772026 14.928964 9.734003 15.165992 9.708079 Z M 16.836052 9.708079 C 18.34101 9.895049 19.741934 10.570968 20.826032 11.631983 L 17.987985 13.649058 C 17.812968 13.789049 17.572949 13.817016 17.370074 13.721017 C 17.167042 13.625019 17.037038 13.420923 17.034048 13.19703 Z M 10.115993 12.934958 L 12.736056 15.273024 L 12.736056 15.28795 C 12.898954 15.429985 12.969937 15.651049 12.921933 15.862058 C 12.873929 16.073067 12.711975 16.239926 12.505008 16.296959 L 12.505008 16.307015 L 9.143012 17.274073 C 9.122394 17.086318 9.109488 16.898091 9.104451 16.709236 C 9.099415 16.520537 9.10209 16.331839 9.112635 16.143298 C 9.123181 15.954757 9.141438 15.766845 9.167407 15.579875 C 9.193376 15.392748 9.227058 15.207192 9.268451 15.022893 C 9.309844 14.838594 9.358793 14.656338 9.415138 14.476124 C 9.471483 14.29591 9.535226 14.118368 9.606366 13.943339 C 9.677349 13.76831 9.755571 13.59658 9.840877 13.42815 C 9.926024 13.259563 10.018097 13.094904 10.116938 12.934016 Z M 21.869052 12.934958 C 22.664971 14.230078 23.017051 15.748933 22.870994 17.261975 L 19.503961 16.291931 L 19.503961 16.279048 C 19.294003 16.222014 19.133938 16.054998 19.087036 15.843989 C 19.039977 15.632981 19.110015 15.413959 19.27307 15.270039 L 21.872987 12.942971 Z M 15.465032 15.454966 L 16.537012 15.454966 L 17.192067 16.287061 L 16.953937 17.327022 L 15.991028 17.790047 L 15.026073 17.327022 L 14.79896 16.287061 Z M 18.898956 18.29298 C 18.943969 18.287953 18.999055 18.287953 19.033996 18.29298 L 22.500971 18.877929 C 22.000945 20.318068 21.013955 21.547984 19.726037 22.370966 L 18.386023 19.12696 C 18.376895 19.105278 18.369025 19.083124 18.362415 19.060499 C 18.355962 19.037874 18.350768 19.014935 18.346991 18.991839 C 18.343213 18.968586 18.340853 18.945175 18.339908 18.921608 C 18.338807 18.89804 18.339279 18.874629 18.341167 18.851062 C 18.342899 18.827651 18.346204 18.804398 18.350768 18.781302 C 18.355332 18.758205 18.361313 18.735423 18.368711 18.713113 C 18.376108 18.690802 18.384764 18.668963 18.39468 18.647595 C 18.404595 18.626227 18.41577 18.605487 18.428204 18.585533 C 18.440638 18.565579 18.454173 18.546411 18.468968 18.528028 C 18.483605 18.509645 18.499501 18.492205 18.516184 18.475708 C 18.533025 18.459211 18.55081 18.443813 18.569382 18.429515 C 18.588111 18.415061 18.60747 18.401863 18.627774 18.389922 C 18.648077 18.377824 18.668852 18.36714 18.690415 18.357556 C 18.711977 18.347971 18.734011 18.339801 18.756518 18.332888 C 18.779025 18.325975 18.801846 18.320476 18.824983 18.316234 C 18.848119 18.312149 18.87157 18.309321 18.895021 18.308064 Z M 13.076017 18.308064 C 13.271967 18.311049 13.452965 18.412075 13.55999 18.575949 C 13.667015 18.73998 13.684013 18.945961 13.607049 19.126017 L 13.607049 19.139058 L 12.275062 22.356982 C 11.00005 21.539971 10.031947 20.324981 9.516969 18.899925 L 12.95404 18.317019 C 12.991971 18.312934 13.031004 18.312934 13.070036 18.317019 Z M 15.98001 19.707981 C 16.034625 19.706252 16.088452 19.712066 16.141492 19.725264 C 16.194532 19.738462 16.24474 19.75873 16.292114 19.785911 C 16.339488 19.813092 16.382298 19.846244 16.420544 19.885366 C 16.458789 19.924489 16.490897 19.96801 16.517023 20.015931 L 16.529929 20.015931 L 18.22407 23.072967 L 17.54698 23.272977 C 16.300928 23.557989 14.999946 23.491056 13.788992 23.078937 L 15.488955 20.022059 C 15.592045 19.842002 15.782014 19.73202 15.988982 19.726992 Z M 15.98001 19.707981 " transform="matrix(24.819004,0,0,24.861962,2.481904,1.395925)"/>
</g>
</svg>
