<?xml version="1.0" encoding="UTF-8"?>
<svg xmlns="http://www.w3.org/2000/svg" xmlns:xlink="http://www.w3.org/1999/xlink" width="810pt" height="809.999993pt" viewBox="0 0 810 809.999993" version="1.2">
<defs>
<clipPath id="clip1">
  <path d="M 323 89.605469 L 432 89.605469 L 432 199 L 323 199 Z M 323 89.605469 "/>
</clipPath>
<clipPath id="clip2">
  <path d="M 326 611 L 435 611 L 435 720.320312 L 326 720.320312 Z M 326 611 "/>
</clipPath>
</defs>
<g id="surface1">
<path style=" stroke:none;fill-rule:nonzero;fill:rgb(32.939148%,78.039551%,89.019775%);fill-opacity:1;" d="M 570.792969 229.089844 L 485.636719 229.089844 C 480.398438 229.089844 476.144531 224.847656 476.144531 219.601562 L 476.144531 153.484375 L 431.464844 153.484375 L 431.464844 134.507812 L 485.636719 134.507812 C 490.878906 134.507812 495.125 138.757812 495.125 143.996094 L 495.125 210.113281 L 570.792969 210.113281 L 570.792969 229.089844 "/>
<g clip-path="url(#clip1)" clip-rule="nonzero">
<path style=" stroke:none;fill-rule:nonzero;fill:rgb(32.939148%,78.039551%,89.019775%);fill-opacity:1;" d="M 377.347656 108.644531 C 357.855469 108.644531 341.992188 124.503906 341.992188 143.996094 C 341.992188 163.492188 357.855469 179.347656 377.347656 179.347656 C 396.84375 179.347656 412.703125 163.492188 412.703125 143.996094 C 412.703125 124.503906 396.84375 108.644531 377.347656 108.644531 Z M 377.347656 198.324219 C 347.390625 198.324219 323.011719 173.957031 323.011719 143.996094 C 323.011719 114.039062 347.390625 89.664062 377.347656 89.664062 C 407.3125 89.664062 431.683594 114.039062 431.683594 143.996094 C 431.683594 173.957031 407.3125 198.324219 377.347656 198.324219 "/>
</g>
<path style=" stroke:none;fill-rule:nonzero;fill:rgb(32.939148%,78.039551%,89.019775%);fill-opacity:1;" d="M 216.261719 231.679688 C 196.761719 231.679688 180.90625 247.539062 180.90625 267.035156 C 180.90625 286.527344 196.761719 302.386719 216.261719 302.386719 C 235.757812 302.386719 251.617188 286.527344 251.617188 267.035156 C 251.617188 247.539062 235.757812 231.679688 216.261719 231.679688 Z M 216.261719 321.363281 C 186.296875 321.363281 161.925781 296.988281 161.925781 267.035156 C 161.925781 237.074219 186.296875 212.703125 216.261719 212.703125 C 246.21875 212.703125 270.597656 237.074219 270.597656 267.035156 C 270.597656 296.988281 246.21875 321.363281 216.261719 321.363281 "/>
<path style=" stroke:none;fill-rule:nonzero;fill:rgb(32.939148%,78.039551%,89.019775%);fill-opacity:1;" d="M 54.53125 368.058594 C 35.03125 368.058594 19.175781 383.917969 19.175781 403.410156 C 19.175781 422.902344 35.03125 438.761719 54.53125 438.761719 C 74.027344 438.761719 89.886719 422.902344 89.886719 403.410156 C 89.886719 383.917969 74.027344 368.058594 54.53125 368.058594 Z M 54.53125 457.742188 C 24.570312 457.742188 0.195312 433.367188 0.195312 403.410156 C 0.195312 373.449219 24.570312 349.082031 54.53125 349.082031 C 84.492188 349.082031 108.867188 373.449219 108.867188 403.410156 C 108.867188 433.367188 84.492188 457.742188 54.53125 457.742188 "/>
<path style=" stroke:none;fill-rule:nonzero;fill:rgb(32.939148%,78.039551%,89.019775%);fill-opacity:1;" d="M 571.566406 320.992188 L 416.09375 320.992188 C 410.851562 320.992188 406.605469 316.742188 406.605469 311.503906 L 406.605469 276.523438 L 261.109375 276.523438 L 261.109375 257.542969 L 416.09375 257.542969 C 421.335938 257.542969 425.585938 261.792969 425.585938 267.035156 L 425.585938 302.015625 L 571.566406 302.015625 L 571.566406 320.992188 "/>
<path style=" stroke:none;fill-rule:nonzero;fill:rgb(32.939148%,78.039551%,89.019775%);fill-opacity:1;" d="M 488.875 675.542969 L 434.695312 675.542969 L 434.695312 656.566406 L 479.382812 656.566406 L 479.382812 590.453125 C 479.382812 585.207031 483.628906 580.960938 488.875 580.960938 L 574.023438 580.960938 L 574.023438 599.941406 L 498.363281 599.941406 L 498.363281 666.054688 C 498.363281 671.296875 494.113281 675.542969 488.875 675.542969 "/>
<g clip-path="url(#clip2)" clip-rule="nonzero">
<path style=" stroke:none;fill-rule:nonzero;fill:rgb(32.939148%,78.039551%,89.019775%);fill-opacity:1;" d="M 380.582031 630.707031 C 361.085938 630.707031 345.226562 646.5625 345.226562 666.054688 C 345.226562 685.550781 361.085938 701.410156 380.582031 701.410156 C 400.082031 701.410156 415.941406 685.550781 415.941406 666.054688 C 415.941406 646.5625 400.082031 630.707031 380.582031 630.707031 Z M 380.582031 720.390625 C 350.621094 720.390625 326.246094 696.015625 326.246094 666.054688 C 326.246094 636.097656 350.621094 611.726562 380.582031 611.726562 C 410.542969 611.726562 434.921875 636.097656 434.921875 666.054688 C 434.921875 696.015625 410.542969 720.390625 380.582031 720.390625 "/>
</g>
<path style=" stroke:none;fill-rule:nonzero;fill:rgb(32.939148%,78.039551%,89.019775%);fill-opacity:1;" d="M 217.878906 507.667969 C 198.382812 507.667969 182.523438 523.527344 182.523438 543.019531 C 182.523438 562.511719 198.382812 578.371094 217.878906 578.371094 C 237.371094 578.371094 253.234375 562.511719 253.234375 543.019531 C 253.234375 523.527344 237.371094 507.667969 217.878906 507.667969 Z M 217.878906 597.351562 C 187.914062 597.351562 163.542969 572.980469 163.542969 543.019531 C 163.542969 513.066406 187.914062 488.691406 217.878906 488.691406 C 247.835938 488.691406 272.214844 513.066406 272.214844 543.019531 C 272.214844 572.980469 247.835938 597.351562 217.878906 597.351562 "/>
<path style=" stroke:none;fill-rule:nonzero;fill:rgb(32.939148%,78.039551%,89.019775%);fill-opacity:1;" d="M 417.710938 552.507812 L 262.722656 552.507812 L 262.722656 533.53125 L 408.222656 533.53125 L 408.222656 498.550781 C 408.222656 493.3125 412.472656 489.0625 417.710938 489.0625 L 573.183594 489.0625 L 573.183594 508.039062 L 427.203125 508.039062 L 427.203125 543.019531 C 427.203125 548.257812 422.953125 552.507812 417.710938 552.507812 "/>
<path style=" stroke:none;fill-rule:nonzero;fill:rgb(32.939148%,78.039551%,89.019775%);fill-opacity:1;" d="M 573.183594 412.898438 L 99.378906 412.898438 L 99.378906 393.921875 L 573.183594 393.921875 L 573.183594 412.898438 "/>
<path style=" stroke:none;fill-rule:nonzero;fill:rgb(96.469116%,67.059326%,10.5896%);fill-opacity:1;" d="M 780.835938 472.359375 C 789.246094 463.378906 794.402344 451.320312 794.402344 438.050781 C 794.402344 429.695312 792.34375 421.832031 788.734375 414.902344 C 768.347656 416.359375 739.011719 422.429688 729.472656 444.589844 C 735.601562 458.992188 738.269531 489.140625 738.386719 490.46875 C 738.585938 492.789062 736.871094 494.832031 734.554688 495.03125 C 734.429688 495.039062 734.304688 495.046875 734.1875 495.046875 C 732.023438 495.046875 730.183594 493.390625 729.992188 491.195312 C 729.964844 490.875 727.117188 458.664062 721.117188 446.558594 C 715.824219 435.882812 689.101562 435.964844 680.15625 436.839844 C 677.855469 437.0625 675.777344 435.371094 675.550781 433.058594 C 675.328125 430.746094 677.019531 428.6875 679.332031 428.457031 C 682.914062 428.101562 710.875 425.765625 723.925781 436.859375 C 735.882812 415.785156 762.835938 408.886719 783.492188 406.820312 C 783.050781 406.273438 782.605469 405.730469 782.148438 405.199219 C 793.667969 395.992188 801.058594 381.835938 801.058594 365.941406 C 801.058594 351.363281 794.835938 338.242188 784.90625 329.074219 C 765.335938 326 733.523438 324.195312 728.902344 338.628906 C 726.527344 346.058594 726.640625 351.921875 726.753906 357.597656 C 727.035156 371.933594 725.34375 381.492188 699.5625 393.339844 C 698.992188 393.601562 698.394531 393.722656 697.808594 393.722656 C 696.210938 393.722656 694.683594 392.816406 693.976562 391.269531 C 693.003906 389.15625 693.933594 386.65625 696.042969 385.683594 C 718.671875 375.289062 718.546875 369.0625 718.324219 357.757812 C 718.230469 352.734375 718.113281 346.628906 719.945312 339.328125 C 693.25 324.234375 683.269531 334.703125 682.984375 335.019531 C 681.519531 336.785156 678.910156 337.054688 677.113281 335.617188 C 675.292969 334.164062 675 331.515625 676.453125 329.695312 C 677.019531 328.996094 690.15625 313.308594 723.050781 331.425781 C 732.5625 316.519531 760.695312 317.28125 779.582031 319.722656 C 782.667969 313.21875 784.417969 305.957031 784.417969 298.277344 C 784.417969 285.949219 779.960938 274.660156 772.582031 265.921875 C 771.976562 266.476562 771.199219 266.867188 770.320312 266.984375 C 769.15625 267.140625 764.203125 267.769531 757.992188 267.769531 C 749.269531 267.769531 738.066406 266.535156 731.433594 261.058594 C 729.945312 259.828125 728.75 258.410156 727.824219 256.855469 C 715.375 266.503906 703.957031 268.480469 696.710938 268.480469 C 692.003906 268.480469 689.058594 267.644531 688.742188 267.550781 C 686.511719 266.890625 685.242188 264.546875 685.90625 262.320312 C 686.566406 260.085938 688.910156 258.8125 691.140625 259.476562 C 691.304688 259.527344 707.257812 263.988281 725.839844 247.5625 C 726.695312 235.25 725.976562 215.53125 720.4375 210.164062 C 719.523438 209.277344 718.601562 208.960938 717.355469 209.105469 C 715.042969 209.371094 712.953125 207.726562 712.679688 205.414062 C 712.410156 203.105469 714.066406 201.015625 716.375 200.738281 C 720.128906 200.296875 723.570312 201.464844 726.304688 204.117188 C 736.574219 214.066406 734.53125 244.710938 734.132812 249.597656 C 734.300781 251.625 735.152344 253.203125 736.792969 254.558594 C 744.019531 260.535156 762.613281 259.53125 769.175781 258.640625 C 769.9375 258.53125 770.675781 258.65625 771.335938 258.929688 C 773.304688 253.554688 774.402344 247.757812 774.402344 241.703125 C 774.402344 217.214844 756.859375 196.828125 733.65625 192.390625 C 734.003906 190.019531 734.191406 187.597656 734.191406 185.128906 C 734.191406 157.394531 711.703125 134.910156 683.960938 134.910156 C 681.238281 134.910156 678.574219 135.136719 675.976562 135.558594 C 676.207031 136.46875 676.359375 137.519531 676.328125 138.777344 C 676.152344 144.757812 671.878906 151.859375 663.632812 159.90625 C 666.09375 161.367188 668.132812 163.414062 669.613281 166.027344 C 678.023438 180.796875 667.425781 209.261719 666.1875 212.460938 C 665.539062 214.132812 663.949219 215.152344 662.257812 215.152344 C 661.75 215.152344 661.242188 215.066406 660.742188 214.871094 C 658.570312 214.03125 657.488281 211.597656 658.328125 209.425781 C 661.28125 201.765625 667.75 179.777344 662.289062 170.1875 C 660.917969 167.789062 658.914062 166.4375 655.964844 165.9375 C 654.152344 165.632812 652.824219 164.203125 652.53125 162.488281 C 644.429688 160.285156 625.050781 156.527344 613.355469 166.851562 C 612.554688 167.558594 611.554688 167.90625 610.566406 167.90625 C 609.398438 167.90625 608.238281 167.421875 607.410156 166.476562 C 605.867188 164.734375 606.035156 162.074219 607.777344 160.53125 C 623.683594 146.5 648.707031 152.492188 656.683594 154.90625 C 667.605469 144.582031 668.417969 138.820312 667.765625 137.472656 C 666.394531 135.8125 666.496094 133.347656 668.058594 131.800781 C 668.21875 131.640625 668.398438 131.507812 668.582031 131.378906 C 662.21875 110.9375 643.167969 96.085938 620.636719 96.085938 C 604.753906 96.085938 590.609375 103.457031 581.402344 114.960938 L 580.238281 116.460938 C 574.0625 124.804688 570.40625 135.128906 570.40625 146.304688 C 570.40625 157.484375 569.382812 170.011719 570.40625 181.503906 L 570.605469 204.597656 C 587.203125 208.789062 609.304688 217.398438 624.929688 234.933594 C 643.777344 221.011719 680.414062 244.957031 682.070312 246.054688 C 684.007812 247.339844 684.542969 249.953125 683.257812 251.890625 C 682.445312 253.117188 681.105469 253.777344 679.738281 253.777344 C 678.941406 253.777344 678.136719 253.550781 677.417969 253.078125 C 675.167969 251.589844 672.027344 249.707031 668.378906 247.808594 L 629.792969 241.847656 C 629.253906 242.253906 628.757812 242.71875 628.28125 243.222656 C 625.054688 253.394531 619.382812 279.570312 628.003906 291.78125 C 629.34375 293.675781 628.894531 296.304688 626.992188 297.652344 C 626.253906 298.167969 625.40625 298.421875 624.566406 298.421875 C 623.246094 298.421875 621.941406 297.800781 621.121094 296.636719 C 609.691406 280.445312 617.359375 250.441406 619.867188 241.945312 C 606.359375 225.9375 586.320312 217.660156 570.683594 213.425781 L 571.671875 327.933594 C 572.386719 327.925781 573.121094 328.085938 573.785156 328.464844 C 579.644531 331.792969 629.179688 360.730469 628.964844 387.136719 C 658.507812 404.960938 645.132812 455.625 644.527344 457.832031 C 644.019531 459.703125 642.324219 460.9375 640.472656 460.9375 C 640.105469 460.9375 639.730469 460.890625 639.363281 460.789062 C 637.121094 460.179688 635.789062 457.863281 636.398438 455.621094 C 636.53125 455.148438 648.691406 408.984375 624.578125 394.339844 C 620.078125 397.226562 608.796875 406.617188 611.675781 426.882812 C 612.003906 429.183594 610.402344 431.316406 608.101562 431.640625 C 607.898438 431.671875 607.699219 431.6875 607.503906 431.6875 C 605.4375 431.6875 603.632812 430.167969 603.335938 428.0625 C 599.75 402.851562 614.71875 390.683594 620.554688 386.96875 C 620.714844 369.714844 587.464844 346.332031 571.75 337.027344 L 572.992188 481.222656 C 585.292969 482.394531 601.179688 485.628906 607.699219 494.414062 C 640.382812 491.789062 659.230469 516.324219 660.035156 517.394531 C 661.433594 519.257812 661.058594 521.898438 659.199219 523.296875 C 658.4375 523.863281 657.554688 524.140625 656.671875 524.140625 C 655.394531 524.140625 654.128906 523.558594 653.296875 522.457031 C 653.128906 522.234375 636.285156 500.3125 607.804688 502.863281 C 605.015625 507.046875 597.605469 520.320312 602.300781 537.742188 C 602.910156 539.984375 601.582031 542.300781 599.332031 542.90625 C 598.964844 543.003906 598.59375 543.050781 598.234375 543.050781 C 596.375 543.050781 594.675781 541.816406 594.167969 539.9375 C 588.808594 520.042969 596.683594 504.613281 600.433594 498.753906 C 596.003906 493.636719 584.394531 490.863281 573.066406 489.6875 L 574.332031 636.3125 C 572.191406 645.21875 573.492188 651.355469 573.492188 660.511719 C 573.492188 688.25 595.980469 710.738281 623.71875 710.738281 C 628.335938 710.738281 632.804688 710.097656 637.050781 708.933594 C 641.296875 710.097656 645.757812 710.738281 650.375 710.738281 C 671.988281 710.738281 690.394531 697.085938 697.476562 677.941406 C 691.910156 679.515625 681.101562 682.070312 669.683594 682.070312 C 658.460938 682.070312 646.660156 679.59375 638.675781 671.28125 C 633.417969 676.394531 627.425781 679.46875 620.789062 680.425781 C 619.265625 680.648438 617.769531 680.746094 616.304688 680.746094 C 603.472656 680.746094 593.371094 673.101562 592.894531 672.742188 C 591.058594 671.328125 590.710938 668.691406 592.125 666.847656 C 593.535156 665.007812 596.179688 664.648438 598.027344 666.058594 C 598.125 666.132812 608.316406 673.75 619.648438 672.078125 C 626.21875 671.109375 632.082031 667.140625 637.054688 660.285156 C 637.128906 660.1875 637.222656 660.101562 637.300781 660.007812 C 637.671875 652.628906 635.902344 639.128906 621.648438 625.496094 C 619.96875 623.886719 619.910156 621.222656 621.519531 619.542969 C 623.125 617.863281 625.789062 617.796875 627.476562 619.410156 C 647.914062 638.957031 646.390625 658.90625 645.074219 665.78125 C 660.804688 681.449219 698.070312 668.96875 698.582031 668.796875 C 699.039062 668.636719 699.5 668.585938 699.953125 668.585938 C 699.953125 668.578125 699.953125 668.574219 699.953125 668.566406 C 700.171875 668.570312 700.386719 668.585938 700.605469 668.585938 C 725.960938 668.585938 746.917969 649.789062 750.332031 625.375 C 770.152344 618.652344 784.417969 599.90625 784.417969 577.820312 C 784.417969 575.085938 784.195312 572.402344 783.769531 569.789062 C 778.71875 571.898438 766.097656 576.316406 748.972656 576.316406 C 735.085938 576.316406 718.242188 573.390625 700.082031 563.996094 C 693.886719 575.277344 682.628906 582.519531 666.992188 585.128906 C 662.210938 585.925781 657.589844 586.191406 653.558594 586.191406 C 645.699219 586.191406 640.054688 585.179688 639.703125 585.113281 C 637.417969 584.695312 635.910156 582.503906 636.324219 580.214844 C 636.742188 577.929688 638.933594 576.414062 641.222656 576.824219 C 641.339844 576.851562 653.128906 578.941406 665.8125 576.78125 C 681.910156 574.046875 691.9375 565.960938 695.597656 552.757812 C 704.738281 519.859375 680.976562 499.816406 679.933594 498.960938 C 678.140625 497.488281 677.867188 494.839844 679.335938 493.039062 C 680.808594 491.234375 683.464844 490.96875 685.261719 492.4375 C 686.460938 493.410156 714.367188 516.6875 703.71875 555.015625 C 703.605469 555.421875 703.46875 555.804688 703.34375 556.203125 C 746.238281 578.714844 782 561.371094 782.359375 561.1875 C 783.398438 560.667969 784.550781 560.621094 785.574219 560.957031 C 800.164062 552.167969 809.929688 536.191406 809.929688 517.917969 C 809.929688 497.734375 798.015625 480.335938 780.835938 472.359375 "/>
</g>
</svg>
