<?xml version="1.0" encoding="UTF-8"?>
<svg xmlns="http://www.w3.org/2000/svg" xmlns:xlink="http://www.w3.org/1999/xlink" width="810pt" height="809.999993pt" viewBox="0 0 810 809.999993" version="1.2">
<g id="surface1">
<path style=" stroke:none;fill-rule:nonzero;fill:rgb(36.468506%,25.099182%,21.569824%);fill-opacity:1;" d="M 768.984375 269.324219 C 768.984375 684.449219 404.738281 810 404.738281 810 C 404.738281 810 40.496094 684.449219 40.496094 269.324219 C 40.496094 218.699219 44.542969 176.175781 48.589844 141.75 C 54.664062 91.125 89.0625 50.625 137.628906 38.476562 C 200.359375 20.25 299.515625 0 404.738281 0 C 509.964844 0 609.121094 20.25 673.875 38.476562 C 722.441406 50.625 756.839844 93.148438 762.910156 141.75 C 764.933594 176.175781 768.984375 220.726562 768.984375 269.324219 Z M 768.984375 269.324219 "/>
<path style=" stroke:none;fill-rule:nonzero;fill:rgb(29.798889%,68.629456%,31.369019%);fill-opacity:1;" d="M 404.738281 60.75 C 503.894531 60.75 596.980469 81 657.6875 97.199219 C 681.96875 103.273438 698.15625 123.523438 702.203125 149.851562 C 706.25 188.324219 708.273438 228.824219 708.273438 269.324219 C 708.273438 585.226562 475.566406 712.800781 404.738281 743.175781 C 333.914062 710.773438 101.203125 583.199219 101.203125 269.324219 C 101.203125 228.824219 103.226562 188.324219 107.273438 149.851562 C 109.296875 123.523438 127.511719 103.273438 151.792969 97.199219 C 212.5 81 305.585938 60.75 404.738281 60.75 M 404.738281 0 C 299.515625 0 200.359375 20.25 135.605469 38.476562 C 89.0625 50.625 52.640625 93.148438 48.589844 141.75 C 44.542969 176.175781 40.496094 220.726562 40.496094 269.324219 C 40.496094 684.449219 404.738281 810 404.738281 810 C 404.738281 810 768.984375 684.449219 768.984375 269.324219 C 768.984375 218.699219 764.933594 176.175781 760.886719 141.75 C 754.816406 91.125 720.417969 50.625 671.851562 38.476562 C 609.121094 20.25 509.964844 0 404.738281 0 Z M 404.738281 0 "/>
<path style=" stroke:none;fill-rule:nonzero;fill:rgb(86.268616%,92.939758%,78.42865%);fill-opacity:1;" d="M 384.503906 486 L 424.976562 486 L 424.976562 648 L 384.503906 648 Z M 384.503906 486 "/>
<path style=" stroke:none;fill-rule:nonzero;fill:rgb(29.798889%,68.629456%,31.369019%);fill-opacity:1;" d="M 404.738281 121.5 C 404.738281 121.5 283.324219 222.75 283.324219 384.75 C 283.324219 490.050781 350.101562 556.875 384.503906 587.25 L 404.738281 526.5 L 424.976562 587.25 C 459.375 556.875 526.152344 490.050781 526.152344 384.75 C 526.152344 222.75 404.738281 121.5 404.738281 121.5 Z M 404.738281 121.5 "/>
<path style=" stroke:none;fill-rule:nonzero;fill:rgb(50.588989%,78.039551%,51.759338%);fill-opacity:1;" d="M 404.738281 121.5 C 404.738281 121.5 283.324219 222.75 283.324219 384.75 C 283.324219 490.050781 350.101562 556.875 384.503906 587.25 L 404.738281 526.5 Z M 404.738281 121.5 "/>
</g>
</svg>
