<?xml version="1.0" encoding="UTF-8"?>
<svg xmlns="http://www.w3.org/2000/svg" xmlns:xlink="http://www.w3.org/1999/xlink" width="810pt" height="809.999993pt" viewBox="0 0 810 809.999993" version="1.2">
<g id="surface1">
<path style=" stroke:none;fill-rule:nonzero;fill:rgb(54.899597%,78.42865%,29.40979%);fill-opacity:1;" d="M 371.1875 10.773438 C 391.382812 -0.65625 417.128906 -0.707031 436.816406 10.773438 L 738.304688 180.671875 C 757.160156 191.269531 769.78125 212.289062 769.601562 234.015625 L 769.601562 574.671875 C 769.730469 597.304688 755.871094 618.78125 735.980469 629.175781 L 436.109375 798.292969 C 433.558594 799.703125 430.921875 800.9375 428.203125 801.996094 C 425.488281 803.054688 422.710938 803.929688 419.878906 804.617188 C 417.042969 805.308594 414.175781 805.804688 411.277344 806.113281 C 408.375 806.417969 405.46875 806.53125 402.550781 806.453125 C 399.636719 806.371094 396.738281 806.097656 393.859375 805.628906 C 390.980469 805.164062 388.144531 804.507812 385.355469 803.664062 C 382.5625 802.820312 379.839844 801.792969 377.183594 800.585938 C 374.53125 799.378906 371.96875 798 369.496094 796.449219 L 279.511719 744.46875 C 273.375 740.808594 266.484375 737.90625 262.144531 731.976562 C 265.980469 726.828125 272.796875 726.175781 278.347656 723.902344 C 290.871094 719.914062 302.328125 713.808594 313.839844 707.347656 C 316.742188 705.332031 320.300781 706.089844 323.078125 707.90625 L 399.8125 752.265625 C 405.289062 755.417969 410.84375 751.257812 415.539062 748.605469 L 709.980469 582.492188 C 713.617188 580.726562 715.636719 576.890625 715.332031 572.90625 L 715.332031 235.53125 C 715.738281 230.988281 713.136719 226.851562 709.023438 225.007812 L 409.910156 56.625 C 409.046875 56.027344 408.117188 55.574219 407.117188 55.261719 C 406.117188 54.949219 405.09375 54.789062 404.042969 54.789062 C 402.996094 54.785156 401.972656 54.9375 400.96875 55.246094 C 399.96875 55.554688 399.035156 56.007812 398.171875 56.597656 L 99.488281 225.335938 C 95.449219 227.179688 92.671875 231.265625 93.175781 235.808594 L 93.175781 573.183594 C 92.824219 577.167969 94.941406 580.929688 98.601562 582.644531 L 178.417969 627.6875 C 193.410156 635.761719 211.8125 640.304688 228.320312 634.375 C 230.117188 633.699219 231.851562 632.890625 233.523438 631.949219 C 235.195312 631.007812 236.789062 629.949219 238.296875 628.765625 C 239.808594 627.585938 241.222656 626.292969 242.539062 624.898438 C 243.851562 623.5 245.054688 622.011719 246.144531 620.433594 C 247.234375 618.855469 248.195312 617.203125 249.035156 615.476562 C 249.871094 613.75 250.574219 611.96875 251.140625 610.136719 C 251.707031 608.304688 252.132812 606.441406 252.414062 604.542969 C 252.699219 602.644531 252.835938 600.738281 252.828125 598.820312 L 252.90625 263.464844 C 252.550781 258.492188 257.246094 254.378906 262.070312 254.886719 L 300.4375 254.886719 C 305.484375 254.757812 309.445312 260.109375 308.765625 265.105469 L 308.691406 602.578125 C 308.714844 632.558594 296.398438 665.160156 268.65625 679.871094 C 234.480469 697.535156 192.226562 693.824219 158.453125 676.84375 L 72.628906 629.402344 C 52.4375 619.308594 38.882812 597.507812 39.007812 574.898438 L 39.007812 234.242188 C 39.027344 231.488281 39.230469 228.746094 39.617188 226.015625 C 40.003906 223.289062 40.570312 220.597656 41.316406 217.945312 C 42.058594 215.292969 42.976562 212.699219 44.066406 210.167969 C 45.15625 207.636719 46.410156 205.1875 47.824219 202.824219 C 49.242188 200.460938 50.808594 198.199219 52.527344 196.042969 C 54.242188 193.890625 56.097656 191.855469 58.085938 189.949219 C 60.070312 188.039062 62.179688 186.269531 64.402344 184.640625 C 66.625 183.011719 68.949219 181.539062 71.367188 180.21875 Z M 458.121094 246.910156 C 501.714844 244.386719 548.386719 245.246094 587.609375 266.71875 C 617.976562 283.171875 634.8125 317.691406 635.367188 351.453125 C 634.507812 355.996094 629.765625 358.519531 625.421875 358.191406 C 612.800781 358.167969 600.128906 358.367188 587.460938 358.117188 C 582.082031 358.316406 578.976562 353.371094 578.296875 348.628906 C 574.660156 332.476562 565.851562 316.503906 550.65625 308.707031 C 527.332031 297.023438 500.273438 297.605469 474.832031 297.859375 C 456.253906 298.867188 436.285156 300.457031 420.5625 311.359375 C 408.445312 319.632812 404.808594 336.589844 409.125 349.761719 C 413.164062 359.429688 424.347656 362.53125 433.460938 365.410156 C 486.011719 379.136719 541.671875 378.023438 593.238281 395.867188 C 614.570312 403.234375 635.445312 417.566406 642.765625 439.898438 C 652.304688 469.824219 648.140625 505.605469 626.863281 529.628906 C 609.597656 549.414062 584.457031 559.910156 559.339844 566.015625 C 525.945312 573.460938 491.3125 573.636719 457.414062 570.304688 C 425.535156 566.671875 392.367188 558.292969 367.753906 536.59375 C 346.703125 518.324219 336.457031 489.859375 337.464844 462.40625 C 337.71875 457.761719 342.335938 454.535156 346.804688 454.910156 L 384.667969 454.910156 C 389.765625 454.558594 393.503906 458.949219 393.753906 463.742188 C 396.101562 478.882812 401.882812 495.285156 415.3125 504.117188 C 441.207031 520.824219 473.695312 519.660156 503.328125 520.140625 C 527.890625 519.054688 555.453125 518.726562 575.519531 502.476562 C 586.121094 493.214844 589.226562 477.75 586.375 464.425781 C 583.269531 453.171875 571.230469 447.949219 561.132812 444.238281 C 509.261719 427.835938 452.972656 433.792969 401.605469 415.21875 C 380.753906 407.851562 360.585938 393.921875 352.585938 372.5 C 341.402344 342.21875 346.527344 304.695312 370.078125 281.480469 C 392.796875 258.390625 426.113281 249.484375 457.667969 246.304688 Z M 458.121094 246.910156 "/>
</g>
</svg>
