<?xml version="1.0" encoding="UTF-8"?>
<svg xmlns="http://www.w3.org/2000/svg" xmlns:xlink="http://www.w3.org/1999/xlink" width="810pt" height="809.999993pt" viewBox="0 0 810 809.999993" version="1.2">
<g id="surface1">
<path style=" stroke:none;fill-rule:nonzero;fill:rgb(22.349548%,75.689697%,84.309387%);fill-opacity:1;" d="M 477.691406 405.152344 C 477.691406 406.339844 477.664062 407.53125 477.605469 408.71875 C 477.546875 409.910156 477.457031 411.09375 477.34375 412.277344 C 477.226562 413.464844 477.082031 414.644531 476.90625 415.820312 C 476.730469 417 476.527344 418.171875 476.296875 419.339844 C 476.0625 420.507812 475.804688 421.667969 475.515625 422.820312 C 475.226562 423.976562 474.90625 425.121094 474.5625 426.261719 C 474.21875 427.398438 473.84375 428.53125 473.441406 429.652344 C 473.042969 430.769531 472.613281 431.882812 472.160156 432.980469 C 471.703125 434.082031 471.222656 435.167969 470.714844 436.242188 C 470.203125 437.320312 469.667969 438.382812 469.109375 439.433594 C 468.546875 440.480469 467.960938 441.515625 467.351562 442.539062 C 466.738281 443.558594 466.101562 444.5625 465.441406 445.554688 C 464.78125 446.542969 464.09375 447.515625 463.386719 448.472656 C 462.679688 449.425781 461.945312 450.367188 461.191406 451.285156 C 460.4375 452.207031 459.660156 453.105469 458.863281 453.988281 C 458.0625 454.871094 457.242188 455.730469 456.402344 456.574219 C 455.558594 457.414062 454.699219 458.234375 453.816406 459.035156 C 452.9375 459.835938 452.035156 460.609375 451.117188 461.367188 C 450.195312 462.121094 449.257812 462.851562 448.300781 463.5625 C 447.347656 464.269531 446.375 464.957031 445.386719 465.617188 C 444.394531 466.277344 443.390625 466.914062 442.371094 467.527344 C 441.351562 468.140625 440.316406 468.726562 439.265625 469.285156 C 438.21875 469.847656 437.15625 470.382812 436.078125 470.890625 C 435.003906 471.398438 433.917969 471.882812 432.816406 472.335938 C 431.71875 472.792969 430.609375 473.222656 429.488281 473.621094 C 428.367188 474.023438 427.238281 474.398438 426.101562 474.742188 C 424.964844 475.085938 423.816406 475.40625 422.664062 475.695312 C 421.507812 475.984375 420.347656 476.242188 419.179688 476.476562 C 418.015625 476.707031 416.84375 476.910156 415.667969 477.085938 C 414.488281 477.261719 413.308594 477.40625 412.125 477.523438 C 410.941406 477.640625 409.753906 477.726562 408.566406 477.785156 C 407.378906 477.84375 406.191406 477.875 405 477.875 C 403.808594 477.875 402.621094 477.84375 401.433594 477.785156 C 400.246094 477.726562 399.058594 477.640625 397.875 477.523438 C 396.691406 477.40625 395.511719 477.261719 394.332031 477.085938 C 393.15625 476.910156 391.984375 476.707031 390.820312 476.476562 C 389.652344 476.242188 388.492188 475.984375 387.335938 475.695312 C 386.183594 475.40625 385.035156 475.085938 383.898438 474.742188 C 382.761719 474.398438 381.628906 474.023438 380.511719 473.621094 C 379.390625 473.222656 378.28125 472.792969 377.183594 472.335938 C 376.082031 471.882812 374.996094 471.398438 373.921875 470.890625 C 372.84375 470.382812 371.78125 469.847656 370.734375 469.285156 C 369.683594 468.726562 368.648438 468.140625 367.628906 467.527344 C 366.609375 466.914062 365.601562 466.277344 364.613281 465.617188 C 363.625 464.957031 362.652344 464.269531 361.695312 463.5625 C 360.742188 462.851562 359.804688 462.121094 358.882812 461.367188 C 357.964844 460.609375 357.0625 459.835938 356.183594 459.035156 C 355.300781 458.234375 354.441406 457.414062 353.597656 456.574219 C 352.757812 455.730469 351.9375 454.871094 351.136719 453.988281 C 350.339844 453.105469 349.5625 452.207031 348.808594 451.285156 C 348.054688 450.367188 347.320312 449.425781 346.613281 448.472656 C 345.902344 447.515625 345.21875 446.542969 344.558594 445.554688 C 343.898438 444.5625 343.261719 443.558594 342.648438 442.539062 C 342.039062 441.515625 341.453125 440.480469 340.890625 439.433594 C 340.332031 438.382812 339.796875 437.320312 339.285156 436.242188 C 338.777344 435.167969 338.296875 434.082031 337.839844 432.980469 C 337.386719 431.882812 336.957031 430.769531 336.558594 429.652344 C 336.15625 428.53125 335.78125 427.398438 335.4375 426.261719 C 335.09375 425.121094 334.773438 423.976562 334.484375 422.820312 C 334.195312 421.667969 333.9375 420.507812 333.703125 419.339844 C 333.472656 418.171875 333.269531 417 333.09375 415.820312 C 332.921875 414.644531 332.773438 413.464844 332.65625 412.277344 C 332.542969 411.09375 332.453125 409.910156 332.394531 408.71875 C 332.335938 407.53125 332.308594 406.339844 332.308594 405.152344 C 332.308594 403.960938 332.335938 402.773438 332.394531 401.582031 C 332.453125 400.394531 332.542969 399.207031 332.65625 398.023438 C 332.773438 396.839844 332.921875 395.65625 333.09375 394.480469 C 333.269531 393.304688 333.472656 392.132812 333.703125 390.964844 C 333.9375 389.796875 334.195312 388.636719 334.484375 387.480469 C 334.773438 386.328125 335.09375 385.179688 335.4375 384.042969 C 335.78125 382.902344 336.15625 381.773438 336.558594 380.652344 C 336.957031 379.53125 337.386719 378.421875 337.839844 377.320312 C 338.296875 376.222656 338.777344 375.132812 339.285156 374.058594 C 339.796875 372.984375 340.332031 371.917969 340.890625 370.871094 C 341.453125 369.820312 342.039062 368.785156 342.648438 367.765625 C 343.261719 366.742188 343.898438 365.738281 344.558594 364.75 C 345.21875 363.757812 345.902344 362.785156 346.613281 361.832031 C 347.320312 360.875 348.054688 359.9375 348.808594 359.015625 C 349.5625 358.097656 350.339844 357.195312 351.136719 356.3125 C 351.9375 355.433594 352.757812 354.570312 353.597656 353.730469 C 354.441406 352.886719 355.300781 352.066406 356.183594 351.265625 C 357.0625 350.46875 357.964844 349.691406 358.882812 348.9375 C 359.804688 348.179688 360.742188 347.449219 361.695312 346.738281 C 362.652344 346.03125 363.625 345.347656 364.613281 344.683594 C 365.601562 344.023438 366.609375 343.386719 367.628906 342.773438 C 368.648438 342.164062 369.683594 341.578125 370.734375 341.015625 C 371.78125 340.453125 372.84375 339.917969 373.921875 339.410156 C 374.996094 338.902344 376.082031 338.421875 377.183594 337.964844 C 378.28125 337.507812 379.390625 337.082031 380.511719 336.679688 C 381.628906 336.277344 382.761719 335.90625 383.898438 335.558594 C 385.035156 335.214844 386.183594 334.898438 387.335938 334.609375 C 388.492188 334.320312 389.652344 334.058594 390.820312 333.828125 C 391.984375 333.59375 393.15625 333.390625 394.332031 333.214844 C 395.511719 333.042969 396.691406 332.894531 397.875 332.777344 C 399.058594 332.664062 400.246094 332.574219 401.433594 332.515625 C 402.621094 332.457031 403.808594 332.429688 405 332.429688 C 406.191406 332.429688 407.378906 332.457031 408.566406 332.515625 C 409.753906 332.574219 410.941406 332.664062 412.125 332.777344 C 413.308594 332.894531 414.488281 333.042969 415.667969 333.214844 C 416.84375 333.390625 418.015625 333.59375 419.179688 333.828125 C 420.347656 334.058594 421.507812 334.320312 422.664062 334.609375 C 423.816406 334.898438 424.964844 335.214844 426.101562 335.558594 C 427.238281 335.90625 428.367188 336.277344 429.488281 336.679688 C 430.609375 337.082031 431.71875 337.507812 432.816406 337.964844 C 433.917969 338.421875 435.003906 338.902344 436.078125 339.410156 C 437.15625 339.917969 438.21875 340.453125 439.265625 341.015625 C 440.316406 341.578125 441.351562 342.164062 442.371094 342.773438 C 443.390625 343.386719 444.394531 344.023438 445.386719 344.683594 C 446.375 345.347656 447.347656 346.03125 448.300781 346.738281 C 449.257812 347.449219 450.195312 348.179688 451.117188 348.9375 C 452.035156 349.691406 452.9375 350.46875 453.816406 351.265625 C 454.699219 352.066406 455.558594 352.886719 456.402344 353.730469 C 457.242188 354.570312 458.0625 355.433594 458.863281 356.3125 C 459.660156 357.195312 460.4375 358.097656 461.191406 359.015625 C 461.945312 359.9375 462.679688 360.875 463.386719 361.832031 C 464.09375 362.785156 464.78125 363.757812 465.441406 364.75 C 466.101562 365.738281 466.738281 366.742188 467.351562 367.765625 C 467.960938 368.785156 468.546875 369.820312 469.109375 370.871094 C 469.667969 371.917969 470.203125 372.984375 470.714844 374.058594 C 471.222656 375.132812 471.703125 376.222656 472.160156 377.320312 C 472.613281 378.421875 473.042969 379.53125 473.441406 380.652344 C 473.84375 381.773438 474.21875 382.902344 474.5625 384.042969 C 474.90625 385.179688 475.226562 386.328125 475.515625 387.480469 C 475.804688 388.636719 476.0625 389.796875 476.296875 390.964844 C 476.527344 392.132812 476.730469 393.304688 476.90625 394.480469 C 477.082031 395.65625 477.226562 396.839844 477.34375 398.023438 C 477.457031 399.207031 477.546875 400.394531 477.605469 401.582031 C 477.664062 402.773438 477.691406 403.960938 477.691406 405.152344 Z M 477.691406 405.152344 "/>
<path style=" stroke:none;fill-rule:nonzero;fill:rgb(12.159729%,12.939453%,16.859436%);fill-opacity:1;" d="M 405 488.261719 C 359.195312 488.261719 321.921875 450.976562 321.921875 405.152344 C 321.921875 359.324219 359.195312 322.039062 405 322.039062 C 450.804688 322.039062 488.078125 359.324219 488.078125 405.152344 C 488.078125 450.976562 450.804688 488.261719 405 488.261719 Z M 405 342.816406 C 370.636719 342.816406 342.691406 370.773438 342.691406 405.152344 C 342.691406 439.527344 370.636719 467.484375 405 467.484375 C 439.363281 467.484375 467.308594 439.527344 467.308594 405.152344 C 467.308594 370.773438 439.363281 342.816406 405 342.816406 Z M 405 342.816406 "/>
<path style=" stroke:none;fill-rule:nonzero;fill:rgb(22.349548%,75.689697%,84.309387%);fill-opacity:1;" d="M 804.808594 405.152344 C 804.808594 349.300781 737.578125 300.960938 633.273438 272.195312 C 660.085938 167.308594 651.832031 84.828125 603.917969 56.84375 C 585.015625 45.800781 562.089844 43.785156 535.773438 50.828125 C 496.125 61.445312 450.691406 92.488281 405 138.082031 C 359.308594 92.488281 313.875 61.453125 274.226562 50.828125 C 247.910156 43.773438 224.984375 45.800781 206.082031 56.84375 C 158.167969 84.828125 149.914062 167.296875 176.726562 272.195312 C 72.421875 300.960938 5.191406 349.300781 5.191406 405.152344 C 5.191406 461.003906 72.421875 509.339844 176.726562 538.117188 C 149.914062 643.003906 158.167969 725.484375 206.082031 753.46875 C 217.628906 760.214844 230.671875 763.609375 245.085938 763.601562 C 254.257812 763.601562 263.988281 762.226562 274.226562 759.484375 C 313.875 748.859375 359.308594 717.824219 405 672.230469 C 450.691406 717.824219 496.125 748.859375 535.773438 759.484375 C 546.011719 762.226562 555.742188 763.601562 564.914062 763.601562 C 579.328125 763.601562 592.371094 760.222656 603.917969 753.46875 C 651.832031 725.484375 660.078125 643.003906 633.273438 538.117188 C 737.578125 509.339844 804.808594 461.003906 804.808594 405.152344 Z M 543.832031 80.921875 C 551.359375 78.917969 558.339844 77.902344 564.765625 77.902344 C 573.699219 77.902344 581.550781 79.855469 588.207031 83.75 C 620.316406 102.511719 626.867188 171.222656 602.953125 264.628906 C 570 257.214844 534.050781 251.632812 495.84375 248.183594 C 473.425781 215.84375 450.101562 186.402344 426.601562 160.617188 C 468.324219 118.78125 509.261719 90.191406 543.832031 80.921875 Z M 516.6875 470.589844 C 504.441406 492.054688 491.554688 512.613281 478.335938 532.289062 C 454.867188 534.046875 430.402344 535.011719 405 535.011719 C 379.597656 535.011719 355.132812 534.046875 331.675781 532.289062 C 318.453125 512.613281 305.566406 492.054688 293.324219 470.589844 C 280.664062 448.398438 269.304688 426.542969 259.128906 405.160156 C 269.304688 383.78125 280.664062 361.921875 293.324219 339.722656 C 305.578125 318.246094 318.453125 297.6875 331.683594 278.011719 C 355.144531 276.257812 379.597656 275.289062 405 275.289062 C 430.402344 275.289062 454.855469 276.257812 478.324219 278.011719 C 491.546875 297.6875 504.433594 318.257812 516.6875 339.722656 C 529.34375 361.914062 540.707031 383.769531 550.882812 405.160156 C 540.707031 426.542969 529.34375 448.398438 516.6875 470.589844 Z M 567.457031 441.980469 C 578.265625 467.546875 587.199219 492.160156 594.425781 515.554688 C 570.800781 520.820312 545.296875 525.214844 518.058594 528.46875 C 526.800781 514.691406 535.421875 500.605469 543.738281 486.027344 C 552.160156 471.285156 560.023438 456.585938 567.457031 441.980469 Z M 405 627.027344 C 388.011719 608.234375 371.050781 587.425781 354.488281 564.910156 C 371.023438 565.710938 387.84375 566.179688 405 566.179688 C 422.15625 566.179688 438.976562 565.710938 455.511719 564.910156 C 438.949219 587.414062 421.988281 608.222656 405 627.027344 Z M 291.933594 528.46875 C 264.703125 525.214844 239.1875 520.820312 215.5625 515.554688 C 222.792969 492.160156 231.722656 467.535156 242.53125 441.980469 C 249.96875 456.585938 257.839844 471.285156 266.25 486.027344 C 274.578125 500.613281 283.1875 514.703125 291.933594 528.46875 Z M 242.542969 368.332031 C 231.734375 342.765625 222.792969 318.144531 215.574219 294.738281 C 239.199219 289.472656 264.714844 285.078125 291.953125 281.824219 C 283.199219 295.601562 274.589844 309.699219 266.273438 324.273438 C 257.839844 339.027344 249.976562 353.726562 242.542969 368.332031 Z M 405 183.285156 C 421.988281 202.078125 438.949219 222.886719 455.511719 245.402344 C 438.976562 244.589844 422.15625 244.125 405 244.125 C 387.84375 244.125 371.023438 244.589844 354.488281 245.390625 C 371.050781 222.886719 388.011719 202.078125 405 183.285156 Z M 543.738281 324.285156 C 535.421875 309.699219 526.800781 295.609375 518.058594 281.835938 C 545.296875 285.085938 570.800781 289.480469 594.4375 294.75 C 587.207031 318.15625 578.277344 342.765625 567.46875 368.34375 C 560.023438 353.726562 552.160156 339.027344 543.738281 324.285156 Z M 221.792969 83.75 C 228.460938 79.855469 236.292969 77.902344 245.234375 77.902344 C 251.652344 77.902344 258.648438 78.917969 266.167969 80.921875 C 300.738281 90.191406 341.675781 118.769531 383.398438 160.605469 C 359.898438 186.390625 336.574219 215.84375 314.15625 248.175781 C 275.949219 251.625 239.988281 257.203125 207.046875 264.621094 C 183.132812 171.214844 189.683594 102.5 221.792969 83.75 Z M 36.347656 405.152344 C 36.347656 367.792969 92.433594 327.859375 185.210938 302.289062 C 195.273438 335.109375 208.480469 369.671875 224.734375 405.152344 C 208.480469 440.628906 195.273438 475.191406 185.210938 508.011719 C 92.433594 482.445312 36.347656 442.507812 36.347656 405.152344 Z M 266.167969 729.378906 C 248.171875 734.179688 233.25 733.234375 221.792969 726.5625 C 189.683594 707.800781 183.144531 639.089844 207.046875 545.683594 C 239.988281 553.101562 275.949219 558.679688 314.144531 562.128906 C 336.566406 594.46875 359.890625 623.910156 383.390625 649.707031 C 341.675781 691.53125 300.738281 720.113281 266.167969 729.378906 Z M 588.207031 726.5625 C 576.75 733.253906 561.839844 734.1875 543.832031 729.378906 C 509.261719 720.113281 468.324219 691.53125 426.601562 649.695312 C 450.101562 623.910156 473.425781 594.457031 495.84375 562.117188 C 534.050781 558.667969 570 553.089844 602.941406 545.671875 C 626.867188 639.089844 620.316406 707.800781 588.207031 726.5625 Z M 624.789062 508.011719 C 614.726562 475.191406 601.519531 440.628906 585.265625 405.152344 C 601.519531 369.671875 614.726562 335.097656 624.789062 302.289062 C 717.566406 327.859375 773.652344 367.792969 773.652344 405.152344 C 773.652344 442.507812 717.566406 482.445312 624.789062 508.011719 Z M 624.789062 508.011719 "/>
<path style=" stroke:none;fill-rule:nonzero;fill:rgb(12.159729%,12.939453%,16.859436%);fill-opacity:1;" d="M 245.023438 768.785156 C 229.75 768.785156 215.773438 765.136719 203.476562 757.949219 C 155.375 729.847656 143.421875 651.191406 170.472656 541.746094 C 62.046875 510.898438 0 461.25 0 405.152344 C 0 349.050781 62.046875 299.402344 170.464844 268.558594 C 143.421875 159.109375 155.375 80.457031 203.476562 52.355469 C 223.601562 40.574219 247.851562 38.371094 275.578125 45.808594 C 314.1875 56.15625 358.859375 85.496094 405 130.78125 C 451.148438 85.496094 495.824219 56.15625 534.421875 45.808594 C 562.140625 38.390625 586.398438 40.59375 606.535156 52.355469 C 654.625 80.457031 666.578125 159.109375 639.535156 268.558594 C 747.953125 299.402344 810 349.050781 810 405.152344 C 810 461.25 747.953125 510.898438 639.535156 541.746094 C 666.578125 651.191406 654.636719 729.835938 606.535156 757.949219 C 586.523438 769.636719 562.027344 771.890625 534.433594 764.492188 C 495.8125 754.144531 451.140625 724.808594 405 679.53125 C 358.859375 724.808594 314.1875 754.15625 275.578125 764.492188 C 264.953125 767.339844 254.691406 768.785156 245.085938 768.785156 C 245.066406 768.785156 245.046875 768.785156 245.023438 768.785156 Z M 245.117188 51.917969 C 231.609375 51.917969 219.425781 55.054688 208.699219 61.332031 C 164.835938 86.960938 154.761719 165.300781 181.75 270.90625 C 182.449219 273.648438 180.828125 276.453125 178.097656 277.203125 C 73.085938 306.164062 10.382812 354.007812 10.382812 405.152344 C 10.382812 456.296875 73.085938 504.136719 178.105469 533.101562 C 180.835938 533.847656 182.457031 536.652344 181.761719 539.398438 C 154.761719 645 164.835938 723.351562 208.699219 748.972656 C 219.394531 755.214844 231.617188 758.382812 245.023438 758.382812 C 245.046875 758.382812 245.066406 758.382812 245.085938 758.382812 C 253.789062 758.382812 263.136719 757.066406 272.886719 754.457031 C 310.757812 744.308594 355.183594 714.605469 401.335938 668.542969 C 403.359375 666.527344 406.640625 666.527344 408.664062 668.542969 C 454.816406 714.59375 499.242188 744.296875 537.113281 754.457031 C 561.972656 761.097656 583.6875 759.246094 601.300781 748.972656 C 645.164062 723.34375 655.238281 645 628.238281 539.398438 C 627.542969 536.652344 629.164062 533.847656 631.894531 533.101562 C 736.914062 504.136719 799.617188 456.296875 799.617188 405.152344 C 799.617188 354.007812 736.914062 306.164062 631.894531 277.203125 C 629.164062 276.453125 627.542969 273.648438 628.238281 270.90625 C 655.226562 165.300781 645.15625 86.949219 601.289062 61.332031 C 583.648438 51.015625 562.046875 49.175781 537.101562 55.84375 C 499.230469 65.996094 454.816406 95.695312 408.65625 141.761719 C 406.628906 143.777344 403.347656 143.777344 401.324219 141.761719 C 355.164062 95.695312 310.75 65.996094 272.875 55.84375 C 263.105469 53.226562 253.839844 51.917969 245.117188 51.917969 Z M 564.777344 737.585938 C 557.894531 737.585938 550.457031 736.527344 542.492188 734.398438 C 507.902344 725.121094 466.558594 697.109375 422.925781 653.363281 C 420.972656 651.398438 420.898438 648.242188 422.757812 646.195312 C 446.277344 620.386719 469.425781 591.101562 491.578125 559.15625 C 492.449219 557.890625 493.839844 557.078125 495.378906 556.945312 C 532.886719 553.558594 568.691406 548.0625 601.808594 540.601562 C 604.519531 539.988281 607.28125 541.652344 607.976562 544.382812 C 632.234375 639.160156 625.664062 710.6875 590.824219 731.039062 C 583.355469 735.402344 574.644531 737.585938 564.777344 737.585938 Z M 433.777344 649.507812 C 474.804688 689.964844 513.25 715.800781 545.171875 724.359375 C 561.777344 728.796875 575.378906 728.027344 585.589844 722.074219 C 615.238281 704.746094 620.449219 638.207031 599.152344 551.832031 C 567.707031 558.679688 533.964844 563.800781 498.730469 567.074219 C 477.796875 597.117188 455.96875 624.8125 433.777344 649.507812 Z M 245.222656 737.585938 C 235.355469 737.585938 226.644531 735.402344 219.175781 731.050781 C 184.335938 710.6875 177.753906 639.160156 202.023438 544.382812 C 202.71875 541.660156 205.480469 540.03125 208.191406 540.601562 C 241.296875 548.0625 277.101562 553.558594 314.621094 556.945312 C 316.148438 557.078125 317.550781 557.890625 318.421875 559.15625 C 340.574219 591.101562 363.722656 620.386719 387.242188 646.195312 C 389.113281 648.242188 389.039062 651.398438 387.074219 653.363281 C 343.441406 697.101562 302.097656 725.121094 267.519531 734.398438 C 259.542969 736.515625 252.097656 737.585938 245.222656 737.585938 Z M 210.847656 551.832031 C 189.550781 638.195312 194.761719 704.746094 224.410156 722.074219 C 234.609375 728.019531 248.214844 728.796875 264.828125 724.359375 C 296.75 715.800781 335.195312 689.953125 376.222656 649.507812 C 354.042969 624.8125 332.214844 597.117188 311.277344 567.074219 C 276.042969 563.800781 242.292969 558.679688 210.847656 551.832031 Z M 405 632.210938 C 403.535156 632.210938 402.132812 631.589844 401.148438 630.496094 C 383.878906 611.390625 366.773438 590.355469 350.304688 567.976562 C 349.121094 566.367188 348.964844 564.207031 349.910156 562.4375 C 350.855469 560.671875 352.621094 559.59375 354.738281 559.707031 C 389.070312 561.378906 420.929688 561.378906 455.261719 559.707031 C 457.339844 559.582031 459.144531 560.671875 460.089844 562.4375 C 461.035156 564.207031 460.890625 566.355469 459.695312 567.976562 C 443.226562 590.34375 426.121094 611.382812 408.851562 630.496094 C 407.867188 631.585938 406.464844 632.210938 405 632.210938 Z M 365.195312 570.585938 C 378.1875 587.777344 391.542969 604.097656 405 619.246094 C 418.46875 604.097656 431.8125 587.789062 444.804688 570.585938 C 417.679688 571.625 392.320312 571.625 365.195312 570.585938 Z M 405 540.207031 C 380.398438 540.207031 355.601562 539.292969 331.28125 537.476562 C 329.691406 537.359375 328.246094 536.519531 327.355469 535.1875 C 313.46875 514.527344 300.5 493.65625 288.804688 473.167969 C 276.554688 451.683594 264.984375 429.554688 254.433594 407.386719 C 253.757812 405.972656 253.757812 404.332031 254.433594 402.917969 C 264.984375 380.746094 276.554688 358.621094 288.804688 337.136719 C 300.488281 316.667969 313.460938 295.796875 327.363281 275.101562 C 328.246094 273.785156 329.703125 272.941406 331.289062 272.816406 C 379.929688 269.179688 430.078125 269.179688 478.710938 272.816406 C 480.300781 272.929688 481.742188 273.773438 482.636719 275.101562 C 496.539062 295.796875 509.511719 316.667969 521.195312 337.136719 C 533.449219 358.621094 545.015625 380.746094 555.566406 402.917969 C 556.242188 404.332031 556.242188 405.972656 555.566406 407.386719 C 545.015625 429.554688 533.449219 451.683594 521.195312 473.167969 C 509.5 493.65625 496.53125 514.527344 482.644531 535.1875 C 481.761719 536.507812 480.308594 537.351562 478.71875 537.476562 C 454.398438 539.292969 429.601562 540.207031 405 540.207031 Z M 334.570312 527.292969 C 381.085938 530.640625 428.914062 530.640625 475.417969 527.292969 C 488.636719 507.523438 500.996094 487.585938 512.167969 468.003906 C 523.882812 447.464844 534.964844 426.335938 545.121094 405.152344 C 534.964844 383.96875 523.882812 362.828125 512.167969 342.296875 C 501.003906 322.734375 488.648438 302.800781 475.40625 283 C 428.894531 279.652344 381.074219 279.652344 334.5625 283 C 321.332031 302.800781 308.964844 322.734375 297.800781 342.296875 C 286.085938 362.835938 275.003906 383.96875 264.847656 405.152344 C 275.003906 426.335938 286.085938 447.476562 297.800781 468.003906 C 308.996094 487.597656 321.351562 507.523438 334.570312 527.292969 Z M 518.066406 533.671875 C 516.300781 533.671875 514.628906 532.769531 513.675781 531.25 C 512.605469 529.546875 512.617188 527.386719 513.683594 525.695312 C 523.324219 510.515625 531.683594 496.699219 539.230469 483.460938 C 547.164062 469.5625 555.097656 454.808594 562.835938 439.632812 C 563.75 437.835938 565.671875 436.765625 567.644531 436.804688 C 569.660156 436.878906 571.453125 438.105469 572.246094 439.976562 C 582.785156 464.898438 591.914062 489.820312 599.390625 514.039062 C 599.824219 515.417969 599.648438 516.925781 598.921875 518.171875 C 598.195312 519.429688 596.96875 520.324219 595.558594 520.632812 C 571.152344 526.089844 545.285156 530.460938 518.679688 533.640625 C 518.472656 533.660156 518.265625 533.671875 518.066406 533.671875 Z M 566.957031 454.300781 C 560.789062 466.125 554.519531 477.625 548.253906 488.605469 C 542.203125 499.222656 535.628906 510.203125 528.316406 521.941406 C 548.773438 519.222656 568.714844 515.78125 587.789062 511.6875 C 581.796875 492.84375 574.820312 473.613281 566.957031 454.300781 Z M 291.933594 533.671875 C 291.726562 533.671875 291.515625 533.660156 291.308594 533.640625 C 264.714844 530.453125 238.847656 526.078125 214.441406 520.625 C 213.03125 520.3125 211.816406 519.417969 211.078125 518.160156 C 210.351562 516.90625 210.183594 515.410156 210.609375 514.027344 C 218.085938 489.800781 227.214844 464.886719 237.753906 439.964844 C 238.546875 438.105469 240.339844 436.867188 242.355469 436.796875 C 244.246094 436.597656 246.25 437.824219 247.164062 439.621094 C 254.902344 454.800781 262.835938 469.550781 270.769531 483.453125 C 278.328125 496.6875 286.6875 510.503906 296.316406 525.683594 C 297.394531 527.375 297.394531 529.539062 296.324219 531.242188 C 295.371094 532.769531 293.707031 533.671875 291.933594 533.671875 Z M 222.21875 511.691406 C 241.296875 515.78125 261.234375 519.222656 281.691406 521.941406 C 274.371094 510.203125 267.808594 499.222656 261.753906 488.605469 C 255.480469 477.625 249.21875 466.113281 243.050781 454.300781 C 235.179688 473.613281 228.203125 492.84375 222.21875 511.691406 Z M 624.789062 513.207031 C 622.558594 513.207031 620.511719 511.761719 619.828125 509.527344 C 609.703125 476.503906 596.480469 442.113281 580.550781 407.324219 C 579.917969 405.949219 579.917969 404.363281 580.550781 402.992188 C 596.480469 368.199219 609.703125 333.800781 619.835938 300.761719 C 620.667969 298.074219 623.511719 296.566406 626.183594 297.28125 C 720.351562 323.246094 778.847656 364.570312 778.847656 405.152344 C 778.847656 445.730469 720.339844 487.058594 626.160156 513.019531 C 625.703125 513.144531 625.238281 513.207031 624.789062 513.207031 Z M 590.976562 405.152344 C 605.890625 437.929688 618.425781 470.363281 628.25 501.644531 C 713.601562 477.300781 768.460938 439.664062 768.460938 405.152344 C 768.460938 370.640625 713.601562 333 628.25 308.660156 C 618.414062 339.949219 605.878906 372.382812 590.976562 405.152344 Z M 185.210938 513.207031 C 184.753906 513.207031 184.296875 513.144531 183.828125 513.019531 C 89.660156 487.058594 31.152344 445.730469 31.152344 405.152344 C 31.152344 364.570312 89.648438 323.246094 183.828125 297.28125 C 186.507812 296.566406 189.34375 298.074219 190.171875 300.761719 C 200.308594 333.800781 213.527344 368.199219 229.457031 402.992188 C 230.09375 404.363281 230.09375 405.941406 229.457031 407.324219 C 213.519531 442.125 200.308594 476.511719 190.183594 509.527344 C 189.5 511.761719 187.441406 513.207031 185.210938 513.207031 Z M 181.75 308.660156 C 96.402344 333 41.539062 370.640625 41.539062 405.152344 C 41.539062 439.664062 96.402344 477.300781 181.75 501.644531 C 191.585938 470.363281 204.109375 437.9375 219.023438 405.152344 C 204.121094 372.382812 191.585938 339.949219 181.75 308.660156 Z M 567.46875 373.539062 C 565.515625 373.539062 563.730469 372.445312 562.835938 370.703125 C 554.972656 355.242188 547.25 340.894531 539.242188 326.859375 C 531.703125 313.644531 523.34375 299.828125 513.683594 284.617188 C 512.605469 282.925781 512.605469 280.765625 513.675781 279.0625 C 514.746094 277.367188 516.65625 276.433594 518.691406 276.671875 C 545.304688 279.859375 571.175781 284.234375 595.578125 289.679688 C 596.992188 289.988281 598.207031 290.882812 598.941406 292.140625 C 599.671875 293.398438 599.835938 294.894531 599.410156 296.277344 C 591.921875 320.542969 582.785156 345.46875 572.265625 370.359375 C 571.476562 372.21875 569.679688 373.453125 567.664062 373.527344 C 567.582031 373.539062 567.519531 373.539062 567.46875 373.539062 Z M 548.246094 321.707031 C 554.589844 332.824219 560.757812 344.125 566.949219 356.011719 C 574.800781 336.730469 581.777344 317.480469 587.769531 298.613281 C 568.691406 294.519531 548.753906 291.082031 528.285156 288.359375 C 535.636719 300.121094 542.203125 311.101562 548.246094 321.707031 Z M 242.53125 373.539062 C 242.46875 373.539062 242.40625 373.539062 242.347656 373.539062 C 240.332031 373.464844 238.535156 372.238281 237.746094 370.371094 C 227.226562 345.476562 218.085938 320.554688 210.601562 296.285156 C 210.164062 294.902344 210.339844 293.398438 211.066406 292.152344 C 211.792969 290.894531 213.019531 290 214.433594 289.6875 C 238.835938 284.234375 264.703125 279.859375 291.320312 276.683594 C 293.34375 276.472656 295.265625 277.378906 296.335938 279.070312 C 297.40625 280.773438 297.394531 282.9375 296.324219 284.628906 C 286.667969 299.839844 278.308594 313.65625 270.769531 326.871094 C 262.761719 340.90625 255.035156 355.242188 247.175781 370.710938 C 246.269531 372.445312 244.484375 373.539062 242.53125 373.539062 Z M 222.21875 298.613281 C 228.210938 317.480469 235.199219 336.730469 243.042969 356.011719 C 249.242188 344.125 255.398438 332.824219 261.746094 321.707031 C 267.796875 311.101562 274.363281 300.121094 281.691406 288.359375 C 261.234375 291.082031 241.296875 294.519531 222.21875 298.613281 Z M 602.960938 269.824219 C 602.578125 269.824219 602.203125 269.785156 601.820312 269.699219 C 568.714844 262.242188 532.898438 256.746094 495.378906 253.359375 C 493.851562 253.222656 492.449219 252.414062 491.578125 251.144531 C 469.425781 219.191406 446.269531 189.914062 422.757812 164.117188 C 420.886719 162.070312 420.960938 158.914062 422.925781 156.949219 C 466.550781 113.210938 507.902344 85.183594 542.492188 75.917969 C 561.902344 70.722656 578.195312 71.894531 590.824219 79.261719 C 625.664062 99.625 632.246094 171.152344 607.988281 265.929688 C 607.386719 268.257812 605.289062 269.824219 602.960938 269.824219 Z M 498.722656 243.230469 C 533.957031 246.503906 567.707031 251.625 599.152344 258.46875 C 620.449219 172.105469 615.238281 105.554688 585.578125 88.226562 C 575.410156 82.296875 561.785156 81.515625 545.171875 85.941406 C 513.25 94.503906 474.796875 120.351562 433.765625 160.804688 C 455.957031 185.476562 477.785156 213.175781 498.722656 243.230469 Z M 207.039062 269.824219 C 204.710938 269.824219 202.613281 268.257812 202.011719 265.917969 C 177.753906 171.140625 184.328125 99.625 219.167969 79.261719 C 219.167969 79.261719 219.167969 79.261719 219.175781 79.261719 C 231.804688 71.894531 248.121094 70.722656 267.496094 75.917969 C 302.097656 85.195312 343.441406 113.210938 387.066406 156.949219 C 389.019531 158.914062 389.089844 162.070312 387.230469 164.117188 C 363.722656 189.914062 340.5625 219.199219 318.414062 251.144531 C 317.539062 252.414062 316.148438 253.222656 314.613281 253.359375 C 277.101562 256.746094 241.285156 262.242188 208.171875 269.699219 C 207.796875 269.785156 207.421875 269.824219 207.039062 269.824219 Z M 224.410156 88.226562 C 194.761719 105.554688 189.550781 172.105469 210.839844 258.46875 C 242.285156 251.625 276.035156 246.503906 311.269531 243.230469 C 332.214844 213.175781 354.03125 185.476562 376.214844 160.792969 C 335.183594 120.339844 296.742188 94.492188 264.808594 85.929688 C 248.265625 81.515625 234.621094 82.285156 224.410156 88.226562 Z M 455.511719 250.585938 C 455.425781 250.585938 455.34375 250.585938 455.261719 250.585938 C 420.929688 248.914062 389.082031 248.914062 354.75 250.585938 C 352.609375 250.636719 350.863281 249.609375 349.921875 247.851562 C 348.976562 246.085938 349.121094 243.9375 350.316406 242.316406 C 366.796875 219.925781 383.898438 198.890625 401.15625 179.796875 C 403.128906 177.625 406.890625 177.625 408.863281 179.796875 C 426.113281 198.878906 443.214844 219.917969 459.707031 242.316406 C 460.890625 243.925781 461.046875 246.085938 460.101562 247.851562 C 459.175781 249.535156 457.410156 250.585938 455.511719 250.585938 Z M 405 238.929688 C 417.898438 238.929688 431.242188 239.199219 444.804688 239.730469 C 431.800781 222.515625 418.449219 206.191406 405 191.066406 C 391.550781 206.203125 378.199219 222.515625 365.195312 239.730469 C 378.757812 239.199219 392.101562 238.929688 405 238.929688 Z M 405 238.929688 "/>
</g>
</svg>
