<?xml version="1.0" encoding="UTF-8"?>
<svg xmlns="http://www.w3.org/2000/svg" xmlns:xlink="http://www.w3.org/1999/xlink" width="810pt" height="809.999993pt" viewBox="0 0 810 809.999993" version="1.2">
<defs>
<clipPath id="clip1">
  <path d="M 153 738 L 650 738 L 650 803.085938 L 153 803.085938 Z M 153 738 "/>
</clipPath>
</defs>
<g id="surface1">
<path style=" stroke:none;fill-rule:nonzero;fill:rgb(18.429565%,18.818665%,19.219971%);fill-opacity:1;" d="M 532.304688 737.421875 C 532.304688 764.550781 506.027344 786.535156 473.613281 786.535156 L 330.109375 786.535156 C 297.683594 786.535156 271.40625 764.550781 271.40625 737.421875 L 271.40625 670.191406 C 271.40625 643.074219 297.683594 621.078125 330.109375 621.078125 L 473.613281 621.078125 C 506.027344 621.078125 532.304688 643.074219 532.304688 670.191406 L 532.304688 737.421875 "/>
<path style=" stroke:none;fill-rule:nonzero;fill:rgb(11.369324%,12.548828%,27.449036%);fill-opacity:1;" d="M 532.304688 737.421875 L 529.671875 737.421875 C 529.664062 750.117188 523.542969 761.652344 513.425781 770.128906 C 503.304688 778.601562 489.222656 783.902344 473.613281 783.902344 L 330.109375 783.902344 C 314.488281 783.902344 300.40625 778.601562 290.289062 770.128906 C 280.167969 761.652344 274.046875 750.117188 274.039062 737.421875 L 274.039062 670.191406 C 274.046875 657.507812 280.167969 645.964844 290.289062 637.484375 C 300.40625 629.015625 314.488281 623.699219 330.109375 623.710938 L 473.613281 623.710938 C 489.222656 623.699219 503.304688 629.015625 513.425781 637.484375 C 523.542969 645.964844 529.664062 657.507812 529.671875 670.191406 L 529.671875 737.421875 L 534.9375 737.421875 L 534.9375 670.191406 C 534.9375 655.757812 527.925781 642.738281 516.808594 633.445312 C 505.667969 624.140625 490.417969 618.449219 473.613281 618.449219 L 330.109375 618.449219 C 313.292969 618.449219 298.03125 624.140625 286.90625 633.445312 C 275.785156 642.738281 268.773438 655.757812 268.773438 670.191406 L 268.773438 737.421875 C 268.773438 751.855469 275.785156 764.878906 286.90625 774.167969 C 298.03125 783.472656 313.292969 789.167969 330.109375 789.167969 L 473.613281 789.167969 C 490.417969 789.167969 505.667969 783.472656 516.808594 774.167969 C 527.925781 764.878906 534.9375 751.855469 534.9375 737.421875 L 532.304688 737.421875 "/>
<path style=" stroke:none;fill-rule:nonzero;fill:rgb(28.239441%,29.019165%,29.798889%);fill-opacity:1;" d="M 806.660156 633.464844 C 806.660156 660.601562 780.382812 682.585938 747.964844 682.585938 L 55.746094 682.585938 C 23.320312 682.585938 -2.957031 660.601562 -2.957031 633.464844 L -2.957031 172.097656 C -2.957031 144.96875 23.320312 122.984375 55.746094 122.984375 L 747.964844 122.984375 C 780.382812 122.984375 806.660156 144.96875 806.660156 172.097656 L 806.660156 633.464844 "/>
<path style=" stroke:none;fill-rule:nonzero;fill:rgb(11.369324%,12.548828%,27.449036%);fill-opacity:1;" d="M 806.660156 633.464844 L 804.027344 633.464844 C 804.015625 646.160156 797.898438 657.703125 787.777344 666.183594 C 777.65625 674.652344 763.578125 679.957031 747.964844 679.957031 L 55.746094 679.957031 C 40.125 679.957031 26.042969 674.652344 15.925781 666.183594 C 5.804688 657.703125 -0.316406 646.160156 -0.324219 633.464844 L -0.324219 172.097656 C -0.316406 159.402344 5.804688 147.871094 15.925781 139.390625 C 26.042969 130.917969 40.125 125.617188 55.746094 125.617188 L 747.964844 125.617188 C 763.566406 125.617188 777.65625 130.917969 787.777344 139.390625 C 797.898438 147.871094 804.015625 159.402344 804.027344 172.097656 L 804.027344 633.464844 L 809.292969 633.464844 L 809.292969 172.097656 C 809.292969 157.664062 802.277344 144.640625 791.160156 135.351562 C 780.023438 126.046875 764.769531 120.351562 747.964844 120.351562 L 55.746094 120.351562 C 38.941406 120.351562 23.679688 126.046875 12.539062 135.351562 C 1.421875 144.640625 -5.589844 157.664062 -5.589844 172.097656 L -5.589844 633.464844 C -5.589844 647.90625 1.421875 660.929688 12.539062 670.222656 C 23.679688 679.523438 38.929688 685.207031 55.746094 685.21875 L 747.964844 685.21875 C 764.769531 685.207031 780.023438 679.523438 791.160156 670.222656 C 802.277344 660.929688 809.292969 647.90625 809.292969 633.464844 L 806.660156 633.464844 "/>
<path style=" stroke:none;fill-rule:nonzero;fill:rgb(94.898987%,94.898987%,94.119263%);fill-opacity:1;" d="M 755.988281 569.273438 C 755.988281 591.1875 732.992188 608.960938 704.636719 608.960938 L 99.066406 608.960938 C 70.722656 608.960938 47.722656 591.1875 47.722656 569.273438 L 47.722656 196.457031 C 47.722656 174.53125 70.722656 156.769531 99.066406 156.769531 L 704.636719 156.769531 C 732.992188 156.769531 755.988281 174.53125 755.988281 196.457031 L 755.988281 569.273438 "/>
<path style=" stroke:none;fill-rule:nonzero;fill:rgb(11.369324%,12.548828%,27.449036%);fill-opacity:1;" d="M 755.988281 569.273438 L 753.355469 569.273438 C 753.355469 579.277344 748.128906 588.445312 739.335938 595.25 C 730.554688 602.042969 718.261719 606.328125 704.636719 606.328125 L 99.066406 606.328125 C 85.449219 606.328125 73.160156 602.042969 64.375 595.25 C 55.59375 588.445312 50.355469 579.277344 50.355469 569.273438 L 50.355469 196.457031 C 50.355469 186.445312 55.59375 177.277344 64.375 170.472656 C 73.160156 163.679688 85.4375 159.390625 99.066406 159.402344 L 704.636719 159.402344 C 718.261719 159.390625 730.554688 163.679688 739.335938 170.472656 C 748.128906 177.277344 753.355469 186.445312 753.355469 196.457031 L 753.355469 569.273438 L 758.621094 569.273438 L 758.621094 196.457031 C 758.621094 184.542969 752.355469 173.863281 742.554688 166.308594 C 732.742188 158.734375 719.363281 154.140625 704.636719 154.140625 L 99.066406 154.140625 C 84.347656 154.140625 70.957031 158.734375 61.15625 166.308594 C 51.367188 173.863281 45.089844 184.542969 45.089844 196.457031 L 45.089844 569.273438 C 45.089844 581.175781 51.367188 591.855469 61.15625 599.410156 C 70.957031 606.988281 84.347656 611.582031 99.066406 611.59375 L 704.636719 611.59375 C 719.363281 611.582031 732.742188 606.988281 742.554688 599.410156 C 752.355469 591.855469 758.621094 581.175781 758.621094 569.273438 L 755.988281 569.273438 "/>
<path style=" stroke:none;fill-rule:nonzero;fill:rgb(94.898987%,94.898987%,94.119263%);fill-opacity:1;" d="M 426.097656 645.304688 C 426.097656 658.679688 415.234375 669.53125 401.855469 669.53125 C 388.464844 669.53125 377.613281 658.679688 377.613281 645.304688 C 377.613281 631.921875 388.464844 621.078125 401.855469 621.078125 C 415.234375 621.078125 426.097656 631.921875 426.097656 645.304688 "/>
<path style=" stroke:none;fill-rule:nonzero;fill:rgb(11.369324%,12.548828%,27.449036%);fill-opacity:1;" d="M 426.097656 645.304688 L 423.464844 645.304688 C 423.464844 651.277344 421.046875 656.664062 417.128906 660.582031 C 413.210938 664.496094 407.820312 666.902344 401.855469 666.902344 C 395.878906 666.902344 390.492188 664.496094 386.574219 660.582031 C 382.65625 656.664062 380.246094 651.277344 380.238281 645.304688 C 380.246094 639.335938 382.65625 633.957031 386.574219 630.03125 C 390.492188 626.125 395.878906 623.710938 401.855469 623.710938 C 407.820312 623.710938 413.210938 626.125 417.128906 630.03125 C 421.046875 633.957031 423.464844 639.335938 423.464844 645.304688 L 428.730469 645.304688 C 428.730469 630.472656 416.695312 618.449219 401.855469 618.449219 C 387.015625 618.449219 374.980469 630.472656 374.980469 645.304688 C 374.980469 660.136719 387.015625 672.164062 401.855469 672.164062 C 416.695312 672.164062 428.730469 660.136719 428.730469 645.304688 L 426.097656 645.304688 "/>
<path style=" stroke:none;fill-rule:nonzero;fill:rgb(28.239441%,29.019165%,29.798889%);fill-opacity:1;" d="M 647.21875 770.941406 C 647.21875 787.203125 633.488281 800.402344 616.546875 800.402344 L 187.164062 800.402344 C 170.214844 800.402344 156.484375 787.203125 156.484375 770.941406 C 156.484375 754.679688 170.214844 741.492188 187.164062 741.492188 L 616.546875 741.492188 C 633.488281 741.492188 647.21875 754.679688 647.21875 770.941406 "/>
<g clip-path="url(#clip1)" clip-rule="nonzero">
<path style=" stroke:none;fill-rule:nonzero;fill:rgb(11.369324%,12.548828%,27.449036%);fill-opacity:1;" d="M 647.21875 770.941406 L 644.585938 770.941406 C 644.585938 778.324219 641.476562 784.992188 636.40625 789.875 C 631.335938 794.738281 624.324219 797.769531 616.546875 797.769531 L 187.164062 797.769531 C 179.378906 797.769531 172.363281 794.738281 167.292969 789.875 C 162.222656 784.992188 159.117188 778.324219 159.117188 770.941406 C 159.117188 763.5625 162.222656 756.890625 167.292969 752.019531 C 172.363281 747.148438 179.378906 744.125 187.164062 744.125 L 616.546875 744.125 C 624.324219 744.125 631.335938 747.148438 636.40625 752.019531 C 641.476562 756.890625 644.585938 763.5625 644.585938 770.941406 L 649.851562 770.941406 C 649.851562 762.0625 646.085938 754.003906 640.058594 748.226562 C 634.03125 742.429688 625.703125 738.863281 616.546875 738.863281 L 187.164062 738.863281 C 178 738.863281 169.667969 742.429688 163.644531 748.226562 C 157.617188 754.003906 153.839844 762.0625 153.851562 770.941406 C 153.839844 779.824219 157.617188 787.882812 163.644531 793.667969 C 169.667969 799.457031 178 803.03125 187.164062 803.03125 L 616.546875 803.03125 C 625.703125 803.03125 634.03125 799.457031 640.058594 793.667969 C 646.085938 787.882812 649.851562 779.824219 649.851562 770.941406 L 647.21875 770.941406 "/>
</g>
<path style=" stroke:none;fill-rule:nonzero;fill:rgb(81.568909%,81.959534%,81.17981%);fill-opacity:1;" d="M 601.019531 533.320312 C 601.019531 551.441406 585.734375 566.128906 566.875 566.128906 L 236.839844 566.128906 C 217.976562 566.128906 202.683594 551.441406 202.683594 533.320312 L 202.683594 35.511719 C 202.683594 17.382812 217.976562 2.683594 236.839844 2.683594 L 566.875 2.683594 C 585.734375 2.683594 601.019531 17.382812 601.019531 35.511719 L 601.019531 533.320312 "/>
<path style=" stroke:none;fill-rule:nonzero;fill:rgb(11.369324%,12.548828%,27.449036%);fill-opacity:1;" d="M 601.019531 533.320312 L 598.386719 533.320312 C 598.386719 541.625 594.898438 549.140625 589.203125 554.617188 C 583.492188 560.097656 575.613281 563.496094 566.875 563.496094 L 236.839844 563.496094 C 228.097656 563.496094 220.207031 560.097656 214.511719 554.617188 C 208.8125 549.140625 205.316406 541.625 205.316406 533.320312 L 205.316406 35.511719 C 205.316406 27.199219 208.8125 19.683594 214.511719 14.195312 C 220.207031 8.714844 228.097656 5.3125 236.839844 5.3125 L 566.875 5.3125 C 575.613281 5.3125 583.492188 8.714844 589.191406 14.195312 C 594.898438 19.683594 598.386719 27.199219 598.386719 35.511719 L 598.386719 533.320312 L 603.652344 533.320312 L 603.652344 35.511719 C 603.660156 25.695312 599.507812 16.804688 592.84375 10.402344 C 586.1875 4 576.992188 0.0507812 566.875 0.0507812 L 236.839844 0.0507812 C 226.71875 0.0507812 217.523438 4 210.859375 10.402344 C 204.207031 16.804688 200.050781 25.695312 200.050781 35.511719 L 200.050781 533.320312 C 200.050781 543.125 204.207031 552.015625 210.859375 558.421875 C 217.523438 564.8125 226.71875 568.761719 236.839844 568.761719 L 566.875 568.761719 C 576.992188 568.761719 586.1875 564.8125 592.84375 558.421875 C 599.507812 552.015625 603.660156 543.125 603.652344 533.320312 L 601.019531 533.320312 "/>
<path style=" stroke:none;fill-rule:nonzero;fill:rgb(16.468811%,21.179199%,33.329773%);fill-opacity:1;" d="M 601.019531 57.261719 L 601.019531 42.535156 C 601.019531 20.527344 585.734375 2.683594 566.875 2.683594 L 236.839844 2.683594 C 217.976562 2.683594 202.683594 20.527344 202.683594 42.535156 L 202.683594 57.261719 L 601.019531 57.261719 "/>
<path style=" stroke:none;fill-rule:nonzero;fill:rgb(11.369324%,12.548828%,27.449036%);fill-opacity:1;" d="M 601.019531 57.261719 L 603.652344 57.261719 L 603.652344 42.535156 C 603.652344 30.917969 599.628906 20.363281 593.015625 12.644531 C 586.425781 4.945312 577.15625 0.0507812 566.875 0.0507812 L 236.839844 0.0507812 C 226.554688 0.0507812 217.277344 4.945312 210.683594 12.644531 C 204.082031 20.363281 200.050781 30.917969 200.050781 42.535156 L 200.050781 57.261719 C 200.050781 57.960938 200.328125 58.628906 200.820312 59.121094 C 201.324219 59.617188 201.984375 59.894531 202.683594 59.894531 L 601.019531 59.894531 C 601.726562 59.894531 602.386719 59.617188 602.878906 59.121094 C 603.382812 58.628906 603.652344 57.960938 603.652344 57.261719 L 601.019531 57.261719 L 601.019531 54.632812 L 205.316406 54.632812 L 205.316406 42.535156 C 205.316406 32.140625 208.9375 22.777344 214.683594 16.066406 C 220.457031 9.355469 228.25 5.324219 236.839844 5.3125 L 566.875 5.3125 C 575.449219 5.324219 583.257812 9.355469 589.015625 16.066406 C 594.777344 22.777344 598.394531 32.140625 598.386719 42.535156 L 598.386719 57.261719 L 601.019531 57.261719 L 601.019531 54.632812 L 601.019531 57.261719 "/>
<path style=" stroke:none;fill-rule:nonzero;fill:rgb(100%,100%,100%);fill-opacity:1;" d="M 547.238281 29.984375 C 547.238281 37.960938 540.761719 44.425781 532.78125 44.425781 C 524.789062 44.425781 518.328125 37.960938 518.328125 29.984375 C 518.328125 21.996094 524.789062 15.53125 532.78125 15.53125 C 540.761719 15.53125 547.238281 21.996094 547.238281 29.984375 "/>
<path style=" stroke:none;fill-rule:nonzero;fill:rgb(11.369324%,12.548828%,27.449036%);fill-opacity:1;" d="M 547.238281 29.984375 L 544.605469 29.984375 C 544.597656 33.25 543.28125 36.191406 541.140625 38.328125 C 538.992188 40.476562 536.050781 41.792969 532.78125 41.792969 C 529.5 41.792969 526.566406 40.476562 524.417969 38.328125 C 522.277344 36.191406 520.960938 33.25 520.960938 29.984375 C 520.960938 26.703125 522.277344 23.765625 524.417969 21.617188 C 526.566406 19.476562 529.5 18.164062 532.78125 18.164062 C 536.050781 18.164062 538.992188 19.476562 541.140625 21.617188 C 543.28125 23.765625 544.597656 26.703125 544.605469 29.984375 L 549.871094 29.984375 C 549.871094 20.535156 542.210938 12.898438 532.78125 12.898438 C 523.339844 12.898438 515.695312 20.546875 515.695312 29.984375 C 515.695312 39.410156 523.339844 47.054688 532.78125 47.054688 C 542.210938 47.054688 549.863281 39.417969 549.871094 29.984375 L 547.238281 29.984375 "/>
<path style=" stroke:none;fill-rule:nonzero;fill:rgb(100%,100%,100%);fill-opacity:1;" d="M 511.851562 29.984375 C 511.851562 37.960938 505.390625 44.425781 497.402344 44.425781 C 489.417969 44.425781 482.949219 37.960938 482.949219 29.984375 C 482.949219 21.996094 489.417969 15.53125 497.402344 15.53125 C 505.390625 15.53125 511.851562 21.996094 511.851562 29.984375 "/>
<path style=" stroke:none;fill-rule:nonzero;fill:rgb(11.369324%,12.548828%,27.449036%);fill-opacity:1;" d="M 511.851562 29.984375 L 509.21875 29.984375 C 509.21875 33.25 507.902344 36.191406 505.761719 38.328125 C 503.613281 40.476562 500.679688 41.792969 497.402344 41.792969 C 494.128906 41.792969 491.1875 40.476562 489.050781 38.328125 C 486.898438 36.191406 485.582031 33.25 485.582031 29.984375 C 485.582031 26.703125 486.898438 23.765625 489.050781 21.617188 C 491.1875 19.476562 494.128906 18.164062 497.402344 18.164062 C 500.679688 18.164062 503.613281 19.476562 505.761719 21.617188 C 507.902344 23.765625 509.21875 26.703125 509.21875 29.984375 L 514.484375 29.984375 C 514.484375 20.546875 506.839844 12.898438 497.402344 12.898438 C 487.960938 12.898438 480.316406 20.546875 480.316406 29.984375 C 480.316406 39.410156 487.960938 47.054688 497.402344 47.054688 C 506.839844 47.054688 514.484375 39.410156 514.484375 29.984375 L 511.851562 29.984375 "/>
<path style=" stroke:none;fill-rule:nonzero;fill:rgb(100%,100%,100%);fill-opacity:1;" d="M 580.964844 29.984375 C 580.964844 37.960938 574.496094 44.425781 566.511719 44.425781 C 558.523438 44.425781 552.054688 37.960938 552.054688 29.984375 C 552.054688 21.996094 558.523438 15.53125 566.511719 15.53125 C 574.496094 15.53125 580.964844 21.996094 580.964844 29.984375 "/>
<path style=" stroke:none;fill-rule:nonzero;fill:rgb(11.369324%,12.548828%,27.449036%);fill-opacity:1;" d="M 580.964844 29.984375 L 578.332031 29.984375 C 578.332031 33.25 577.015625 36.191406 574.863281 38.328125 C 572.726562 40.476562 569.785156 41.792969 566.511719 41.792969 C 563.234375 41.792969 560.292969 40.476562 558.152344 38.328125 C 556.003906 36.191406 554.6875 33.25 554.6875 29.984375 C 554.6875 26.703125 556.003906 23.765625 558.152344 21.617188 C 560.292969 19.476562 563.234375 18.164062 566.511719 18.164062 C 569.785156 18.164062 572.726562 19.476562 574.863281 21.617188 C 577.015625 23.765625 578.332031 26.703125 578.332031 29.984375 L 583.597656 29.984375 C 583.597656 20.535156 575.945312 12.898438 566.511719 12.898438 C 557.070312 12.898438 549.421875 20.535156 549.421875 29.984375 C 549.421875 39.417969 557.070312 47.054688 566.511719 47.054688 C 575.945312 47.054688 583.597656 39.417969 583.597656 29.984375 L 580.964844 29.984375 "/>
<path style=" stroke:none;fill-rule:nonzero;fill:rgb(95.689392%,52.159119%,9.01947%);fill-opacity:1;" d="M 521.507812 106.261719 C 521.507812 116.457031 513.238281 124.722656 503.046875 124.722656 L 300.664062 124.722656 C 290.460938 124.722656 282.195312 116.457031 282.195312 106.261719 C 282.195312 96.066406 290.460938 87.800781 300.664062 87.800781 L 503.046875 87.800781 C 513.238281 87.800781 521.507812 96.066406 521.507812 106.261719 "/>
<path style=" stroke:none;fill-rule:nonzero;fill:rgb(11.369324%,12.548828%,27.449036%);fill-opacity:1;" d="M 521.507812 106.261719 L 518.875 106.261719 C 518.875 110.640625 517.105469 114.578125 514.238281 117.453125 C 511.367188 120.324219 507.429688 122.089844 503.046875 122.089844 L 300.664062 122.089844 C 296.285156 122.089844 292.335938 120.324219 289.464844 117.453125 C 286.597656 114.578125 284.828125 110.640625 284.828125 106.261719 C 284.828125 101.882812 286.597656 97.933594 289.464844 95.066406 C 292.335938 92.199219 296.285156 90.433594 300.664062 90.433594 L 503.046875 90.433594 C 507.429688 90.433594 511.367188 92.199219 514.238281 95.066406 C 517.105469 97.933594 518.875 101.882812 518.875 106.261719 L 524.140625 106.261719 C 524.140625 94.605469 514.699219 85.167969 503.046875 85.167969 L 300.664062 85.167969 C 289.003906 85.167969 279.5625 94.605469 279.5625 106.261719 C 279.5625 117.90625 289.003906 127.351562 300.664062 127.351562 L 503.046875 127.351562 C 514.699219 127.351562 524.140625 117.90625 524.140625 106.261719 L 521.507812 106.261719 "/>
<path style=" stroke:none;fill-rule:nonzero;fill:rgb(95.689392%,52.159119%,9.01947%);fill-opacity:1;" d="M 566.511719 152.8125 C 566.511719 163.007812 555.128906 171.273438 541.089844 171.273438 L 262.613281 171.273438 C 248.582031 171.273438 237.199219 163.007812 237.199219 152.8125 C 237.199219 142.617188 248.582031 134.351562 262.613281 134.351562 L 541.089844 134.351562 C 555.128906 134.351562 566.511719 142.617188 566.511719 152.8125 "/>
<path style=" stroke:none;fill-rule:nonzero;fill:rgb(11.369324%,12.548828%,27.449036%);fill-opacity:1;" d="M 566.511719 152.8125 L 563.878906 152.8125 C 563.878906 154.867188 563.316406 156.820312 562.246094 158.671875 C 560.628906 161.449219 557.824219 163.957031 554.140625 165.753906 C 550.46875 167.554688 545.964844 168.640625 541.089844 168.640625 L 262.613281 168.640625 C 256.113281 168.640625 250.269531 166.710938 246.199219 163.738281 C 244.152344 162.25 242.546875 160.523438 241.476562 158.671875 C 240.398438 156.820312 239.832031 154.867188 239.832031 152.8125 C 239.832031 150.757812 240.398438 148.804688 241.476562 146.953125 C 243.082031 144.179688 245.890625 141.671875 249.570312 139.863281 C 253.230469 138.0625 257.738281 136.984375 262.613281 136.984375 L 541.089844 136.984375 C 547.589844 136.972656 553.429688 138.917969 557.515625 141.886719 C 559.5625 143.367188 561.164062 145.105469 562.246094 146.953125 C 563.316406 148.804688 563.878906 150.757812 563.878906 152.8125 L 569.144531 152.8125 C 569.144531 149.769531 568.28125 146.871094 566.789062 144.300781 C 564.539062 140.449219 560.90625 137.324219 556.464844 135.144531 C 552.023438 132.964844 546.746094 131.722656 541.089844 131.722656 L 262.613281 131.722656 C 255.082031 131.730469 248.214844 133.921875 243.101562 137.632812 C 240.542969 139.492188 238.421875 141.734375 236.921875 144.300781 C 235.429688 146.871094 234.566406 149.769531 234.566406 152.8125 C 234.566406 155.855469 235.429688 158.753906 236.921875 161.324219 C 239.171875 165.179688 242.804688 168.304688 247.246094 170.480469 C 251.691406 172.652344 256.964844 173.894531 262.613281 173.90625 L 541.089844 173.90625 C 548.628906 173.894531 555.5 171.707031 560.609375 167.996094 C 563.171875 166.132812 565.289062 163.894531 566.789062 161.324219 C 568.28125 158.753906 569.144531 155.855469 569.144531 152.8125 L 566.511719 152.8125 "/>
<path style=" stroke:none;fill-rule:nonzero;fill:rgb(92.939758%,18.03894%,19.60907%);fill-opacity:1;" d="M 555.671875 295.644531 L 248.027344 295.644531 L 248.027344 189.703125 L 555.671875 189.703125 L 555.671875 295.644531 "/>
<path style=" stroke:none;fill-rule:nonzero;fill:rgb(11.369324%,12.548828%,27.449036%);fill-opacity:1;" d="M 555.671875 295.644531 L 555.671875 293.015625 L 250.660156 293.015625 L 250.660156 192.335938 L 553.039062 192.335938 L 553.039062 295.644531 L 555.671875 295.644531 L 555.671875 293.015625 L 555.671875 295.644531 L 558.304688 295.644531 L 558.304688 189.703125 C 558.304688 188.996094 558.027344 188.335938 557.535156 187.84375 C 557.03125 187.339844 556.371094 187.070312 555.671875 187.070312 L 248.027344 187.070312 C 247.339844 187.070312 246.660156 187.347656 246.167969 187.84375 C 245.671875 188.324219 245.394531 189.003906 245.394531 189.703125 L 245.394531 295.644531 C 245.394531 296.355469 245.671875 297.011719 246.167969 297.507812 C 246.660156 298.011719 247.328125 298.277344 248.027344 298.277344 L 555.671875 298.277344 C 556.371094 298.277344 557.03125 298.011719 557.535156 297.507812 C 558.027344 297.011719 558.304688 296.355469 558.304688 295.644531 L 555.671875 295.644531 "/>
<path style=" stroke:none;fill-rule:nonzero;fill:rgb(24.708557%,73.329163%,65.489197%);fill-opacity:1;" d="M 361.652344 514.796875 L 248.027344 514.796875 L 248.027344 320.5625 L 361.652344 320.5625 L 361.652344 514.796875 "/>
<path style=" stroke:none;fill-rule:nonzero;fill:rgb(11.369324%,12.548828%,27.449036%);fill-opacity:1;" d="M 361.652344 514.796875 L 361.652344 512.167969 L 250.660156 512.167969 L 250.660156 323.191406 L 359.019531 323.191406 L 359.019531 514.796875 L 361.652344 514.796875 L 361.652344 512.167969 L 361.652344 514.796875 L 364.285156 514.796875 L 364.285156 320.5625 C 364.285156 319.863281 364.019531 319.203125 363.515625 318.699219 C 363.019531 318.207031 362.363281 317.929688 361.652344 317.929688 L 248.027344 317.929688 C 247.339844 317.929688 246.660156 318.21875 246.167969 318.699219 C 245.671875 319.195312 245.394531 319.871094 245.394531 320.5625 L 245.394531 514.796875 C 245.394531 515.496094 245.671875 516.164062 246.167969 516.65625 C 246.660156 517.152344 247.328125 517.429688 248.027344 517.429688 L 361.652344 517.429688 C 362.363281 517.429688 363.019531 517.152344 363.515625 516.65625 C 364.019531 516.164062 364.285156 515.496094 364.285156 514.796875 L 361.652344 514.796875 "/>
<path style=" stroke:none;fill-rule:nonzero;fill:rgb(37.249756%,38.42926%,38.819885%);fill-opacity:1;" d="M 555.671875 341.4375 L 369.316406 341.4375 L 369.316406 320.5625 L 555.671875 320.5625 L 555.671875 341.4375 "/>
<path style=" stroke:none;fill-rule:nonzero;fill:rgb(11.369324%,12.548828%,27.449036%);fill-opacity:1;" d="M 555.671875 341.4375 L 555.671875 338.804688 L 371.949219 338.804688 L 371.949219 323.191406 L 553.039062 323.191406 L 553.039062 341.4375 L 555.671875 341.4375 L 555.671875 338.804688 L 555.671875 341.4375 L 558.304688 341.4375 L 558.304688 320.5625 C 558.304688 319.863281 558.027344 319.203125 557.535156 318.699219 C 557.03125 318.207031 556.371094 317.929688 555.671875 317.929688 L 369.316406 317.929688 C 368.625 317.929688 367.949219 318.21875 367.453125 318.699219 C 366.96875 319.195312 366.683594 319.871094 366.683594 320.5625 L 366.683594 341.4375 C 366.683594 342.136719 366.960938 342.792969 367.453125 343.296875 C 367.957031 343.792969 368.617188 344.070312 369.316406 344.070312 L 555.671875 344.070312 C 556.371094 344.070312 557.03125 343.792969 557.535156 343.296875 C 558.027344 342.792969 558.304688 342.136719 558.304688 341.4375 L 555.671875 341.4375 "/>
<path style=" stroke:none;fill-rule:nonzero;fill:rgb(37.249756%,38.42926%,38.819885%);fill-opacity:1;" d="M 555.671875 370.332031 L 369.316406 370.332031 L 369.316406 349.453125 L 555.671875 349.453125 L 555.671875 370.332031 "/>
<path style=" stroke:none;fill-rule:nonzero;fill:rgb(11.369324%,12.548828%,27.449036%);fill-opacity:1;" d="M 555.671875 370.332031 L 555.671875 367.699219 L 371.949219 367.699219 L 371.949219 352.085938 L 553.039062 352.085938 L 553.039062 370.332031 L 555.671875 370.332031 L 555.671875 367.699219 L 555.671875 370.332031 L 558.304688 370.332031 L 558.304688 349.453125 C 558.304688 348.753906 558.027344 348.085938 557.535156 347.59375 C 557.03125 347.101562 556.371094 346.824219 555.671875 346.824219 L 369.316406 346.824219 C 368.625 346.824219 367.949219 347.101562 367.453125 347.59375 C 366.96875 348.085938 366.683594 348.753906 366.683594 349.453125 L 366.683594 370.332031 C 366.683594 371.03125 366.960938 371.6875 367.453125 372.191406 C 367.957031 372.683594 368.617188 372.960938 369.316406 372.960938 L 555.671875 372.960938 C 556.371094 372.960938 557.03125 372.683594 557.535156 372.191406 C 558.027344 371.6875 558.304688 371.03125 558.304688 370.332031 L 555.671875 370.332031 "/>
<path style=" stroke:none;fill-rule:nonzero;fill:rgb(37.249756%,38.42926%,38.819885%);fill-opacity:1;" d="M 555.671875 399.222656 L 369.316406 399.222656 L 369.316406 378.347656 L 555.671875 378.347656 L 555.671875 399.222656 "/>
<path style=" stroke:none;fill-rule:nonzero;fill:rgb(11.369324%,12.548828%,27.449036%);fill-opacity:1;" d="M 555.671875 399.222656 L 555.671875 396.59375 L 371.949219 396.59375 L 371.949219 380.980469 L 553.039062 380.980469 L 553.039062 399.222656 L 555.671875 399.222656 L 555.671875 396.59375 L 555.671875 399.222656 L 558.304688 399.222656 L 558.304688 378.347656 C 558.304688 377.648438 558.027344 376.980469 557.535156 376.488281 C 557.03125 375.996094 556.371094 375.714844 555.671875 375.714844 L 369.316406 375.714844 C 368.625 375.714844 367.949219 375.996094 367.453125 376.488281 C 366.96875 376.980469 366.683594 377.660156 366.683594 378.347656 L 366.683594 399.222656 C 366.683594 399.921875 366.960938 400.582031 367.453125 401.085938 C 367.957031 401.578125 368.617188 401.855469 369.316406 401.855469 L 555.671875 401.855469 C 556.371094 401.855469 557.03125 401.578125 557.535156 401.085938 C 558.027344 400.582031 558.304688 399.921875 558.304688 399.222656 L 555.671875 399.222656 "/>
<path style=" stroke:none;fill-rule:nonzero;fill:rgb(37.249756%,38.42926%,38.819885%);fill-opacity:1;" d="M 555.671875 428.105469 L 369.316406 428.105469 L 369.316406 407.242188 L 555.671875 407.242188 L 555.671875 428.105469 "/>
<path style=" stroke:none;fill-rule:nonzero;fill:rgb(11.369324%,12.548828%,27.449036%);fill-opacity:1;" d="M 555.671875 428.105469 L 555.671875 425.476562 L 371.949219 425.476562 L 371.949219 409.871094 L 553.039062 409.871094 L 553.039062 428.105469 L 555.671875 428.105469 L 555.671875 425.476562 L 555.671875 428.105469 L 558.304688 428.105469 L 558.304688 407.242188 C 558.304688 406.542969 558.027344 405.882812 557.535156 405.382812 C 557.03125 404.886719 556.371094 404.609375 555.671875 404.609375 L 369.316406 404.609375 C 368.625 404.609375 367.949219 404.886719 367.453125 405.382812 C 366.96875 405.875 366.683594 406.554688 366.683594 407.242188 L 366.683594 428.105469 C 366.683594 428.816406 366.960938 429.472656 367.453125 429.96875 C 367.957031 430.472656 368.617188 430.738281 369.316406 430.738281 L 555.671875 430.738281 C 556.371094 430.738281 557.03125 430.472656 557.535156 429.96875 C 558.027344 429.472656 558.304688 428.816406 558.304688 428.105469 L 555.671875 428.105469 "/>
<path style=" stroke:none;fill-rule:nonzero;fill:rgb(37.249756%,38.42926%,38.819885%);fill-opacity:1;" d="M 555.671875 457.011719 L 369.316406 457.011719 L 369.316406 436.136719 L 555.671875 436.136719 L 555.671875 457.011719 "/>
<path style=" stroke:none;fill-rule:nonzero;fill:rgb(11.369324%,12.548828%,27.449036%);fill-opacity:1;" d="M 555.671875 457.011719 L 555.671875 454.378906 L 371.949219 454.378906 L 371.949219 438.765625 L 553.039062 438.765625 L 553.039062 457.011719 L 555.671875 457.011719 L 555.671875 454.378906 L 555.671875 457.011719 L 558.304688 457.011719 L 558.304688 436.136719 C 558.304688 435.4375 558.027344 434.777344 557.535156 434.273438 C 557.03125 433.78125 556.371094 433.503906 555.671875 433.503906 L 369.316406 433.503906 C 368.625 433.503906 367.949219 433.792969 367.453125 434.273438 C 366.96875 434.769531 366.683594 435.445312 366.683594 436.136719 L 366.683594 457.011719 C 366.683594 457.710938 366.960938 458.367188 367.453125 458.871094 C 367.957031 459.363281 368.617188 459.640625 369.316406 459.640625 L 555.671875 459.640625 C 556.371094 459.640625 557.03125 459.363281 557.535156 458.871094 C 558.027344 458.367188 558.304688 457.710938 558.304688 457.011719 L 555.671875 457.011719 "/>
<path style=" stroke:none;fill-rule:nonzero;fill:rgb(37.249756%,38.42926%,38.819885%);fill-opacity:1;" d="M 555.671875 485.902344 L 369.316406 485.902344 L 369.316406 465.039062 L 555.671875 465.039062 L 555.671875 485.902344 "/>
<path style=" stroke:none;fill-rule:nonzero;fill:rgb(11.369324%,12.548828%,27.449036%);fill-opacity:1;" d="M 555.671875 485.902344 L 555.671875 483.273438 L 371.949219 483.273438 L 371.949219 467.667969 L 553.039062 467.667969 L 553.039062 485.902344 L 555.671875 485.902344 L 555.671875 483.273438 L 555.671875 485.902344 L 558.304688 485.902344 L 558.304688 465.039062 C 558.304688 464.328125 558.027344 463.671875 557.535156 463.179688 C 557.03125 462.675781 556.371094 462.40625 555.671875 462.40625 L 369.316406 462.40625 C 368.625 462.40625 367.949219 462.683594 367.453125 463.179688 C 366.96875 463.660156 366.683594 464.339844 366.683594 465.039062 L 366.683594 485.902344 C 366.683594 486.601562 366.960938 487.261719 367.453125 487.765625 C 367.957031 488.257812 368.617188 488.535156 369.316406 488.535156 L 555.671875 488.535156 C 556.371094 488.535156 557.03125 488.257812 557.535156 487.765625 C 558.027344 487.261719 558.304688 486.601562 558.304688 485.902344 L 555.671875 485.902344 "/>
<path style=" stroke:none;fill-rule:nonzero;fill:rgb(37.249756%,38.42926%,38.819885%);fill-opacity:1;" d="M 555.671875 514.796875 L 369.316406 514.796875 L 369.316406 493.933594 L 555.671875 493.933594 L 555.671875 514.796875 "/>
<path style=" stroke:none;fill-rule:nonzero;fill:rgb(11.369324%,12.548828%,27.449036%);fill-opacity:1;" d="M 555.671875 514.796875 L 555.671875 512.167969 L 371.949219 512.167969 L 371.949219 496.5625 L 553.039062 496.5625 L 553.039062 514.796875 L 555.671875 514.796875 L 555.671875 512.167969 L 555.671875 514.796875 L 558.304688 514.796875 L 558.304688 493.933594 C 558.304688 493.222656 558.027344 492.566406 557.535156 492.070312 C 557.03125 491.566406 556.371094 491.300781 555.671875 491.300781 L 369.316406 491.300781 C 368.625 491.300781 367.949219 491.578125 367.453125 492.070312 C 366.96875 492.554688 366.683594 493.234375 366.683594 493.933594 L 366.683594 514.796875 C 366.683594 515.496094 366.960938 516.164062 367.453125 516.65625 C 367.957031 517.152344 368.617188 517.429688 369.316406 517.429688 L 555.671875 517.429688 C 556.371094 517.429688 557.03125 517.152344 557.535156 516.65625 C 558.027344 516.164062 558.304688 515.496094 558.304688 514.796875 L 555.671875 514.796875 "/>
</g>
</svg>
